SplineFontDB: 3.0
FontName: Parastoo
FullName: Parastoo
FamilyName: Parastoo
Weight: Regular
Copyright: Copyright (c) 2003 by Bitstream, Inc. All Rights Reserved.\nDejaVu changes are in public domain\nCopyright (c) 2015 by Saber Rastikerdar. All Rights Reserved.
Version: 0.9
ItalicAngle: 0
UnderlinePosition: -100
UnderlineWidth: 100
Ascent: 1536
Descent: 512
InvalidEm: 0
LayerCount: 2
Layer: 0 1 "Back" 1
Layer: 1 1 "Fore" 0
XUID: [1021 502 1027637223 7335572]
UniqueID: 4193122
UseUniqueID: 1
FSType: 0
OS2Version: 1
OS2_WeightWidthSlopeOnly: 0
OS2_UseTypoMetrics: 1
CreationTime: 1431850356
ModificationTime: 1452564065
PfmFamily: 17
TTFWeight: 400
TTFWidth: 5
LineGap: 0
VLineGap: 0
Panose: 2 11 6 3 3 8 4 2 2 4
OS2TypoAscent: 2000
OS2TypoAOffset: 0
OS2TypoDescent: -1000
OS2TypoDOffset: 0
OS2TypoLinegap: 0
OS2WinAscent: 2000
OS2WinAOffset: 0
OS2WinDescent: 1000
OS2WinDOffset: 0
HheadAscent: 2000
HheadAOffset: 0
HheadDescent: -1000
HheadDOffset: 0
OS2SubXSize: 1331
OS2SubYSize: 1433
OS2SubXOff: 0
OS2SubYOff: 286
OS2SupXSize: 1331
OS2SupYSize: 1433
OS2SupXOff: 0
OS2SupYOff: 983
OS2StrikeYSize: 102
OS2StrikeYPos: 530
OS2Vendor: 'PfEd'
OS2CodePages: 600001ff.dfff0000
Lookup: 1 0 0 "'case' Case-Sensitive Forms in Latin lookup 0" { "'case' Case-Sensitive Forms in Latin lookup 0 subtable"  } ['case' ('DFLT' <'dflt' > 'latn' <'CAT ' 'ESP ' 'GAL ' 'dflt' > ) ]
Lookup: 6 1 0 "'ccmp' Glyph Composition/Decomposition lookup 2" { "'ccmp' Glyph Composition/Decomposition lookup 2 subtable"  } ['ccmp' ('arab' <'KUR ' 'SND ' 'URD ' 'dflt' > 'hebr' <'dflt' > 'nko ' <'dflt' > ) ]
Lookup: 6 0 0 "'ccmp' Glyph Composition/Decomposition lookup 3" { "'ccmp' Glyph Composition/Decomposition lookup 3 subtable"  } ['ccmp' ('cyrl' <'MKD ' 'SRB ' 'dflt' > 'grek' <'dflt' > 'latn' <'ISM ' 'KSM ' 'LSM ' 'MOL ' 'NSM ' 'ROM ' 'SKS ' 'SSM ' 'dflt' > ) ]

StartChar: afii57388
Encoding: 1548 1548 2
Width: 762
VWidth: 2425
GlyphClass: 2
Flags: W
LayerCount: 2
Fore
SplineSet
418.907226562 266.875 m 1,0,-1
 434.737304688 266.875 l 2,1,2
 539.54296875 266.875 539.54296875 266.875 539.54296875 148.568359375 c 2,3,-1
 539.54296875 111.173828125 l 2,4,5
 539.625 3.24609375 539.625 3.24609375 428.491210938 3.24609375 c 2,6,-1
 387.681640625 3.24609375 l 2,7,8
 272.22265625 3.1650390625 272.22265625 3.1650390625 272.22265625 124.400390625 c 2,9,-1
 272.22265625 193.248046875 l 1,10,11
 293.228515625 455.916015625 293.228515625 455.916015625 481.947265625 616.926757812 c 2,12,-1
 484.013671875 618.69140625 l 1,13,-1
 552.970703125 584.247070312 l 1,14,-1
 549.348632812 580.236328125 l 2,15,16
 421.559570312 438.463867188 421.559570312 438.463867188 418.907226562 266.875 c 1,0,-1
EndSplineSet
EndChar

StartChar: uni0615
Encoding: 1557 1557 3
Width: 0
VWidth: 2459
GlyphClass: 4
Flags: W
AnchorPoint: "Anchor-10" 615.334 1442.45 mark 0
AnchorPoint: "Anchor-9" 615.334 1442.45 mark 0
AnchorPoint: "Anchor-1" 615.334 2223.64 basemark 0
AnchorPoint: "Anchor-1" 615.334 1442.45 mark 0
LayerCount: 2
Fore
SplineSet
527.854492188 1643.85058594 m 1,0,-1
 620.141601562 1643.85058594 l 2,1,2
 668.514648438 1643.85058594 668.514648438 1643.85058594 700.5234375 1648.34765625 c 128,-1,3
 732.533203125 1652.84375 732.533203125 1652.84375 746.822265625 1661.28613281 c 0,4,5
 781.88671875 1683.1171875 781.88671875 1683.1171875 799.431640625 1700.89453125 c 0,6,7
 808.119140625 1709.69433594 808.119140625 1709.69433594 812.333984375 1718.65429688 c 128,-1,8
 816.548828125 1727.61621094 816.548828125 1727.61621094 816.548828125 1736.90136719 c 0,9,10
 816.548828125 1759.71386719 816.548828125 1759.71386719 805.780273438 1776.75292969 c 128,-1,11
 795.010742188 1793.79199219 795.010742188 1793.79199219 773.02734375 1806.11328125 c 0,12,13
 764.74609375 1808.6875 764.74609375 1808.6875 756.133789062 1806.55957031 c 0,14,15
 746.604492188 1804.19140625 746.604492188 1804.19140625 720.04296875 1792.27539062 c 128,-1,16
 693.288085938 1780.28515625 693.288085938 1780.28515625 676.790039062 1773.76855469 c 0,17,18
 611.233398438 1747.29980469 611.233398438 1747.29980469 544.28515625 1664.23828125 c 2,19,-1
 527.854492188 1643.85058594 l 1,0,-1
647.783203125 1547.5234375 m 2,20,-1
 315.387695312 1547.5234375 l 1,21,-1
 315.387695312 1643.85058594 l 1,22,-1
 412.735351562 1643.85058594 l 1,23,-1
 412.735351562 2123.37890625 l 1,24,-1
 510.265625 2123.37890625 l 1,25,-1
 510.265625 1696.39355469 l 1,26,-1
 534.029296875 1744.58496094 l 2,27,28
 554.627929688 1786.34960938 554.627929688 1786.34960938 595.0546875 1818.73925781 c 128,-1,29
 635.48046875 1851.12890625 635.48046875 1851.12890625 695.509765625 1874.21777344 c 0,30,31
 766.818359375 1901.38085938 766.818359375 1901.38085938 846.455078125 1871.80566406 c 0,32,33
 916.482421875 1844.86523438 916.482421875 1844.86523438 916.482421875 1754.92871094 c 0,34,35
 916.482421875 1744.65429688 916.482421875 1744.65429688 915.76171875 1734.83203125 c 128,-1,36
 915.041992188 1725.00976562 915.041992188 1725.00976562 913.600585938 1715.640625 c 128,-1,37
 912.16015625 1706.27148438 912.16015625 1706.27148438 909.998046875 1697.35742188 c 128,-1,38
 907.834960938 1688.44335938 907.834960938 1688.44335938 904.953125 1679.98925781 c 128,-1,39
 902.073242188 1671.53613281 902.073242188 1671.53613281 898.466796875 1663.54394531 c 128,-1,40
 894.862304688 1655.55175781 894.862304688 1655.55175781 890.540039062 1648.02636719 c 128,-1,41
 886.216796875 1640.50195312 886.216796875 1640.50195312 881.168945312 1633.44335938 c 128,-1,42
 876.120117188 1626.3828125 876.120117188 1626.3828125 870.356445312 1619.79980469 c 128,-1,43
 864.591796875 1613.21777344 864.591796875 1613.21777344 858.099609375 1607.10351562 c 128,-1,44
 851.607421875 1600.99023438 851.607421875 1600.99023438 844.400390625 1595.36035156 c 0,45,46
 823.732421875 1579.28613281 823.732421875 1579.28613281 794.876953125 1568.63867188 c 128,-1,47
 766.022460938 1557.9921875 766.022460938 1557.9921875 729.348632812 1552.7578125 c 128,-1,48
 692.67578125 1547.5234375 692.67578125 1547.5234375 647.783203125 1547.5234375 c 2,20,-1
EndSplineSet
EndChar

StartChar: uni061B
Encoding: 1563 1563 4
Width: 747
VWidth: 2425
GlyphClass: 2
Flags: W
LayerCount: 2
Fore
SplineSet
393.583007812 716.5 m 5,0,-1
 409.413085938 716.5 l 6,1,2
 514.21875 716.5 514.21875 716.5 514.21875 598.193359375 c 6,3,-1
 514.21875 560.798828125 l 6,4,5
 514.30078125 452.87109375 514.30078125 452.87109375 403.166992188 452.87109375 c 6,6,-1
 362.358398438 452.87109375 l 6,7,8
 246.8984375 452.790039062 246.8984375 452.790039062 246.8984375 574.025390625 c 6,9,-1
 246.8984375 642.873046875 l 5,10,11
 267.904296875 905.541015625 267.904296875 905.541015625 456.623046875 1066.55175781 c 6,12,-1
 458.689453125 1068.31640625 l 5,13,-1
 527.646484375 1033.87207031 l 5,14,-1
 524.024414062 1029.86132812 l 6,15,16
 396.235351562 888.08984375 396.235351562 888.08984375 393.583007812 716.5 c 5,0,-1
252.3828125 132.622070312 m 128,-1,18
 252.3828125 186.665039062 252.3828125 186.665039062 289.537109375 224.946289062 c 0,19,20
 328.943359375 263.2265625 328.943359375 263.2265625 382.986328125 263.2265625 c 128,-1,21
 437.030273438 263.2265625 437.030273438 263.2265625 475.310546875 224.946289062 c 128,-1,22
 513.591796875 186.665039062 513.591796875 186.665039062 513.591796875 132.622070312 c 128,-1,23
 513.591796875 78.578125 513.591796875 78.578125 475.310546875 39.171875 c 0,24,25
 437.030273438 2.017578125 437.030273438 2.017578125 382.986328125 2.017578125 c 128,-1,26
 328.943359375 2.017578125 328.943359375 2.017578125 289.537109375 39.171875 c 0,27,17
 252.3828125 78.578125 252.3828125 78.578125 252.3828125 132.622070312 c 128,-1,18
EndSplineSet
EndChar

StartChar: uni061F
Encoding: 1567 1567 5
Width: 1095
VWidth: 2419
GlyphClass: 2
Flags: W
LayerCount: 2
Fore
SplineSet
497.54296875 132.622070312 m 128,-1,1
 497.54296875 186.665039062 497.54296875 186.665039062 534.697265625 224.946289062 c 0,2,3
 574.103515625 263.2265625 574.103515625 263.2265625 628.146484375 263.2265625 c 128,-1,4
 682.189453125 263.2265625 682.189453125 263.2265625 720.470703125 224.946289062 c 128,-1,5
 758.751953125 186.665039062 758.751953125 186.665039062 758.751953125 132.622070312 c 128,-1,6
 758.751953125 78.578125 758.751953125 78.578125 720.470703125 40.2978515625 c 128,-1,7
 682.189453125 2.017578125 682.189453125 2.017578125 628.146484375 2.017578125 c 128,-1,8
 574.103515625 2.017578125 574.103515625 2.017578125 534.697265625 39.171875 c 0,9,0
 497.54296875 78.578125 497.54296875 78.578125 497.54296875 132.622070312 c 128,-1,1
793.799804688 1166.63964844 m 0,10,11
 692 1379 692 1379 517.3203125 1363.20019531 c 0,12,13
 460 1358 460 1358 413.143554688 1323.9296875 c 0,14,15
 329 1262 329 1262 329.389648438 1129.546875 c 0,16,17
 329 1012 329 1012 463.3359375 887.02734375 c 1,18,-1
 569.3671875 782.173828125 l 1,19,20
 713.75390625 643.23680525 713.75390625 643.23680525 713.75390625 510.497070312 c 2,21,-1
 713.75390625 454.916015625 l 1,22,-1
 529.53515625 454.916015625 l 1,23,-1
 529.53515625 517.182617188 l 2,24,25
 530 580 530 580 499.3125 617.92578125 c 0,26,27
 466.541308516 659.86685578 466.541308516 659.86685578 419.944335938 705.40625 c 2,28,-1
 316.076171875 806.916992188 l 1,29,30
 162 952 162 952 162.19921875 1152.55273438 c 0,31,32
 162 1334 162 1334 288.360351562 1443.12011719 c 0,33,34
 388 1530 388 1530 535.6796875 1530.59960938 c 4,35,36
 595 1531 595 1531 670.6796875 1503.59960938 c 0,37,38
 810 1455 810 1455 893.16015625 1287.59960938 c 0,39,-1
 933.120117188 1195.79980469 l 1,40,-1
 808.919921875 1131 l 1,41,42
 802 1149 802 1149 793.799804688 1166.63964844 c 0,10,11
EndSplineSet
EndChar

StartChar: uni0621
Encoding: 1569 1569 6
Width: 843
VWidth: 2679
GlyphClass: 2
Flags: W
AnchorPoint: "Anchor-7" 423.391 -289.342 basechar 0
AnchorPoint: "Anchor-10" 387.771 1098.93 basechar 0
LayerCount: 2
Fore
SplineSet
98.888671875 -47.2197265625 m 5,0,-1
 172.799804688 136 l 5,1,2
 348.83984375 220.240234375 348.83984375 220.240234375 395.280273438 227.799804688 c 5,3,4
 115.559570312 235.360351562 115.559570312 235.360351562 142.559570312 445.959960938 c 4,5,6
 185.759765625 776.440429688 185.759765625 776.440429688 449.280273438 774.280273438 c 4,7,8
 591.83984375 773.200195312 591.83984375 773.200195312 643.6796875 588.51953125 c 5,9,10
 524.879882812 624.16015625 524.879882812 624.16015625 455.759765625 623.080078125 c 4,11,12
 363.959960938 620.919921875 363.959960938 620.919921875 311.040039062 577.719726562 c 4,13,14
 241.919921875 520.48046875 241.919921875 520.48046875 239.759765625 465.400390625 c 4,15,16
 233.280273438 315.280273438 233.280273438 315.280273438 455.759765625 305.559570312 c 4,17,18
 506.51953125 303.400390625 506.51953125 303.400390625 598.828125 325.129882812 c 4,19,20
 699.83984375 349.83984375 699.83984375 349.83984375 711.392578125 355.568359375 c 5,21,-1
 632.879882812 178.120117188 l 5,22,23
 529.200195312 150.040039062 529.200195312 150.040039062 365.040039062 74.4404296875 c 4,24,25
 232.200195312 13.9599609375 232.200195312 13.9599609375 98.888671875 -47.2197265625 c 5,0,-1
EndSplineSet
EndChar

StartChar: uni0627
Encoding: 1575 1575 12
Width: 422
VWidth: 2653
GlyphClass: 2
Flags: W
AnchorPoint: "Anchor-10" 217.777 1624.86 basechar 0
AnchorPoint: "Anchor-7" 196.347 -260.296 basechar 0
LayerCount: 2
Fore
SplineSet
291.919921875 1500.79980469 m 1,0,1
 316 1104 316 1104 282.243164062 347.354492188 c 0,2,3
 265.991210938 -10.1875 265.991210938 -10.1875 202.485351562 -19.7392578125 c 2,4,-1
 192.44140625 -21.25 l 1,5,6
 177.2578125 761.115234375 177.2578125 761.115234375 169.879882812 1001.83984375 c 0,7,8
 161 1284 161 1284 140.635742188 1408.6875 c 1,9,-1
 291.919921875 1500.79980469 l 1,0,1
EndSplineSet
Substitution2: "'fina' Terminal Forms in Arabic lookup 9 subtable" uniFE8E
EndChar

StartChar: uni062D
Encoding: 1581 1581 18
Width: 1291
VWidth: 2677
GlyphClass: 2
Flags: W
AnchorPoint: "Anchor-7" 317.915 -832.979 basechar 0
AnchorPoint: "Anchor-10" 532.492 1156.99 basechar 0
LayerCount: 2
Fore
SplineSet
834.3203125 407.620117188 m 0,0,1
 624 363 624 363 511.400390625 304.48046875 c 0,2,3
 321 207 321 207 255.98046875 90.4072265625 c 0,4,5
 189 -28 189 -28 188.48046875 -140.48046875 c 0,6,7
 188 -237 188 -237 242.48046875 -310.040039062 c 0,8,9
 364 -476 364 -476 723.080078125 -494.719726562 c 0,10,11
 748 -496 748 -496 773.173828125 -496.072265625 c 0,12,13
 1054 -499 1054 -499 1164.79980469 -431 c 1,14,15
 1033 -678 1033 -678 718.759765625 -678.040039062 c 4,16,17
 378 -678 378 -678 234.126953125 -540.788085938 c 0,18,19
 88 -402 88 -402 91.8203125 -181.51953125 c 0,20,21
 95 -10 95 -10 153.379882812 120.879882812 c 0,22,23
 317 483 317 483 836.48046875 558.280273438 c 1,24,25
 717 586 717 586 583.759765625 645.759765625 c 0,26,27
 536 667 536 667 489.799804688 678.16015625 c 0,28,29
 455 686 455 686 402.3203125 678.16015625 c 0,30,31
 317 665 317 665 258 566 c 0,32,33
 230 519 230 519 219.463867188 519.461914062 c 0,34,35
 192 521 192 521 200.091796875 561.642578125 c 0,36,37
 213 630 213 630 227.299804688 679.807617188 c 0,38,39
 279 859 279 859 455.114257812 858.860351562 c 0,40,41
 560 859 560 859 764.830078125 750.150390625 c 0,42,43
 975 638 975 638 1199.45703125 612.668945312 c 1,44,-1
 1159.40039062 449.200195312 l 1,45,46
 939 430 939 430 834.3203125 407.620117188 c 0,0,1
EndSplineSet
Substitution2: "'fina' Terminal Forms in Arabic lookup 9 subtable" uniFEA2
Substitution2: "'medi' Medial Forms in Arabic lookup 11 subtable" uniFEA4
Substitution2: "'init' Initial Forms in Arabic lookup 13 subtable" uniFEA3
EndChar

StartChar: uni062F
Encoding: 1583 1583 20
Width: 926
VWidth: 2675
GlyphClass: 2
Flags: W
AnchorPoint: "Anchor-10" 341.7 1328.47 basechar 0
AnchorPoint: "Anchor-7" 336.15 -280.495 basechar 0
LayerCount: 2
Fore
SplineSet
811.46875 155.395507812 m 4,0,1
 753 -12 753 -12 420.658203125 -10.01953125 c 4,2,3
 301 -9 301 -9 224.120117188 21.3203125 c 4,4,5
 49 90 49 90 116.515625 394.4765625 c 5,6,7
 145 412 145 412 175.772460938 393.225585938 c 5,8,9
 151 231 151 231 285 195 c 4,10,11
 326 184 326 184 376.212890625 183.771484375 c 4,12,13
 572 182 572 182 635.059570312 197.33984375 c 4,14,15
 750 225 750 225 719.653320312 348.517578125 c 4,16,17
 665 568 665 568 381.799804688 732.16015625 c 1,18,-1
 437.959960938 961.120117188 l 1,19,20
 850 685 850 685 834.100585938 267.997070312 c 4,21,22
 832 212 832 212 811.46875 155.395507812 c 4,0,1
EndSplineSet
Substitution2: "'fina' Terminal Forms in Arabic lookup 9 subtable" uniFEAA
EndChar

StartChar: uni0631
Encoding: 1585 1585 22
Width: 818
VWidth: 2680
GlyphClass: 2
Flags: W
AnchorPoint: "Anchor-7" 339.77 -817.596 basechar 0
AnchorPoint: "Anchor-10" 414.658 1036.99 basechar 0
LayerCount: 2
Fore
SplineSet
466.559570312 375.759765625 m 1,0,1
 521.639648438 472.959960938 521.639648438 472.959960938 576.719726562 571.375976562 c 1,2,3
 664.200195312 442.719726562 664.200195312 442.719726562 695.51953125 330.400390625 c 0,4,5
 757.080078125 112.240234375 757.080078125 112.240234375 695.27734375 -125.360351562 c 0,6,7
 626.400390625 -388.879882812 626.400390625 -388.879882812 452.51953125 -532.51953125 c 0,8,9
 407.16015625 -570.3203125 407.16015625 -570.3203125 358.559570312 -569.240234375 c 0,10,11
 160.919921875 -567.080078125 160.919921875 -567.080078125 31.3203125 -515.240234375 c 0,12,13
 9.7197265625 -506.599609375 9.7197265625 -506.599609375 28.484375 -492.88671875 c 0,14,15
 41.0400390625 -483.919921875 41.0400390625 -483.919921875 68.1435546875 -473.970703125 c 0,16,17
 594.803710938 -279.958984375 594.803710938 -279.958984375 634.745117188 77.607421875 c 0,18,19
 643.6796875 157.599609375 643.6796875 157.599609375 466.559570312 375.759765625 c 1,0,1
EndSplineSet
PairPos2: "'kern' Horizontal Kerning lookup 15-1" uni0632 dx=-80 dy=0 dh=-80 dv=0 dx=0 dy=0 dh=0 dv=0
PairPos2: "'kern' Horizontal Kerning lookup 15-1" uni0631 dx=-80 dy=0 dh=-80 dv=0 dx=0 dy=0 dh=0 dv=0
PairPos2: "'kern' Horizontal Kerning lookup 15-1" uni06CC dx=-100 dy=0 dh=-100 dv=0 dx=0 dy=0 dh=0 dv=0
PairPos2: "'kern' Horizontal Kerning lookup 15-1" uniFEEB dx=-170 dy=0 dh=-170 dv=0 dx=0 dy=0 dh=0 dv=0
PairPos2: "'kern' Horizontal Kerning lookup 15-1" uniFB7C dx=-100 dy=0 dh=-100 dv=0 dx=0 dy=0 dh=0 dv=0
PairPos2: "'kern' Horizontal Kerning lookup 15-1" uniFEDF dx=-170 dy=0 dh=-170 dv=0 dx=0 dy=0 dh=0 dv=0
PairPos2: "'kern' Horizontal Kerning lookup 15-1" uniFB90 dx=-170 dy=0 dh=-170 dv=0 dx=0 dy=0 dh=0 dv=0
PairPos2: "'kern' Horizontal Kerning lookup 15-1" uni06A9 dx=-170 dy=0 dh=-170 dv=0 dx=0 dy=0 dh=0 dv=0
PairPos2: "'kern' Horizontal Kerning lookup 15-1" uni0649 dx=-100 dy=0 dh=-100 dv=0 dx=0 dy=0 dh=0 dv=0
PairPos2: "'kern' Horizontal Kerning lookup 15-1" uni0647 dx=-170 dy=0 dh=-170 dv=0 dx=0 dy=0 dh=0 dv=0
PairPos2: "'kern' Horizontal Kerning lookup 15-1" uniFEE7 dx=-170 dy=0 dh=-170 dv=0 dx=0 dy=0 dh=0 dv=0
PairPos2: "'kern' Horizontal Kerning lookup 15-1" uniFEE3 dx=-170 dy=0 dh=-170 dv=0 dx=0 dy=0 dh=0 dv=0
PairPos2: "'kern' Horizontal Kerning lookup 15-1" uni0645 dx=-170 dy=0 dh=-170 dv=0 dx=0 dy=0 dh=0 dv=0
PairPos2: "'kern' Horizontal Kerning lookup 15-1" uni0644 dx=-100 dy=0 dh=-100 dv=0 dx=0 dy=0 dh=0 dv=0
PairPos2: "'kern' Horizontal Kerning lookup 15-1" uniFEDB dx=-170 dy=0 dh=-170 dv=0 dx=0 dy=0 dh=0 dv=0
PairPos2: "'kern' Horizontal Kerning lookup 15-1" uniFED7 dx=-170 dy=0 dh=-170 dv=0 dx=0 dy=0 dh=0 dv=0
PairPos2: "'kern' Horizontal Kerning lookup 15-1" uni0642 dx=-100 dy=0 dh=-100 dv=0 dx=0 dy=0 dh=0 dv=0
PairPos2: "'kern' Horizontal Kerning lookup 15-1" uniFED3 dx=-170 dy=0 dh=-170 dv=0 dx=0 dy=0 dh=0 dv=0
PairPos2: "'kern' Horizontal Kerning lookup 15-1" uni0641 dx=-170 dy=0 dh=-170 dv=0 dx=0 dy=0 dh=0 dv=0
PairPos2: "'kern' Horizontal Kerning lookup 15-1" uniFECF dx=-170 dy=0 dh=-170 dv=0 dx=0 dy=0 dh=0 dv=0
PairPos2: "'kern' Horizontal Kerning lookup 15-1" uniFECB dx=-170 dy=0 dh=-170 dv=0 dx=0 dy=0 dh=0 dv=0
PairPos2: "'kern' Horizontal Kerning lookup 15-1" uniFEC7 dx=-170 dy=0 dh=-170 dv=0 dx=0 dy=0 dh=0 dv=0
PairPos2: "'kern' Horizontal Kerning lookup 15-1" uni0638 dx=-170 dy=0 dh=-170 dv=0 dx=0 dy=0 dh=0 dv=0
PairPos2: "'kern' Horizontal Kerning lookup 15-1" uniFEC3 dx=-170 dy=0 dh=-170 dv=0 dx=0 dy=0 dh=0 dv=0
PairPos2: "'kern' Horizontal Kerning lookup 15-1" uni0637 dx=-170 dy=0 dh=-170 dv=0 dx=0 dy=0 dh=0 dv=0
PairPos2: "'kern' Horizontal Kerning lookup 15-1" uniFEBF dx=-170 dy=0 dh=-170 dv=0 dx=0 dy=0 dh=0 dv=0
PairPos2: "'kern' Horizontal Kerning lookup 15-1" uni0636 dx=-170 dy=0 dh=-170 dv=0 dx=0 dy=0 dh=0 dv=0
PairPos2: "'kern' Horizontal Kerning lookup 15-1" uniFEBB dx=-170 dy=0 dh=-170 dv=0 dx=0 dy=0 dh=0 dv=0
PairPos2: "'kern' Horizontal Kerning lookup 15-1" uni0635 dx=-170 dy=0 dh=-170 dv=0 dx=0 dy=0 dh=0 dv=0
PairPos2: "'kern' Horizontal Kerning lookup 15-1" uniFEB7 dx=-170 dy=0 dh=-170 dv=0 dx=0 dy=0 dh=0 dv=0
PairPos2: "'kern' Horizontal Kerning lookup 15-1" uni0634 dx=-170 dy=0 dh=-170 dv=0 dx=0 dy=0 dh=0 dv=0
PairPos2: "'kern' Horizontal Kerning lookup 15-1" uniFEB3 dx=-170 dy=0 dh=-170 dv=0 dx=0 dy=0 dh=0 dv=0
PairPos2: "'kern' Horizontal Kerning lookup 15-1" uni0633 dx=-170 dy=0 dh=-170 dv=0 dx=0 dy=0 dh=0 dv=0
PairPos2: "'kern' Horizontal Kerning lookup 15-1" uni0630 dx=-170 dy=0 dh=-170 dv=0 dx=0 dy=0 dh=0 dv=0
PairPos2: "'kern' Horizontal Kerning lookup 15-1" uni062F dx=-170 dy=0 dh=-170 dv=0 dx=0 dy=0 dh=0 dv=0
PairPos2: "'kern' Horizontal Kerning lookup 15-1" uniFEA7 dx=-170 dy=0 dh=-170 dv=0 dx=0 dy=0 dh=0 dv=0
PairPos2: "'kern' Horizontal Kerning lookup 15-1" uniFEA3 dx=-170 dy=0 dh=-170 dv=0 dx=0 dy=0 dh=0 dv=0
PairPos2: "'kern' Horizontal Kerning lookup 15-1" uniFE9F dx=-170 dy=0 dh=-170 dv=0 dx=0 dy=0 dh=0 dv=0
PairPos2: "'kern' Horizontal Kerning lookup 15-1" uniFE9B dx=-170 dy=0 dh=-170 dv=0 dx=0 dy=0 dh=0 dv=0
PairPos2: "'kern' Horizontal Kerning lookup 15-1" uni062B dx=-170 dy=0 dh=-170 dv=0 dx=0 dy=0 dh=0 dv=0
PairPos2: "'kern' Horizontal Kerning lookup 15-1" uniFE97 dx=-170 dy=0 dh=-170 dv=0 dx=0 dy=0 dh=0 dv=0
PairPos2: "'kern' Horizontal Kerning lookup 15-1" uni062A dx=-170 dy=0 dh=-170 dv=0 dx=0 dy=0 dh=0 dv=0
PairPos2: "'kern' Horizontal Kerning lookup 15-1" uni0629 dx=-170 dy=0 dh=-170 dv=0 dx=0 dy=0 dh=0 dv=0
PairPos2: "'kern' Horizontal Kerning lookup 15-1" uniFE91 dx=-104 dy=0 dh=-104 dv=0 dx=0 dy=0 dh=0 dv=0
PairPos2: "'kern' Horizontal Kerning lookup 15-1" uni0628 dx=-170 dy=0 dh=-170 dv=0 dx=0 dy=0 dh=0 dv=0
PairPos2: "'kern' Horizontal Kerning lookup 15-1" uni0627 dx=-190 dy=0 dh=-190 dv=0 dx=0 dy=0 dh=0 dv=0
PairPos2: "'kern' Horizontal Kerning lookup 15-1" uni0622 dx=-190 dy=0 dh=-190 dv=0 dx=0 dy=0 dh=0 dv=0
PairPos2: "'kern' Horizontal Kerning lookup 15-1" uniFB94 dx=-170 dy=0 dh=-170 dv=0 dx=0 dy=0 dh=0 dv=0
PairPos2: "'kern' Horizontal Kerning lookup 15-1" afii57509 dx=-170 dy=0 dh=-170 dv=0 dx=0 dy=0 dh=0 dv=0
PairPos2: "'kern' Horizontal Kerning lookup 15-1" uniFB56 dx=-170 dy=0 dh=-170 dv=0 dx=0 dy=0 dh=0 dv=0
PairPos2: "'kern' Horizontal Kerning lookup 15-1" afii57506 dx=-170 dy=0 dh=-170 dv=0 dx=0 dy=0 dh=0 dv=0
Substitution2: "'fina' Terminal Forms in Arabic lookup 9 subtable" uniFEAE
EndChar

StartChar: uni0633
Encoding: 1587 1587 24
Width: 2220
VWidth: 2681
GlyphClass: 2
Flags: W
AnchorPoint: "Anchor-7" 306.518 -775.048 basechar 0
AnchorPoint: "Anchor-10" 543.312 925.379 basechar 0
LayerCount: 2
Fore
SplineSet
645.280273438 -551.959960938 m 21,0,1
 335 -556 335 -556 199.799804688 -383.48046875 c 0,2,3
 62 -206 62 -206 112.6015625 101.37109375 c 0,4,5
 125 176 125 176 163.080078125 276.400390625 c 0,6,7
 213 407 213 407 257.657226562 377.919921875 c 0,8,9
 282 362 282 362 243.024414062 239.6796875 c 0,10,11
 162 -14 162 -14 249.48046875 -185.83984375 c 0,12,13
 339 -362 339 -362 678.240234375 -356.48046875 c 8,14,15
 1073 -350 1073 -350 1107.7578125 -18.8916015625 c 1,16,17
 1071 181 1071 181 990.83984375 343.360351562 c 1,18,-1
 1132.6796875 502.749023438 l 1,19,20
 1168 323 1168 323 1241.22167969 234.42578125 c 16,21,22
 1291 174 1291 174 1410.19628906 174.333984375 c 0,23,24
 1533.59361153 174.997813789 1533.59361153 174.997813789 1557.953125 395.544921875 c 2,25,-1
 1561.01855469 423.298828125 l 2,26,27
 1568 491 1568 491 1609.14355469 490.892578125 c 0,28,29
 1659 491 1659 491 1664.20703125 429.522460938 c 1,30,-1
 1665.52246094 402.645507812 l 2,31,32
 1676 184 1676 184 1842.828125 183.935546875 c 0,33,34
 1981 184 1981 184 2001.06152344 280.225585938 c 0,35,36
 2005 299 2005 299 2004.4765625 317.802734375 c 0,37,38
 2002 417 2002 417 1912.08007812 495.639648438 c 1,39,-1
 2038.44042969 728.919921875 l 1,40,41
 2107 633 2107 633 2126.16210938 436.915039062 c 0,42,43
 2129 408 2129 408 2128.79199219 380.5546875 c 0,44,45
 2126 213 2126 213 2048 104 c 0,46,47
 1967 -10 1967 -10 1830.20605469 -10.111328125 c 0,48,49
 1678 -10 1678 -10 1610.60449219 176.501953125 c 1,50,51
 1559 -11 1559 -11 1412.69433594 -10.9814453125 c 0,52,53
 1274 -11 1274 -11 1236.02050781 70.8544921875 c 1,54,55
 1235 14 1235 14 1224.12011719 -57.3203125 c 0,56,57
 1143 -552 1143 -552 645.280273438 -551.959960938 c 21,0,1
EndSplineSet
Substitution2: "'fina' Terminal Forms in Arabic lookup 9 subtable" uniFEB2
Substitution2: "'medi' Medial Forms in Arabic lookup 11 subtable" uniFEB4
Substitution2: "'init' Initial Forms in Arabic lookup 13 subtable" uniFEB3
EndChar

StartChar: uni0635
Encoding: 1589 1589 26
Width: 2403
VWidth: 2681
GlyphClass: 2
Flags: W
AnchorPoint: "Anchor-10" 578.028 923.835 basechar 0
AnchorPoint: "Anchor-7" 330.152 -761.998 basechar 0
LayerCount: 2
Fore
SplineSet
646.360351562 -551.959960938 m 21,0,1
 334 -555 334 -555 199.799804688 -383.48046875 c 0,2,3
 62 -206 62 -206 112.6015625 101.37109375 c 0,4,5
 125 176 125 176 163.080078125 276.400390625 c 0,6,7
 213 407 213 407 257.657226562 377.919921875 c 0,8,9
 282 362 282 362 243.024414062 239.6796875 c 0,10,11
 162 -14 162 -14 249.48046875 -185.83984375 c 0,12,13
 338 -361 338 -361 679.3203125 -356.48046875 c 8,14,15
 1075 -351 1075 -351 1109.7578125 -18.8916015625 c 1,16,17
 1064 191 1064 191 988.51953125 343.711914062 c 1,18,-1
 1132.51953125 502.749023438 l 1,19,20
 1175 288 1175 288 1235.00488281 239.89453125 c 24,21,22
 1297 189 1297 189 1375.16015625 195.400390625 c 1,23,24
 1744 733 1744 733 1997.24023438 728.379882812 c 0,25,26
 2188 725 2188 725 2272.30957031 560.614257812 c 0,27,28
 2326 455 2326 455 2311.30273438 296.321289062 c 24,29,30
 2290.88381047 70.7162425978 2290.88381047 70.7162425978 2118.73828125 36.2275390625 c 0,31,32
 1883.62687544 -10.4713608246 1883.62687544 -10.4713608246 1761.05761719 -10.4755859375 c 2,33,-1
 1477.75976562 -10.4853515625 l 2,34,35
 1303 -10 1303 -10 1238.02050781 70.8544921875 c 1,36,37
 1237 14 1237 14 1226.12011719 -57.3203125 c 0,38,39
 1145 -552 1145 -552 646.360351562 -551.959960938 c 21,0,1
1469.41699219 184.931640625 m 1,40,-1
 1688.81835938 184.931640625 l 2,41,42
 2052 185 2052 185 2147.90039062 211.599609375 c 0,43,44
 2245 239 2245 239 2195.95996094 382.780273438 c 0,45,46
 2147 527 2147 527 1991.04296875 544.311523438 c 0,47,48
 1860 559 1860 559 1667.18457031 398.15625 c 0,49,50
 1561 310 1561 310 1469.41699219 184.931640625 c 1,40,-1
EndSplineSet
Substitution2: "'fina' Terminal Forms in Arabic lookup 9 subtable" uniFEBA
Substitution2: "'medi' Medial Forms in Arabic lookup 11 subtable" uniFEBC
Substitution2: "'init' Initial Forms in Arabic lookup 13 subtable" uniFEBB
EndChar

StartChar: uni0637
Encoding: 1591 1591 28
Width: 1425
VWidth: 2681
GlyphClass: 2
Flags: W
AnchorPoint: "Anchor-10" 454.867 1587.13 basechar 0
AnchorPoint: "Anchor-7" 541.478 -279.438 basechar 0
LayerCount: 2
Fore
SplineSet
491.177734375 184.931640625 m 1,0,-1
 710.579101562 184.931640625 l 2,1,2
 1074.08007812 184.599609375 1074.08007812 184.599609375 1170.20019531 211.599609375 c 128,-1,3
 1266.3203125 238.599609375 1266.3203125 238.599609375 1217.71972656 382.780273438 c 128,-1,4
 1169.12011719 526.959960938 1169.12011719 526.959960938 1012.80273438 544.311523438 c 0,5,6
 881.83984375 559.360351562 881.83984375 559.360351562 688.9453125 398.15625 c 0,7,8
 582.6796875 309.879882812 582.6796875 309.879882812 491.177734375 184.931640625 c 1,0,-1
1140.49804688 36.2275390625 m 0,9,10
 1037.08610683 -9.51953125 1037.08610683 -9.51953125 782.817382812 -9.51953125 c 2,11,-1
 242.48046875 -9.51953125 l 17,12,13
 133 74 133 74 91.64453125 184.1015625 c 1,14,-1
 343.719726562 184.102539062 l 1,15,16
 392 243 392 243 439.040039062 302.3203125 c 1,17,18
 439 364 439 364 429.3203125 878.5 c 0,19,20
 422 1303 422 1303 394.759765625 1404.6796875 c 1,21,-1
 546.349609375 1500.88085938 l 1,22,-1
 545.590820312 415.028320312 l 1,23,24
 828 732 828 732 1019 728.379882812 c 0,25,26
 1211.70940392 724.969750864 1211.70940392 724.969750864 1294.0703125 560.614257812 c 0,27,28
 1350 449 1350 449 1333.0625 296.321289062 c 24,29,30
 1313 111 1313 111 1140.49804688 36.2275390625 c 0,9,10
EndSplineSet
Substitution2: "'fina' Terminal Forms in Arabic lookup 9 subtable" uniFEC2
Substitution2: "'medi' Medial Forms in Arabic lookup 11 subtable" uniFEC4
Substitution2: "'init' Initial Forms in Arabic lookup 13 subtable" uniFEC3
EndChar

StartChar: uni0639
Encoding: 1593 1593 30
Width: 1265
VWidth: 2677
GlyphClass: 2
Flags: W
AnchorPoint: "Anchor-10" 684.499 1427.65 basechar 0
AnchorPoint: "Anchor-7" 294.175 -862.654 basechar 0
LayerCount: 2
Fore
SplineSet
525.200195312 468.639648438 m 1,0,1
 353 530 353 530 342.48828125 682.737304688 c 0,2,3
 332 830 332 830 450.493164062 957.711914062 c 0,4,5
 528 1042 528 1042 626.758789062 1072.52441406 c 0,6,7
 689 1092 689 1092 763.693359375 1077.59277344 c 0,8,9
 978 1035 978 1035 1016.41308594 796.791992188 c 1,10,11
 929 856 929 856 838.439453125 883.447265625 c 0,12,13
 693 927 693 927 564.119140625 868.622070312 c 0,14,15
 429 808 429 808 435.373046875 716.872070312 c 0,16,17
 440 652 440 652 544.639648438 580.959960938 c 0,18,19
 598.817206219 544.470160572 598.817206219 544.470160572 649.439453125 534.684570312 c 0,20,21
 657.116472479 533.739436739 657.116472479 533.739436739 868.013671875 559.95703125 c 2,22,-1
 1079.05371094 586.192382812 l 1,23,-1
 1030.63964844 397.360351562 l 1,24,25
 691.247850823 396.997053997 691.247850823 396.997053997 514.400390625 305.559570312 c 0,26,27
 324 207 324 207 257.360351562 87.9404296875 c 0,28,29
 191 -30 191 -30 191.48046875 -133.459960938 c 0,30,31
 191 -237 191 -237 245.48046875 -310.040039062 c 0,32,33
 382 -496 382 -496 787.0078125 -496.142578125 c 0,34,35
 1061 -496 1061 -496 1173.20019531 -426.6796875 c 1,36,37
 1041 -678 1041 -678 723.005859375 -678.375 c 4,38,39
 380 -678 380 -678 237.126953125 -540.788085938 c 0,40,41
 91 -400 91 -400 91.0400390625 -180.98046875 c 0,42,43
 91 1 91 1 150.98046875 120.879882812 c 0,44,45
 268 355 268 355 525.200195312 468.639648438 c 1,0,1
EndSplineSet
Substitution2: "'fina' Terminal Forms in Arabic lookup 9 subtable" uniFECA
Substitution2: "'medi' Medial Forms in Arabic lookup 11 subtable" uniFECC
Substitution2: "'init' Initial Forms in Arabic lookup 13 subtable" uniFECB
EndChar

StartChar: afii57440
Encoding: 1600 1600 32
Width: 778
VWidth: 2700
GlyphClass: 2
Flags: W
AnchorPoint: "Anchor-10" 378.574 1574.94 basechar 0
AnchorPoint: "Anchor-7" 378.574 -163.989 basechar 0
LayerCount: 2
Fore
SplineSet
-10.8857421875 -9.51953125 m 1,0,-1
 -10.8857421875 183.51953125 l 1,1,-1
 788.443359375 183.51953125 l 5,2,-1
 788.443359375 -9.51953125 l 5,3,-1
 -10.8857421875 -9.51953125 l 1,0,-1
EndSplineSet
EndChar

StartChar: uni0643
Encoding: 1603 1603 35
Width: 1911
VWidth: 2653
GlyphClass: 2
Flags: W
AnchorPoint: "Anchor-10" 515.867 1402.36 basechar 0
AnchorPoint: "Anchor-7" 587.332 -268.779 basechar 0
LayerCount: 2
Fore
SplineSet
181.3203125 469.719726562 m 0,0,1
 188.953125 207.603515625 188.953125 207.603515625 585.19921875 188.390625 c 0,2,3
 717 182 717 182 945.959960938 184.599609375 c 152,-1,4
 1175 187 1175 187 1251.45507812 199.647460938 c 0,5,6
 1631 265 1631 265 1649.81445312 464.108398438 c 24,7,8
 1668 652 1668 652 1653.90039062 1024.29980469 c 0,9,10
 1644 1277 1644 1277 1624.92480469 1397.03320312 c 1,11,-1
 1780.72949219 1500.01367188 l 1,12,-1
 1780.72949219 510.466796875 l 1,13,14
 1774 374 1774 374 1740.83984375 304.48046875 c 0,15,16
 1689 196 1689 196 1612.3203125 142.48046875 c 0,17,18
 1467 40 1467 40 1261.99121094 15.8369140625 c 0,19,20
 1068 -7 1068 -7 827.764648438 -9.36328125 c 24,21,22
 425.477539062 -12.9775390625 425.477539062 -12.9775390625 293.4296875 55.28515625 c 0,23,24
 87 162 87 162 91.6796875 414.639648438 c 8,25,26
 94 546 94 546 122.689453125 634.959960938 c 0,27,28
 153.408203125 731.279296875 153.408203125 731.279296875 192.120117188 714.879882812 c 0,29,30
 206 709 206 709 206.16015625 691.120117188 c 0,31,32
 206 678 206 678 191.388671875 604.719726562 c 0,33,34
 179 540 179 540 181.3203125 469.719726562 c 0,0,1
653.057617188 718.890625 m 5,35,36
 724.204065228 709.075500879 724.204065228 709.075500879 804.537109375 708.59375 c 4,37,38
 873.436144629 708.029201694 873.436144629 708.029201694 936.834960938 732.1875 c 4,39,40
 1041 772 1041 772 1040.97558594 838.70703125 c 4,41,42
 1041 913 1041 913 920.301757812 932.28515625 c 4,43,44
 769 955 769 955 772.098632812 1095.03320312 c 4,45,46
 774 1191 774 1191 869.110351562 1239.08886719 c 4,47,48
 993 1302 993 1302 1139.40234375 1311.66992188 c 5,49,-1
 1101.77734375 1227.11230469 l 5,50,51
 945 1215 945 1215 874.745117188 1154.16503906 c 4,52,53
 845.16510346 1128.99153883 845.16510346 1128.99153883 844.948242188 1091.61132812 c 4,54,55
 844 1004 844 1004 947.739257812 988.967773438 c 4,56,57
 1051 974 1051 974 1081.94921875 945.145507812 c 4,58,59
 1113 917 1113 917 1113.36816406 878.848632812 c 4,60,61
 1113 792 1113 792 1072.69824219 740.577148438 c 4,62,63
 986 630 986 630 795.83984375 630.400390625 c 4,64,65
 722 630 722 630 653.057617188 641.6953125 c 5,66,-1
 653.057617188 718.890625 l 5,35,36
EndSplineSet
Substitution2: "'fina' Terminal Forms in Arabic lookup 9 subtable" uniFEDA
Substitution2: "'medi' Medial Forms in Arabic lookup 11 subtable" uniFEDC
Substitution2: "'init' Initial Forms in Arabic lookup 13 subtable" uniFEDB
EndChar

StartChar: uni0644
Encoding: 1604 1604 36
Width: 1291
VWidth: 2681
GlyphClass: 2
Flags: W
AnchorPoint: "Anchor-10" 437.301 1120.92 basechar 0
AnchorPoint: "Anchor-7" 279.176 -751.527 basechar 0
LayerCount: 2
Fore
SplineSet
620.360351562 -549.639648438 m 0,0,1
 328.021758381 -550.204704388 328.021758381 -550.204704388 193.799804688 -379.16015625 c 0,2,3
 55 -202 55 -202 106.6015625 105.69140625 c 0,4,5
 119 180 119 180 157.080078125 280.719726562 c 0,6,7
 207 411 207 411 251.657226562 382.240234375 c 0,8,9
 276 366 276 366 237.024414062 244 c 0,10,11
 156.564584112 -8.2301092061 156.564584112 -8.2301092061 243.48046875 -181.51953125 c 0,12,13
 330.042332938 -355.0700821 330.042332938 -355.0700821 633.3203125 -354.16015625 c 0,14,15
 1020 -353 1020 -353 1037.47753906 -14.5712890625 c 0,16,17
 1051.63979711 234.825985949 1051.63979711 234.825985949 1038.28027344 940.280273438 c 0,18,19
 1033 1221 1033 1221 1008.04003906 1396.04003906 c 1,20,-1
 1160.86523438 1490.55761719 l 1,21,-1
 1160.86523438 445.401367188 l 2,22,23
 1160 172 1160 172 1160.3203125 170.559570312 c 0,24,25
 1160 67 1160 67 1150.59960938 -9.7998046875 c 24,26,27
 1082 -549 1082 -549 620.360351562 -549.639648438 c 0,0,1
EndSplineSet
Substitution2: "'fina' Terminal Forms in Arabic lookup 9 subtable" uniFEDE
Substitution2: "'medi' Medial Forms in Arabic lookup 11 subtable" uniFEE0
Substitution2: "'init' Initial Forms in Arabic lookup 13 subtable" uniFEDF
EndChar

StartChar: uni0645
Encoding: 1605 1605 37
Width: 1062
VWidth: 2702
GlyphClass: 2
Flags: W
AnchorPoint: "Anchor-10" 540.858 1181.21 basechar 0
AnchorPoint: "Anchor-7" 235.724 -781.365 basechar 0
LayerCount: 2
Fore
SplineSet
849.440429688 335.799804688 m 0,0,1
 906.6796875 337.959960938 906.6796875 337.959960938 877.51953125 404.919921875 c 0,2,3
 832.16015625 506.440429688 832.16015625 506.440429688 729.559570312 582.040039062 c 0,4,5
 597.799804688 679.240234375 597.799804688 679.240234375 509.240234375 563.6796875 c 0,6,7
 459.559570312 498.879882812 459.559570312 498.879882812 440.120117188 350.919921875 c 1,8,9
 628.040039062 327.16015625 628.040039062 327.16015625 849.440429688 335.799804688 c 0,0,1
930.440429688 200.799804688 m 0,10,11
 881.83984375 147.879882812 881.83984375 147.879882812 701.303710938 156.751953125 c 0,12,13
 598.879882812 161.919921875 598.879882812 161.919921875 431.6015625 173.786132812 c 0,14,15
 239.240234375 186.759765625 239.240234375 186.759765625 211.16015625 100.360351562 c 0,16,17
 176.510742188 -5.7529296875 176.510742188 -5.7529296875 210.399414062 -147.403320312 c 2,18,-1
 305.120117188 -543.3203125 l 1,19,-1
 192.799804688 -654.916015625 l 2,20,21
 151.96875 -695.484375 151.96875 -695.484375 145.666992188 -635.120117188 c 2,22,-1
 91.46484375 -115.919921875 l 2,23,24
 75.080078125 42.0400390625 75.080078125 42.0400390625 110.719726562 142.48046875 c 0,25,26
 172.280273438 313.120117188 172.280273438 313.120117188 318.139648438 335.908203125 c 1,27,28
 346.16015625 617.6796875 346.16015625 617.6796875 498.440429688 745.120117188 c 0,29,30
 599.959960938 830.440429688 599.959960938 830.440429688 713.360351562 785.080078125 c 0,31,32
 933.6796875 699.759765625 933.6796875 699.759765625 971.022460938 391.040039062 c 0,33,34
 986.599609375 263.440429688 986.599609375 263.440429688 930.440429688 200.799804688 c 0,10,11
EndSplineSet
Substitution2: "'init' Initial Forms in Arabic lookup 13 subtable" uniFEE3
Substitution2: "'medi' Medial Forms in Arabic lookup 11 subtable" uniFEE4
Substitution2: "'fina' Terminal Forms in Arabic lookup 9 subtable" uniFEE2
EndChar

StartChar: uni0647
Encoding: 1607 1607 39
Width: 811
VWidth: 2676
GlyphClass: 2
Flags: W
AnchorPoint: "Anchor-10" 366.586 1093.68 basechar 0
AnchorPoint: "Anchor-7" 361.887 -251.77 basechar 0
LayerCount: 2
Fore
SplineSet
400.16015625 599.3203125 m 1,0,1
 206.83984375 381.16015625 206.83984375 381.16015625 207.068359375 300.482421875 c 0,2,3
 206.83984375 212.6796875 206.83984375 212.6796875 307.280273438 180.280273438 c 0,4,5
 347.240234375 167.3203125 347.240234375 167.3203125 423.572265625 167.290039062 c 0,6,7
 488.719726562 167.3203125 488.719726562 167.3203125 538.400390625 187.83984375 c 0,8,9
 612.919921875 219.16015625 612.919921875 219.16015625 612.2109375 285.950195312 c 0,10,11
 611.83984375 315.280273438 611.83984375 315.280273438 600.982421875 344.551757812 c 0,12,13
 550.280273438 479.440429688 550.280273438 479.440429688 400.16015625 599.3203125 c 1,0,1
128.392578125 111.767578125 m 0,14,15
 92.2099609375 172.953125 92.2099609375 172.953125 91.7412109375 255.634765625 c 0,16,17
 91 337 91 337 162.250976562 459.939453125 c 0,18,19
 233 583 233 583 321.3203125 685.719726562 c 1,20,-1
 282.440429688 714.879882812 l 1,21,-1
 371.591796875 876.302734375 l 1,22,23
 573 699 573 699 646.400390625 542.080078125 c 128,-1,24
 720 385 720 385 720.020507812 278.822265625 c 0,25,26
 720 140 720 140 605.360351562 46.6396484375 c 0,27,28
 537 -8 537 -8 406.9140625 -7.9541015625 c 0,29,30
 199 -8 199 -8 128.392578125 111.767578125 c 0,14,15
EndSplineSet
Substitution2: "'fina' Terminal Forms in Arabic lookup 9 subtable" uniFEEA
Substitution2: "'medi' Medial Forms in Arabic lookup 11 subtable" uniFEEC
Substitution2: "'init' Initial Forms in Arabic lookup 13 subtable" uniFEEB
EndChar

StartChar: uni0648
Encoding: 1608 1608 40
Width: 829
VWidth: 2701
GlyphClass: 2
Flags: W
AnchorPoint: "Anchor-10" 387.023 1094.56 basechar 0
AnchorPoint: "Anchor-7" 281.583 -807.828 basechar 0
LayerCount: 2
Fore
SplineSet
412.305664062 459.639648438 m 0,0,1
 290.51953125 456.759765625 290.51953125 456.759765625 259.8203125 297.442382812 c 0,2,3
 243 211.599609375 243 211.599609375 324.500976562 178.548828125 c 0,4,5
 437.400390625 132.759765625 437.400390625 132.759765625 614.935546875 186.958007812 c 1,6,7
 617.759765625 267.759765625 617.759765625 267.759765625 578.879882812 353.432617188 c 0,8,9
 530.280273438 462.16015625 530.280273438 462.16015625 412.305664062 459.639648438 c 0,0,1
536.03515625 637.697265625 m 0,10,11
 642 581 642 581 696.599609375 414.639648438 c 0,12,13
 715 358 715 358 727.919921875 251.01953125 c 0,14,15
 744 113 744 113 718.200195312 -26 c 0,16,17
 659 -340 659 -340 456.981445312 -530.360351562 c 0,18,19
 416 -569 416 -569 356.400390625 -568.895507812 c 0,20,21
 154 -569 154 -569 30.240234375 -515.240234375 c 0,22,23
 9 -506 9 -506 23.2197265625 -495.259765625 c 0,24,25
 38 -485 38 -485 68.1435546875 -473.970703125 c 0,26,27
 511 -310 511 -310 616 0 c 1,28,29
 503 -37 503 -37 388.119140625 -22.88671875 c 0,30,31
 275 -9 275 -9 210.099609375 74.1064453125 c 0,32,33
 145 158 145 158 158.54296875 292.030273438 c 0,34,35
 180 499 180 499 298.188476562 614.169921875 c 0,36,37
 362 676 362 676 454.912109375 665.916015625 c 0,38,39
 492 662 492 662 536.03515625 637.697265625 c 0,10,11
EndSplineSet
Substitution2: "'fina' Terminal Forms in Arabic lookup 9 subtable" uniFEEE
EndChar

StartChar: uni0649
Encoding: 1609 1609 41
Width: 1400
VWidth: 2696
GlyphClass: 2
Flags: W
AnchorPoint: "Anchor-10" 451.364 1043.44 basechar 0
AnchorPoint: "Anchor-7" 230.359 -621.492 basechar 0
LayerCount: 2
Fore
SplineSet
1308.51953125 537.759765625 m 0,0,1
 1312 512 1312 512 1303.12011719 497.799804688 c 0,2,3
 1296 486 1296 486 1282.59960938 490.240234375 c 0,4,-1
 1240.76660156 503.637695312 l 24,5,6
 1056 563 1056 563 946.719726562 427.599609375 c 0,7,8
 884 350 884 350 877.01953125 259.732421875 c 0,9,10
 871.001076162 181.01407566 871.001076162 181.01407566 1070.59277344 182.384765625 c 2,11,-1
 1094.90917969 182.551757812 l 2,12,13
 1178 183 1178 183 1237.22753906 171.041992188 c 0,14,15
 1312 155 1312 155 1308.51953125 16.1201171875 c 24,16,17
 1304 -150 1304 -150 1154.08007812 -290.599609375 c 0,18,19
 960 -471 960 -471 633.51953125 -470.959960938 c 0,20,21
 89 -472 89 -472 91.3603515625 -14.1201171875 c 0,22,23
 92 131 92 131 149.6796875 287.200195312 c 0,24,25
 198 419 198 419 273.96875 537.779296875 c 0,26,27
 291 564 291 564 313.721679688 549.639648438 c 0,28,29
 334 537 334 537 319.240234375 504.280273438 c 0,30,31
 239 328 239 328 214.436523438 126.50390625 c 0,32,33
 203 30 203 30 233.919921875 -57.3203125 c 0,34,35
 316 -286 316 -286 683.200195312 -271.16015625 c 0,36,37
 787 -267 787 -267 821.440429688 -262.51953125 c 0,38,39
 1138 -216 1138 -216 1207 -51 c 0,40,41
 1227 -3 1227 -3 1161.26757812 0.5048828125 c 0,42,43
 1118.83021227 2.5512728151 1118.83021227 2.5512728151 1020.40722656 2.8125 c 4,44,45
 886 3 886 3 834.400390625 45.48046875 c 0,46,47
 729 133 729 133 799.424804688 367.129882812 c 0,48,49
 851 539 851 539 941.3203125 617.780273438 c 0,50,51
 1024 691 1024 691 1110.87988281 700.83984375 c 0,52,53
 1284 719 1284 719 1308.51953125 537.759765625 c 0,0,1
EndSplineSet
Substitution2: "'fina' Terminal Forms in Arabic lookup 9 subtable" uniFEF0
Substitution2: "'medi' Medial Forms in Arabic lookup 11 subtable" uniFBE9
Substitution2: "'init' Initial Forms in Arabic lookup 13 subtable" uniFBE8
EndChar

StartChar: uni064B
Encoding: 1611 1611 43
Width: -21
VWidth: 1843
GlyphClass: 4
Flags: W
AnchorPoint: "Anchor-10" 487.615 889.456 mark 0
AnchorPoint: "Anchor-9" 487.615 889.456 mark 0
AnchorPoint: "Anchor-1" 455.615 1328.62 basemark 0
AnchorPoint: "Anchor-1" 487.615 889.456 mark 0
LayerCount: 2
Fore
SplineSet
241.612304688 846.409179688 m 1,0,-1
 241.612304688 938.201171875 l 1,1,-1
 644.543945312 1102.96289062 l 1,2,-1
 644.543945312 1011.16992188 l 1,3,-1
 241.612304688 846.409179688 l 1,0,-1
241.612304688 1065.21289062 m 1,4,-1
 241.612304688 1157.00390625 l 1,5,-1
 644.543945312 1321.765625 l 1,6,-1
 644.543945312 1229.97363281 l 1,7,-1
 241.612304688 1065.21289062 l 1,4,-1
EndSplineSet
EndChar

StartChar: uni064C
Encoding: 1612 1612 44
Width: -21
VWidth: 1843
GlyphClass: 4
Flags: W
AnchorPoint: "Anchor-10" 541.146 972.912 mark 0
AnchorPoint: "Anchor-9" 541.146 972.912 mark 0
AnchorPoint: "Anchor-1" 454.387 1526.68 basemark 0
AnchorPoint: "Anchor-1" 541.146 972.912 mark 0
LayerCount: 2
Fore
SplineSet
522.124023438 1386.29101562 m 0,0,1
 455.571289062 1386.29101562 455.571289062 1386.29101562 455.571289062 1326.91210938 c 0,2,3
 455.571289062 1283.86523438 455.571289062 1283.86523438 505.1640625 1264.02832031 c 0,4,5
 523.676757812 1256.62402344 523.676757812 1256.62402344 560.025390625 1245.42871094 c 1,6,-1
 570.47265625 1269.80273438 l 2,7,8
 579.752929688 1291.45800781 579.752929688 1291.45800781 579.752929688 1322.47753906 c 128,-1,9
 579.752929688 1353.49707031 579.752929688 1353.49707031 559.83984375 1369.89453125 c 128,-1,10
 539.92578125 1386.29101562 539.92578125 1386.29101562 522.124023438 1386.29101562 c 0,0,1
269.788085938 1109.39160156 m 0,11,12
 305.247070312 1033.41308594 305.247070312 1033.41308594 359.63671875 1033.41308594 c 128,-1,13
 414.025390625 1033.41308594 414.025390625 1033.41308594 474.21484375 1091.66210938 c 0,14,15
 509.388671875 1125.88574219 509.388671875 1125.88574219 529.4453125 1166 c 2,16,-1
 537.647460938 1182.40820312 l 1,17,-1
 519.700195312 1186.21582031 l 2,18,19
 445.576171875 1201.92773438 445.576171875 1201.92773438 405.114257812 1257.77148438 c 0,20,21
 382.6953125 1288.71289062 382.6953125 1288.71289062 382.6953125 1312.94238281 c 128,-1,22
 382.6953125 1337.17089844 382.6953125 1337.17089844 383.84765625 1346.81542969 c 0,23,24
 388.455078125 1385.38378906 388.455078125 1385.38378906 417.099609375 1421.37207031 c 128,-1,25
 445.744140625 1457.359375 445.744140625 1457.359375 509.552734375 1457.359375 c 128,-1,26
 573.361328125 1457.359375 573.361328125 1457.359375 612.091796875 1419.44433594 c 128,-1,27
 650.822265625 1381.52929688 650.822265625 1381.52929688 650.822265625 1316.06445312 c 0,28,29
 650.822265625 1282.99414062 650.822265625 1282.99414062 640.6328125 1250.72851562 c 2,30,-1
 635.115234375 1233.26074219 l 1,31,-1
 653.412109375 1232.30078125 l 2,32,33
 672.018554688 1231.31738281 672.018554688 1231.31738281 704.154296875 1230.6171875 c 1,34,-1
 704.154296875 1159.4609375 l 1,35,36
 673.32421875 1159.72265625 673.32421875 1159.72265625 659.130859375 1161.14648438 c 2,37,-1
 601.794921875 1166.65820312 l 1,38,39
 575.193359375 1104.31445312 575.193359375 1104.31445312 524.059570312 1051.65039062 c 128,-1,40
 472.924804688 998.986328125 472.924804688 998.986328125 435.029296875 980.666015625 c 128,-1,41
 397.134765625 962.345703125 397.134765625 962.345703125 357.666015625 962.345703125 c 0,42,43
 264.548828125 962.345703125 264.548828125 962.345703125 217.31640625 1092.24511719 c 0,44,45
 205.642578125 1124.14648438 205.642578125 1124.14648438 204.690429688 1212.39257812 c 1,46,-1
 257.685546875 1212.39257812 l 1,47,48
 258.626953125 1133.57421875 258.626953125 1133.57421875 269.788085938 1109.39160156 c 0,11,12
683.59375 1231.37597656 m 2,49,-1
 683.510742188 1231.38085938 l 2,50,51
 683.552734375 1231.37792969 683.552734375 1231.37792969 683.59375 1231.37597656 c 2,49,-1
EndSplineSet
EndChar

StartChar: uni064D
Encoding: 1613 1613 45
Width: -21
VWidth: 1843
GlyphClass: 4
Flags: W
AnchorPoint: "Anchor-7" 442.099 60.582 mark 0
AnchorPoint: "Anchor-6" 442.099 60.582 mark 0
AnchorPoint: "Anchor-0" 508.415 -374.489 basemark 0
AnchorPoint: "Anchor-0" 442.099 60.582 mark 0
LayerCount: 2
Fore
SplineSet
245.836914062 -412.342773438 m 1,0,-1
 245.836914062 -320.55078125 l 1,1,-1
 648.767578125 -155.790039062 l 1,2,-1
 648.767578125 -247.581054688 l 1,3,-1
 245.836914062 -412.342773438 l 1,0,-1
245.836914062 -193.540039062 m 1,4,-1
 245.836914062 -101.748046875 l 1,5,-1
 648.767578125 63.013671875 l 1,6,-1
 648.767578125 -28.7783203125 l 1,7,-1
 245.836914062 -193.540039062 l 1,4,-1
EndSplineSet
EndChar

StartChar: uni064E
Encoding: 1614 1614 46
Width: -21
VWidth: 1843
GlyphClass: 4
Flags: W
AnchorPoint: "Anchor-10" 462.271 1088.92 mark 0
AnchorPoint: "Anchor-9" 462.271 1088.92 mark 0
AnchorPoint: "Anchor-1" 430.271 1348.9 basemark 0
AnchorPoint: "Anchor-1" 462.271 1088.92 mark 0
LayerCount: 2
Fore
SplineSet
217.11328125 1064.3671875 m 1,0,-1
 217.11328125 1156.15917969 l 1,1,-1
 620.044921875 1320.92089844 l 1,2,-1
 620.044921875 1229.12890625 l 1,3,-1
 217.11328125 1064.3671875 l 1,0,-1
EndSplineSet
EndChar

StartChar: uni064F
Encoding: 1615 1615 47
Width: -21
VWidth: 1843
GlyphClass: 4
Flags: W
AnchorPoint: "Anchor-10" 492.498 1024.81 mark 0
AnchorPoint: "Anchor-9" 492.498 1024.81 mark 0
AnchorPoint: "Anchor-1" 437.215 1538.56 basemark 0
AnchorPoint: "Anchor-1" 492.498 1024.81 mark 0
LayerCount: 2
Fore
SplineSet
658.181640625 1171.37988281 m 1,0,1
 612.799804688 1172 612.799804688 1172 552.587890625 1178.41601562 c 1,2,3
 510.400390625 1119.20019531 510.400390625 1119.20019531 450.702148438 1082.39941406 c 0,4,5
 356 1023.20019531 356 1023.20019531 248.799804688 1019.20019531 c 1,6,-1
 248.799804688 1090.19335938 l 1,7,8
 353.599609375 1093.59960938 353.599609375 1093.59960938 416.251953125 1145.92773438 c 0,9,10
 444 1168.79980469 444 1168.79980469 455.759765625 1181.67578125 c 2,11,-1
 473.024414062 1199.86035156 l 1,12,-1
 448.551757812 1205.29296875 l 2,13,14
 443.200195312 1206.40039062 443.200195312 1206.40039062 411.861328125 1222.51464844 c 0,15,16
 381.599609375 1238.40039062 381.599609375 1238.40039062 359.088867188 1269.25585938 c 0,17,18
 336.799804688 1300 336.799804688 1300 336.723632812 1337.42578125 c 0,19,20
 336.799804688 1410.40039062 336.799804688 1410.40039062 393.420898438 1453.09179688 c 0,21,22
 415.200195312 1469.59960938 415.200195312 1469.59960938 471.169921875 1469.23730469 c 0,23,24
 527.200195312 1469.59960938 527.200195312 1469.59960938 566.120117188 1431.32226562 c 0,25,26
 604.799804688 1393.59960938 604.799804688 1393.59960938 604.849609375 1327.94335938 c 0,27,28
 604.799804688 1301.00097656 604.799804688 1301.00097656 592.834960938 1262.55175781 c 2,29,-1
 587.451171875 1245.24902344 l 1,30,-1
 605.544921875 1244.1796875 l 2,31,32
 636 1242.40039062 636 1242.40039062 658.181640625 1242.42285156 c 1,33,-1
 658.181640625 1171.37988281 l 1,0,1
514.053710938 1257.30761719 m 1,34,-1
 524.500976562 1281.6796875 l 2,35,36
 533.782226562 1303.33886719 533.782226562 1303.33886719 533.782226562 1334.35742188 c 128,-1,37
 533.782226562 1365.375 533.782226562 1365.375 513.865234375 1381.77246094 c 128,-1,38
 493.948242188 1398.16992188 493.948242188 1398.16992188 469.811523438 1398.16992188 c 128,-1,39
 445.674804688 1398.16992188 445.674804688 1398.16992188 427.637695312 1384.4296875 c 128,-1,40
 409.599609375 1370.68945312 409.599609375 1370.68945312 409.599609375 1333.21679688 c 128,-1,41
 409.599609375 1295.74414062 409.599609375 1295.74414062 459.192382812 1275.90527344 c 0,42,43
 477.728515625 1268.4921875 477.728515625 1268.4921875 514.053710938 1257.30761719 c 1,34,-1
EndSplineSet
EndChar

StartChar: uni0650
Encoding: 1616 1616 48
Width: -21
VWidth: 1843
GlyphClass: 4
Flags: W
AnchorPoint: "Anchor-7" 453.913 -12.96 mark 0
AnchorPoint: "Anchor-6" 453.913 -12.96 mark 0
AnchorPoint: "Anchor-0" 492.019 -261.556 basemark 0
AnchorPoint: "Anchor-0" 453.913 -12.96 mark 0
LayerCount: 2
Fore
SplineSet
254.28515625 -282.244140625 m 1,0,-1
 254.28515625 -190.451171875 l 1,1,-1
 657.215820312 -25.6904296875 l 1,2,-1
 657.215820312 -117.482421875 l 1,3,-1
 254.28515625 -282.244140625 l 1,0,-1
EndSplineSet
EndChar

StartChar: uni0651
Encoding: 1617 1617 49
Width: -21
VWidth: 1843
GlyphClass: 4
Flags: W
AnchorPoint: "Anchor-10" 487.615 1112.18 mark 0
AnchorPoint: "Anchor-9" 487.615 1112.18 mark 0
AnchorPoint: "Anchor-1" 463.077 1472.27 basemark 0
AnchorPoint: "Anchor-1" 487.615 1112.18 mark 0
LayerCount: 2
Fore
SplineSet
461.92578125 1225.53710938 m 1,0,1
 437.599609375 1093.59960938 437.599609375 1093.59960938 321.987304688 1093.50097656 c 0,2,3
 206.400390625 1093.59960938 206.400390625 1093.59960938 205.749023438 1242.31445312 c 0,4,5
 205.599609375 1272 205.599609375 1272 218.169921875 1354.91113281 c 1,6,-1
 278.260742188 1354.91113281 l 1,7,8
 268 1283.20019531 268 1283.20019531 268 1260.79980469 c 0,9,10
 268 1170.40039062 268 1170.40039062 331.959960938 1170.46191406 c 0,11,12
 420 1170.40039062 420 1170.40039062 424.484375 1285.96191406 c 0,13,14
 425.599609375 1317.59960938 425.599609375 1317.59960938 425.5 1355.29296875 c 0,15,16
 425.599609375 1392.79980469 425.599609375 1392.79980469 425.490234375 1399.96484375 c 1,17,-1
 484.8984375 1399.96484375 l 1,18,19
 486.400390625 1371.20019531 486.400390625 1371.20019531 486.629882812 1332.79296875 c 0,20,21
 486.400390625 1220.16308594 486.400390625 1220.16308594 584.364257812 1220.32519531 c 2,22,-1
 584.869140625 1220.32617188 l 2,23,24
 644 1220.79980469 644 1220.79980469 644.177734375 1315.59765625 c 0,25,26
 644.799804688 1400 644.799804688 1400 635.458984375 1449.86816406 c 1,27,-1
 699.154296875 1449.86816406 l 1,28,29
 708 1386.40039062 708 1386.40039062 708 1311.20019531 c 0,30,31
 708 1188.79980469 708 1188.79980469 640.5234375 1159.93359375 c 0,32,33
 614.400390625 1148.79980469 614.400390625 1148.79980469 588.799804688 1148 c 0,34,35
 532 1145.59960938 532 1145.59960938 502.400390625 1167.20019531 c 0,36,37
 466.400390625 1193.59960938 466.400390625 1193.59960938 461.92578125 1225.53710938 c 1,0,1
EndSplineSet
EndChar

StartChar: uni0652
Encoding: 1618 1618 50
Width: -27
VWidth: 2304
GlyphClass: 4
Flags: W
AnchorPoint: "Anchor-10" 588.527 1187.7 mark 0
AnchorPoint: "Anchor-9" 588.527 1187.7 mark 0
AnchorPoint: "Anchor-1" 573.743 1793.31 basemark 0
AnchorPoint: "Anchor-1" 588.527 1187.7 mark 0
LayerCount: 2
Fore
SplineSet
707.344726562 1457.10253906 m 0,0,1
 707.344726562 1505.78320312 707.344726562 1505.78320312 673.299804688 1539.828125 c 128,-1,2
 639.258789062 1573.87304688 639.258789062 1573.87304688 589.884765625 1573.87304688 c 0,3,4
 539.819335938 1573.87304688 539.819335938 1573.87304688 506.124023438 1540.17675781 c 128,-1,5
 472.427734375 1506.48046875 472.427734375 1506.48046875 472.427734375 1457.10253906 c 0,6,7
 472.427734375 1407.03808594 472.427734375 1407.03808594 506.124023438 1373.34277344 c 128,-1,8
 539.819335938 1339.64648438 539.819335938 1339.64648438 589.884765625 1339.64648438 c 0,9,10
 639.260742188 1339.64648438 639.260742188 1339.64648438 673.299804688 1373.69140625 c 128,-1,11
 707.344726562 1407.73535156 707.344726562 1407.73535156 707.344726562 1457.10253906 c 0,0,1
779.41796875 1457.21875 m 128,-1,13
 779.41796875 1377.71484375 779.41796875 1377.71484375 724.528320312 1322.47265625 c 128,-1,14
 669.673828125 1267.2734375 669.673828125 1267.2734375 590.212890625 1267.2734375 c 0,15,16
 563.655273438 1267.2734375 563.655273438 1267.2734375 539.920898438 1273.39550781 c 128,-1,17
 516.186523438 1279.51757812 516.186523438 1279.51757812 495.203125 1291.77636719 c 128,-1,18
 474.220703125 1304.03515625 474.220703125 1304.03515625 455.8984375 1322.47265625 c 0,19,20
 428.400390625 1350.14648438 428.400390625 1350.14648438 414.704101562 1383.76074219 c 128,-1,21
 401.006835938 1417.375 401.006835938 1417.375 401.006835938 1457.21875 c 0,22,23
 401.006835938 1536.6953125 401.006835938 1536.6953125 455.8671875 1591.56542969 c 128,-1,24
 510.7265625 1646.42480469 510.7265625 1646.42480469 590.212890625 1646.42480469 c 128,-1,25
 669.698242188 1646.42480469 669.698242188 1646.42480469 724.556640625 1591.56542969 c 128,-1,12
 779.41796875 1536.6953125 779.41796875 1536.6953125 779.41796875 1457.21875 c 128,-1,13
EndSplineSet
EndChar

StartChar: uni0653
Encoding: 1619 1619 51
Width: -3
VWidth: 2277
GlyphClass: 4
Flags: W
AnchorPoint: "Anchor-10" 466.962 1309.68 mark 0
AnchorPoint: "Anchor-9" 466.962 1309.68 mark 0
AnchorPoint: "Anchor-1" 466.962 1694.04 basemark 0
AnchorPoint: "Anchor-1" 466.962 1309.68 mark 0
LayerCount: 2
Fore
SplineSet
324.452148438 1388.77246094 m 0,0,1
 232 1395 232 1395 162 1324 c 0,2,3
 131 1293 131 1293 142.153320312 1340.02929688 c 0,4,5
 159 1407 159 1407 208 1458 c 0,6,7
 240 1491 240 1491 284.15234375 1492.57226562 c 0,8,9
 320 1494 320 1494 352.767578125 1490.36816406 c 0,10,11
 459 1477 459 1477 514.751953125 1477.87207031 c 0,12,13
 591 1479 591 1479 626.952148438 1486.81054688 c 0,14,15
 642 1490 642 1490 635.751953125 1479.04980469 c 0,16,17
 589 1404 589 1404 534.551757812 1389.87207031 c 0,18,19
 488 1377 488 1377 324.452148438 1388.77246094 c 0,0,1
EndSplineSet
EndChar

StartChar: uni0657
Encoding: 1623 1623 54
Width: -29
VWidth: 2488
GlyphClass: 4
Flags: W
AnchorPoint: "Anchor-10" 615.08 1455.92 mark 0
AnchorPoint: "Anchor-9" 615.08 1455.92 mark 0
AnchorPoint: "Anchor-1" 615.08 2249.13 basemark 0
AnchorPoint: "Anchor-1" 615.08 1455.92 mark 0
LayerCount: 2
Fore
SplineSet
711.864257812 1733.08398438 m 0,0,1
 711.719726562 1545.40039062 711.719726562 1545.40039062 530.360351562 1547.06835938 c 0,2,3
 454.6796875 1547.55957031 454.6796875 1547.55957031 402.1796875 1598.25488281 c 0,4,5
 349.919921875 1649.08007812 349.919921875 1649.08007812 349.893554688 1737.81640625 c 0,6,7
 349.919921875 1774.046875 349.919921875 1774.046875 366.11328125 1826.09472656 c 2,8,-1
 373.381835938 1849.45410156 l 1,9,-1
 348.954101562 1850.89648438 l 2,10,11
 309.959960938 1853.20019531 309.959960938 1853.20019531 277.895507812 1853.26855469 c 1,12,-1
 277.895507812 1949.17675781 l 1,13,14
 339.120117188 1948.24023438 339.120117188 1948.24023438 420.448242188 1939.67871094 c 1,15,16
 477.360351562 2020.59960938 477.360351562 2020.59960938 557.994140625 2069.30078125 c 0,17,18
 753.83984375 2189.08007812 753.83984375 2189.08007812 847.799804688 2194.20019531 c 5,19,-1
 847.799804688 2098.36035156 l 5,20,21
 747.360351562 2095.12011719 747.360351562 2095.12011719 604.5 1983.53613281 c 0,22,23
 575.639648438 1961.20019531 575.639648438 1961.20019531 551.166015625 1935.27832031 c 2,24,-1
 527.861328125 1910.74414062 l 1,25,-1
 560.892578125 1903.39355469 l 2,26,27
 570.240234375 1901.79980469 570.240234375 1901.79980469 610.428710938 1880.14453125 c 0,28,29
 651.240234375 1858.59960938 651.240234375 1858.59960938 681.670898438 1817.04296875 c 0,30,31
 711.719726562 1775.44042969 711.719726562 1775.44042969 711.864257812 1733.08398438 c 0,0,1
518.581054688 1643.01171875 m 0,32,33
 613.481445312 1643.01171875 613.481445312 1643.01171875 613.481445312 1723.17285156 c 0,34,35
 613.481445312 1781.28417969 613.481445312 1781.28417969 546.533203125 1808.06640625 c 0,36,37
 521.615234375 1818.03808594 521.615234375 1818.03808594 472.469726562 1833.17578125 c 1,38,-1
 458.366210938 1800.27246094 l 2,39,40
 445.834960938 1771.03710938 445.834960938 1771.03710938 445.834960938 1729.16699219 c 128,-1,41
 445.834960938 1687.296875 445.834960938 1687.296875 472.719726562 1665.15429688 c 128,-1,42
 499.603515625 1643.01171875 499.603515625 1643.01171875 518.581054688 1643.01171875 c 0,32,33
EndSplineSet
EndChar

StartChar: uni065A
Encoding: 1626 1626 55
Width: 1219
VWidth: 2488
GlyphClass: 4
Flags: W
AnchorPoint: "Anchor-10" 615.08 1455.92 mark 0
AnchorPoint: "Anchor-9" 615.08 1455.92 mark 0
AnchorPoint: "Anchor-1" 612.64 2005.07 basemark 0
AnchorPoint: "Anchor-1" 615.08 1455.92 mark 0
LayerCount: 2
Fore
SplineSet
535.634765625 1550.72949219 m 1,0,-1
 320.578125 1910.25976562 l 1,1,-1
 446.194335938 1910.25976562 l 1,2,-1
 615.080078125 1656.92382812 l 1,3,-1
 783.965820312 1910.25976562 l 1,4,-1
 909.583007812 1910.25976562 l 1,5,-1
 694.5234375 1550.72949219 l 1,6,-1
 535.634765625 1550.72949219 l 1,0,-1
EndSplineSet
EndChar

StartChar: afii57392
Encoding: 1632 1632 56
Width: 680
VWidth: 2437
GlyphClass: 2
Flags: W
LayerCount: 2
Fore
SplineSet
268.38671875 595.626953125 m 128,-1,1
 239.547851562 566.784179688 239.547851562 566.784179688 239.547851562 526.552734375 c 128,-1,2
 239.547851562 486.3203125 239.547851562 486.3203125 268.38671875 457.48046875 c 128,-1,3
 297.228515625 428.639648438 297.228515625 428.639648438 337.461914062 428.639648438 c 128,-1,4
 377.696289062 428.639648438 377.696289062 428.639648438 406.53515625 457.48046875 c 128,-1,5
 435.376953125 486.3203125 435.376953125 486.3203125 435.376953125 526.553710938 c 128,-1,6
 435.376953125 566.784179688 435.376953125 566.784179688 406.53515625 595.626953125 c 128,-1,7
 377.694335938 624.46875 377.694335938 624.46875 337.461914062 624.46875 c 128,-1,0
 297.23046875 624.46875 297.23046875 624.46875 268.38671875 595.626953125 c 128,-1,1
114.581054688 523.603515625 m 128,-1,9
 114.581054688 617.345703125 114.581054688 617.345703125 180.760742188 683.911132812 c 128,-1,10
 246.899414062 750.438476562 246.899414062 750.438476562 340.012695312 750.438476562 c 0,11,12
 459.57421875 750.438476562 459.57421875 750.438476562 528.190429688 648.944335938 c 0,13,14
 565.444335938 593.83984375 565.444335938 593.83984375 565.444335938 511.846679688 c 128,-1,15
 565.444335938 429.85546875 565.444335938 429.85546875 499.266601562 363.298828125 c 128,-1,16
 433.123046875 296.7734375 433.123046875 296.7734375 340.012695312 296.7734375 c 128,-1,17
 246.8984375 296.7734375 246.8984375 296.7734375 180.760742188 363.298828125 c 128,-1,8
 114.581054688 429.86328125 114.581054688 429.86328125 114.581054688 523.603515625 c 128,-1,9
EndSplineSet
EndChar

StartChar: afii57393
Encoding: 1633 1633 57
Width: 568
VWidth: 2435
GlyphClass: 2
Flags: W
LayerCount: 2
Fore
SplineSet
364.8125 -9.78125 m 5,0,1
 327.75 663.849609375 327.75 663.849609375 114.420898438 1243.84960938 c 1,2,-1
 242.014648438 1400.06933594 l 1,3,4
 458.849609375 944.099609375 458.849609375 944.099609375 453.4921875 282.177734375 c 0,5,6
 452.16796875 147.611328125 452.16796875 147.611328125 413.478515625 60.5615234375 c 0,7,8
 393.299804688 14.0498046875 393.299804688 14.0498046875 364.8125 -9.78125 c 5,0,1
EndSplineSet
EndChar

StartChar: afii57394
Encoding: 1634 1634 58
Width: 1002
VWidth: 2282
GlyphClass: 2
Flags: W
LayerCount: 2
Fore
SplineSet
220.884765625 1400.38183594 m 1,0,1
 283 1250 283 1250 305.982421875 1212.72070312 c 0,2,3
 415 1044 415 1044 613.828125 1059.03808594 c 0,4,5
 762.344615264 1070.17583048 762.344615264 1070.17583048 806.286132812 1266.53027344 c 0,6,7
 817 1313 817 1313 826.9453125 1346.77050781 c 0,8,9
 840 1392 840 1392 881.033203125 1387.35351562 c 0,10,11
 917 1384 917 1384 910.990234375 1300.90136719 c 0,12,13
 900 1161 900 1161 877.64453125 1100.31835938 c 0,14,15
 794.902699313 877.348259735 794.902699313 877.348259735 548.20703125 875.624023438 c 4,16,17
 494 876 494 876 427.701171875 896.1328125 c 1,18,19
 521 618 521 618 521.018554688 358.51953125 c 0,20,21
 521 27 521 27 425.006835938 -11.5517578125 c 1,22,23
 417 341 417 341 298.590820312 766.916992188 c 0,24,25
 260 906 260 906 87.2294921875 1299.19140625 c 1,26,-1
 220.884765625 1400.38183594 l 1,0,1
EndSplineSet
EndChar

StartChar: afii57395
Encoding: 1635 1635 59
Width: 1244
VWidth: 2282
GlyphClass: 2
Flags: W
LayerCount: 2
Fore
SplineSet
428.497070312 893.248046875 m 1,0,1
 527.25 602.099609375 527.25 602.099609375 526.869140625 267.15234375 c 0,2,3
 527.25 18.7998046875 527.25 18.7998046875 424.661132812 -13.947265625 c 1,4,5
 419.900390625 204.049804688 419.900390625 204.049804688 377.586914062 421.181640625 c 0,6,7
 337.25 627.75 337.25 627.75 297.977539062 767.016601562 c 0,8,9
 259.349609375 906.099609375 259.349609375 906.099609375 86.8583984375 1298.33203125 c 1,10,-1
 220.512695312 1399.51953125 l 1,11,12
 246.049804688 1338.34960938 246.049804688 1338.34960938 297.294921875 1228.33789062 c 0,13,14
 379.604492188 1051.20605469 379.604492188 1051.20605469 546.204101562 1065.67871094 c 0,15,16
 591.849609375 1069.5 591.849609375 1069.5 627.126953125 1119.45898438 c 0,17,18
 669.75 1179.70019531 669.75 1179.70019531 692.405273438 1311.18261719 c 0,19,20
 702.049804688 1370.65039062 702.049804688 1370.65039062 732.455078125 1371.87792969 c 0,21,22
 767.599609375 1373.5 767.599609375 1373.5 768.524414062 1331.08691406 c 0,23,24
 771.400390625 1218.65039062 771.400390625 1218.65039062 790.551757812 1169.13574219 c 0,25,26
 831.25 1064.75 831.25 1064.75 930.305664062 1065.34375 c 0,27,28
 1050.70019531 1066.65039062 1050.70019531 1066.65039062 1069.99316406 1330.56152344 c 0,29,30
 1073.5 1380.15039062 1073.5 1380.15039062 1119.26953125 1381.26953125 c 0,31,32
 1126.70019531 1381.09960938 1126.70019531 1381.09960938 1135.74609375 1379.09179688 c 0,33,34
 1159 1373.5 1159 1373.5 1158.00292969 1317.81054688 c 0,35,36
 1157.09960938 1225.29980469 1157.09960938 1225.29980469 1137.33984375 1122.96582031 c 0,37,38
 1090.37402344 884.05078125 1090.37402344 884.05078125 929.196289062 884.540039062 c 0,39,40
 799.900390625 885.200195312 799.900390625 885.200195312 726.04296875 1024.61621094 c 1,41,42
 660.25 873.799804688 660.25 873.799804688 531.543945312 872.8203125 c 0,43,44
 468.349609375 872.849609375 468.349609375 872.849609375 428.497070312 893.248046875 c 1,0,1
EndSplineSet
EndChar

StartChar: afii57396
Encoding: 1636 1636 60
Width: 900
VWidth: 2432
GlyphClass: 2
Flags: W
LayerCount: 2
Fore
SplineSet
380.934570312 713.899414062 m 1,0,1
 153 828 153 828 99.26171875 902.4921875 c 1,2,3
 151 1222 151 1222 567.928710938 1390.32714844 c 1,4,5
 594 1349 594 1349 599.450195312 1222.56445312 c 1,6,7
 250 1044 250 1044 211.622070312 948.5078125 c 1,8,9
 381 865 381 865 664.954101562 817.029296875 c 1,10,11
 659 753 659 753 654.887695312 692.9921875 c 1,12,13
 292 480 292 480 205.465820312 310.34765625 c 5,14,15
 369 232 369 232 783.608398438 274.82421875 c 5,16,-1
 813.521484375 51.017578125 l 5,17,18
 343 17 343 17 86.5107421875 217.234375 c 5,19,20
 109 493 109 493 380.934570312 713.899414062 c 1,0,1
EndSplineSet
EndChar

StartChar: afii57397
Encoding: 1637 1637 61
Width: 1083
VWidth: 2434
GlyphClass: 2
Flags: W
LayerCount: 2
Fore
SplineSet
201.247070312 506.983398438 m 0,0,1
 192.849609375 374.099609375 192.849609375 374.099609375 294.250976562 303.711914062 c 0,2,3
 397.099609375 231.599609375 397.099609375 231.599609375 584.325195312 243.853515625 c 0,4,5
 741 254.400390625 741 254.400390625 818.3671875 359.776367188 c 0,6,7
 926.25 506.150390625 926.25 506.150390625 693.65234375 827.7890625 c 0,8,9
 607.049804688 947.900390625 607.049804688 947.900390625 509.072265625 1034.19433594 c 1,10,11
 365.75 890.900390625 365.75 890.900390625 288.98046875 751.012695312 c 0,12,13
 208.049804688 603.049804688 208.049804688 603.049804688 201.247070312 506.983398438 c 0,0,1
447.412109375 1307.8359375 m 1,14,15
 676.400390625 1126.5 676.400390625 1126.5 827.03125 911.799804688 c 0,16,17
 988 680.950195312 988 680.950195312 997.455078125 525.369140625 c 0,18,19
 1009.84960938 315.200195312 1009.84960938 315.200195312 897.215820312 186.86328125 c 0,20,21
 767.599609375 39.7001953125 767.599609375 39.7001953125 545.451171875 40.4072265625 c 0,22,23
 301.150390625 40.650390625 301.150390625 40.650390625 183.05859375 180.412109375 c 0,24,25
 61.8193359375 323.841796875 61.8193359375 323.841796875 86.5166015625 514.45703125 c 0,26,27
 107.349609375 674.299804688 107.349609375 674.299804688 201.899414062 831.181640625 c 0,28,29
 295.450195312 987.799804688 295.450195312 987.799804688 417.0390625 1113.03125 c 1,30,-1
 364.1640625 1162.9140625 l 1,31,-1
 447.412109375 1307.8359375 l 1,14,15
EndSplineSet
EndChar

StartChar: afii57398
Encoding: 1638 1638 62
Width: 1097
VWidth: 2434
GlyphClass: 2
Flags: W
LayerCount: 2
Fore
SplineSet
86.8349609375 1313.74121094 m 1,0,1
 448.400390625 1211.04980469 448.400390625 1211.04980469 815.079101562 1314.94726562 c 1,2,3
 828.400390625 235.400390625 828.400390625 235.400390625 997.34765625 190.673828125 c 1,4,5
 1010.31738281 -13.94921875 l 1,6,7
 825.549804688 -8.75 825.549804688 -8.75 766.498046875 291.48828125 c 0,8,9
 686.849609375 695.200195312 686.849609375 695.200195312 681.271484375 1113.15722656 c 1,10,-1
 644.5625 1102.45214844 l 2,11,12
 568.977539062 1080.3046875 568.977539062 1080.3046875 383.610351562 1071.98828125 c 0,13,14
 370.5 1071.40039062 370.5 1071.40039062 269.028320312 1086.546875 c 0,15,16
 167.200195312 1101.79980469 167.200195312 1101.79980469 127.029296875 1141.6875 c 0,17,18
 86.8349609375 1182.16210938 86.8349609375 1182.16210938 86.8349609375 1266.80957031 c 2,19,-1
 86.8349609375 1313.74121094 l 1,0,1
EndSplineSet
EndChar

StartChar: afii57399
Encoding: 1639 1639 63
Width: 1090
VWidth: 2435
GlyphClass: 2
Flags: W
LayerCount: 2
Fore
SplineSet
913.982421875 1351.19140625 m 1,0,-1
 1004.02539062 1179.97265625 l 1,1,2
 729.599609375 800.650390625 729.599609375 800.650390625 605.881835938 -4.9306640625 c 1,3,-1
 513.958984375 -4.9306640625 l 1,4,5
 399 769.299804688 399 769.299804688 86.9140625 1180.15332031 c 1,6,-1
 178.853515625 1351.56835938 l 1,7,8
 487.349609375 948.849609375 487.349609375 948.849609375 555.211914062 344.948242188 c 1,9,10
 631.75 963.099609375 631.75 963.099609375 913.982421875 1351.19140625 c 1,0,-1
EndSplineSet
EndChar

StartChar: afii57400
Encoding: 1640 1640 64
Width: 1090
VWidth: 2435
GlyphClass: 2
Flags: W
LayerCount: 2
Fore
SplineSet
913.982421875 -4.5537109375 m 1,0,1
 631.75 383.538085938 631.75 383.538085938 555.211914062 1001.69042969 c 1,2,3
 487.349609375 397.788085938 487.349609375 397.788085938 178.853515625 -4.9306640625 c 1,4,-1
 86.9140625 166.484375 l 1,5,6
 399 577.337890625 399 577.337890625 513.958984375 1351.56835938 c 1,7,-1
 605.881835938 1351.56835938 l 1,8,9
 729.599609375 545.98828125 729.599609375 545.98828125 1004.02539062 166.665039062 c 1,10,-1
 913.982421875 -4.5537109375 l 1,0,1
EndSplineSet
EndChar

StartChar: afii57401
Encoding: 1641 1641 65
Width: 997
VWidth: 2435
GlyphClass: 2
Flags: W
LayerCount: 2
Fore
SplineSet
644.73828125 632.77734375 m 5,0,1
 571.900390625 623.950195312 571.900390625 623.950195312 507.5703125 624.487304688 c 4,2,3
 286.900390625 623.950195312 286.900390625 623.950195312 192.127929688 699.15234375 c 4,4,5
 86.4501953125 783.549804688 86.4501953125 783.549804688 86.7177734375 940.168945312 c 4,6,7
 87.400390625 1155.95019531 87.400390625 1155.95019531 210.595703125 1291.15429688 c 4,8,9
 308.75 1400.09960938 308.75 1400.09960938 418.874023438 1399.91015625 c 4,10,11
 521.549804688 1400.09960938 521.549804688 1400.09960938 593.293945312 1336.29785156 c 4,12,13
 732.450195312 1212 732.450195312 1212 745.142578125 927.950195312 c 4,14,15
 776.150390625 217.349609375 776.150390625 217.349609375 904.780273438 160.84375 c 5,16,-1
 910.700195312 -25.689453125 l 5,17,-1
 905.404296875 -25.689453125 l 6,18,19
 769.5 -25.849609375 769.5 -25.849609375 713.483398438 149.618164062 c 4,20,21
 686.849609375 233.5 686.849609375 233.5 644.73828125 632.77734375 c 5,0,1
624.98046875 837.147460938 m 5,22,-1
 617.47265625 883.891601562 l 6,23,24
 592.799804688 1036.25 592.799804688 1036.25 548.663085938 1103.39550781 c 4,25,26
 493.049804688 1186.34960938 493.049804688 1186.34960938 422.16796875 1193.04589844 c 4,27,28
 330.599609375 1201.54980469 330.599609375 1201.54980469 280.364257812 1129.04589844 c 4,29,30
 228.950195312 1053.34960938 228.950195312 1053.34960938 222.913085938 941.650390625 c 4,31,32
 219.450195312 880.450195312 219.450195312 880.450195312 268.051757812 850.6171875 c 4,33,34
 316.349609375 820.599609375 316.349609375 820.599609375 448.627929688 820.219726562 c 4,35,36
 551 820.599609375 551 820.599609375 624.98046875 837.147460938 c 5,22,-1
EndSplineSet
EndChar

StartChar: afii57381
Encoding: 1642 1642 66
Width: 1321
VWidth: 2459
GlyphClass: 2
Flags: W
LayerCount: 2
Fore
SplineSet
518.060546875 1450.93457031 m 2,0,-1
 518.060546875 1306.04199219 l 2,1,2
 518.060546875 1262.41015625 518.060546875 1262.41015625 482.291015625 1262.3984375 c 2,3,-1
 339.645507812 1262.40917969 l 2,4,5
 299.3828125 1262.40917969 299.3828125 1262.40917969 299.3828125 1307.16503906 c 2,6,-1
 299.3828125 1450.93457031 l 2,7,8
 299.3828125 1488.95117188 299.3828125 1488.95117188 344.13671875 1488.95117188 c 2,9,-1
 473.3046875 1488.95117188 l 2,10,11
 518.060546875 1488.95117188 518.060546875 1488.95117188 518.060546875 1450.93457031 c 2,0,-1
1025.52441406 267.979492188 m 2,12,-1
 1025.52441406 123.0859375 l 2,13,14
 1025.52441406 79.453125 1025.52441406 79.453125 989.754882812 79.453125 c 2,15,-1
 847.108398438 79.453125 l 2,16,17
 806.846679688 79.453125 806.846679688 79.453125 806.846679688 124.208984375 c 2,18,-1
 806.846679688 267.979492188 l 2,19,20
 806.846679688 305.994140625 806.846679688 305.994140625 851.6015625 305.994140625 c 2,21,-1
 980.76953125 305.994140625 l 2,22,23
 1025.52441406 305.994140625 1025.52441406 305.994140625 1025.52441406 267.979492188 c 2,12,-1
977.861328125 1550.82617188 m 1,24,-1
 1106.90429688 1484.34179688 l 1,25,-1
 338.947265625 2.4794921875 l 1,26,-1
 210.634765625 72.9931640625 l 1,27,-1
 977.861328125 1550.82617188 l 1,24,-1
EndSplineSet
EndChar

StartChar: uni066B
Encoding: 1643 1643 67
Width: 798
VWidth: 2459
GlyphClass: 2
Flags: W
LayerCount: 2
Fore
SplineSet
496.654296875 571.405273438 m 1,0,-1
 642.466796875 570.318359375 l 1,1,-1
 638.715820312 563.87890625 l 2,2,3
 386.106445312 130.310546875 386.106445312 130.310546875 148.448242188 -253.325195312 c 2,4,-1
 147.16015625 -255.403320312 l 1,5,-1
 -1.90234375 -253.356445312 l 1,6,-1
 2.134765625 -246.861328125 l 2,7,8
 108.66796875 -75.5009765625 108.66796875 -75.5009765625 495.384765625 569.290039062 c 2,9,-1
 496.654296875 571.405273438 l 1,0,-1
EndSplineSet
EndChar

StartChar: uni066C
Encoding: 1644 1644 68
Width: 780
VWidth: 2459
GlyphClass: 2
Flags: W
LayerCount: 2
Fore
SplineSet
325.001953125 1782.06152344 m 1,0,-1
 553.530273438 1782.06152344 l 1,1,-1
 553.530273438 1614.94433594 l 1,2,-1
 361.314453125 1241.05761719 l 1,3,-1
 230.081054688 1241.05761719 l 1,4,-1
 325.001953125 1610.33496094 l 1,5,-1
 325.001953125 1782.06152344 l 1,0,-1
EndSplineSet
EndChar

StartChar: afii63167
Encoding: 1645 1645 69
Width: 1340
VWidth: 2459
GlyphClass: 2
Flags: W
LayerCount: 2
Fore
SplineSet
142.923828125 899.921875 m 1,0,-1
 545.084960938 899.921875 l 1,1,-1
 670.619140625 1282.12402344 l 1,2,-1
 796.151367188 899.921875 l 1,3,-1
 1198.31835938 899.921875 l 1,4,-1
 873.426757812 662.418945312 l 1,5,-1
 997.745117188 280.5 l 1,6,-1
 670.619140625 516.883789062 l 1,7,-1
 343.490234375 280.5 l 1,8,-1
 467.80859375 662.418945312 l 1,9,-1
 142.923828125 899.921875 l 1,0,-1
EndSplineSet
EndChar

StartChar: uni066E
Encoding: 1646 1646 70
Width: 1692
VWidth: 2681
GlyphClass: 2
Flags: W
AnchorPoint: "Anchor-10" 770.05 1270.43 basechar 0
AnchorPoint: "Anchor-7" 482.522 -305.352 basechar 0
LayerCount: 2
Fore
SplineSet
181.16015625 470.799804688 m 4,0,1
 190 201 190 201 582.87890625 182.990234375 c 4,2,3
 665 179 665 179 877.119140625 182.912109375 c 4,4,5
 1315 191 1315 191 1446.75097656 294.243164062 c 4,6,7
 1524.91113281 354.930664062 1524.91113281 354.930664062 1481.38476562 444.454101562 c 6,8,-1
 1413.44042969 584.200195312 l 5,9,-1
 1519.28027344 791.559570312 l 5,10,11
 1591 664 1591 664 1600.28027344 482.780273438 c 4,12,13
 1613 248 1613 248 1467.44042969 134.919921875 c 4,14,15
 1394.04980469 78.5009765625 1394.04980469 78.5009765625 1209.3203125 40.16015625 c 4,16,17
 980 -7 980 -7 790.280273438 -9.51953125 c 4,18,19
 425.870117188 -13.96484375 425.870117188 -13.96484375 291.110351562 55.28515625 c 4,20,21
 89 159 89 159 91.51953125 415.719726562 c 28,22,23
 93 542 93 542 122.530273438 636.040039062 c 4,24,25
 153 731 153 731 191.959960938 715.959960938 c 4,26,27
 206 711 206 711 206 692.200195312 c 4,28,29
 206 679 206 679 191.229492188 605.799804688 c 4,30,31
 179 541 179 541 181.16015625 470.799804688 c 4,0,1
EndSplineSet
Substitution2: "'init' Initial Forms in Arabic lookup 13 subtable" uni066E.init
Substitution2: "'medi' Medial Forms in Arabic lookup 11 subtable" uni066E.medi
Substitution2: "'fina' Terminal Forms in Arabic lookup 9 subtable" uni066E.fina
EndChar

StartChar: uni066F
Encoding: 1647 1647 71
Width: 1356
VWidth: 2701
GlyphClass: 2
Flags: W
AnchorPoint: "Anchor-10" 493.239 1085.45 basechar 0
AnchorPoint: "Anchor-7" 291.511 -577.847 basechar 0
LayerCount: 2
Fore
SplineSet
907.545898438 568.719726562 m 0,0,1
 785.759765625 565.83984375 785.759765625 565.83984375 755.060546875 406.522460938 c 0,2,3
 738.240234375 320.6796875 738.240234375 320.6796875 819.741210938 287.62890625 c 0,4,5
 932.639648438 241.83984375 932.639648438 241.83984375 1110.17578125 296.038085938 c 1,6,7
 1113 376.83984375 1113 376.83984375 1074.12011719 462.512695312 c 0,8,9
 1025.51953125 571.240234375 1025.51953125 571.240234375 907.545898438 568.719726562 c 0,0,1
679.3203125 -243.080078125 m 0,10,11
 1075 -235 1075 -235 1113 118 c 1,12,13
 1002 82 1002 82 885.120117188 95.11328125 c 0,14,15
 757 110 757 110 700.220703125 186.646484375 c 0,16,17
 640 267 640 267 653.783203125 401.110351562 c 0,18,19
 676 608 676 608 793.428710938 723.25 c 0,20,21
 857 785 857 785 950.15234375 774.99609375 c 0,22,23
 988 771 988 771 1031.27539062 746.77734375 c 0,24,25
 1135 689 1135 689 1191.83984375 523.719726562 c 0,26,27
 1202 494 1202 494 1217.75976562 404.919921875 c 0,28,29
 1245 252 1245 252 1214.28027344 65.7998046875 c 0,30,31
 1133 -432 1133 -432 637.719726562 -438.559570312 c 4,32,33
 335 -443 335 -443 199.799804688 -270.080078125 c 0,34,35
 61 -93 61 -93 112.6015625 214.771484375 c 0,36,37
 125 289 125 289 163.080078125 389.799804688 c 0,38,39
 213 520 213 520 257.657226562 491.3203125 c 0,40,41
 282 475 282 475 243.024414062 353.080078125 c 0,42,43
 163 101 163 101 249.48046875 -72.4404296875 c 0,44,45
 339 -250 339 -250 679.3203125 -243.080078125 c 0,10,11
EndSplineSet
Substitution2: "'init' Initial Forms in Arabic lookup 13 subtable" uni066F.init
Substitution2: "'medi' Medial Forms in Arabic lookup 11 subtable" uni066F.medi
Substitution2: "'fina' Terminal Forms in Arabic lookup 9 subtable" uni066F.fina
EndChar

StartChar: uni0670
Encoding: 1648 1648 72
Width: 0
VWidth: 2459
GlyphClass: 4
Flags: W
AnchorPoint: "Anchor-10" 625.055 1448.93 mark 0
AnchorPoint: "Anchor-9" 625.055 1448.93 mark 0
AnchorPoint: "Anchor-1" 615.334 2078.23 basemark 0
AnchorPoint: "Anchor-1" 625.055 1448.93 mark 0
LayerCount: 2
Fore
SplineSet
607.185546875 1494.64257812 m 1,0,-1
 561.697265625 1964.45800781 l 5,1,-1
 668.90625 2027.59375 l 5,2,-1
 668.90625 1494.64257812 l 1,3,-1
 607.185546875 1494.64257812 l 1,0,-1
EndSplineSet
EndChar

StartChar: uni0674
Encoding: 1652 1652 73
Width: 664
VWidth: 2277
GlyphClass: 2
Flags: W
LayerCount: 2
Fore
SplineSet
152.560546875 1472.46582031 m 1,0,-1
 196.359375 1581.04003906 l 1,1,2
 300.6796875 1630.95996094 300.6796875 1630.95996094 328.19921875 1635.44042969 c 1,3,4
 162.439453125 1639.91992188 162.439453125 1639.91992188 178.439453125 1764.72070312 c 0,5,6
 204.0390625 1960.56054688 204.0390625 1960.56054688 360.19921875 1959.28027344 c 0,7,8
 444.6796875 1958.640625 444.6796875 1958.640625 475.399414062 1849.20019531 c 1,9,10
 405 1870.3203125 405 1870.3203125 364.0390625 1869.68066406 c 0,11,12
 309.639648438 1868.40039062 309.639648438 1868.40039062 278.279296875 1842.80078125 c 0,13,14
 237.319335938 1808.87988281 237.319335938 1808.87988281 236.0390625 1776.24023438 c 0,15,16
 232.19921875 1687.28027344 232.19921875 1687.28027344 364.0390625 1681.52050781 c 0,17,18
 394.119140625 1680.24023438 394.119140625 1680.24023438 448.8203125 1693.1171875 c 0,19,20
 508.6796875 1707.76074219 508.6796875 1707.76074219 515.525390625 1711.15429688 c 1,21,-1
 469 1606 l 1,22,23
 407.559570312 1589.36035156 407.559570312 1589.36035156 310.279296875 1544.56054688 c 0,24,25
 231.559570312 1508.72070312 231.559570312 1508.72070312 152.560546875 1472.46582031 c 1,0,-1
EndSplineSet
EndChar

StartChar: uni06A1
Encoding: 1697 1697 77
Width: 1697
VWidth: 2701
GlyphClass: 2
Flags: W
AnchorPoint: "Anchor-10" 552.192 1480.5 basechar 0
AnchorPoint: "Anchor-7" 685.955 -242.374 basechar 0
LayerCount: 2
Fore
SplineSet
180.919921875 465.400390625 m 0,0,1
 188 193 188 193 665.638671875 188.390625 c 0,2,3
 1049.20410156 188.024414062 l 2,4,5
 1493 188 1493 188 1496 421 c 1,6,7
 1386 385 1386 385 1268.12011719 398.11328125 c 0,8,9
 1130 414 1130 414 1084.98046875 478.693359375 c 0,10,11
 1023 566 1023 566 1036.703125 700.603515625 c 0,12,13
 1059 910 1059 910 1176.34863281 1022.74316406 c 0,14,15
 1241 1085 1241 1085 1333.07226562 1074.48925781 c 0,16,17
 1371 1070 1371 1070 1414.1953125 1046.27050781 c 0,18,19
 1522 986 1522 986 1574.75976562 823.212890625 c 0,20,21
 1593 767 1593 767 1606.08007812 659.59375 c 0,22,23
 1622 522 1622 522 1596.36035156 382.573242188 c 24,24,25
 1553 151 1553 151 1382.03027344 65.986328125 c 0,26,27
 1273 12 1273 12 992 -4.7646484375 c 1,28,29
 913 -8 913 -8 825.204101562 -9.36328125 c 0,30,31
 421 -13 421 -13 290.870117188 55.28515625 c 0,32,33
 91 159 91 159 91.2802734375 410.3203125 c 0,34,35
 91 536 91 536 122.290039062 630.639648438 c 0,36,37
 153 726 153 726 191.719726562 710.559570312 c 0,38,39
 206 705 206 705 205.759765625 686.799804688 c 0,40,41
 206 679 206 679 190.989257812 600.400390625 c 0,42,43
 179 536 179 536 180.919921875 465.400390625 c 0,0,1
1290.46582031 868.212890625 m 0,44,45
 1169 865 1169 865 1137.98046875 706.015625 c 0,46,47
 1121 620 1121 620 1202.66113281 587.122070312 c 0,48,49
 1316 541 1316 541 1493.09570312 595.53125 c 1,50,51
 1496 676 1496 676 1457.04003906 762.005859375 c 0,52,53
 1408 871 1408 871 1290.46582031 868.212890625 c 0,44,45
EndSplineSet
Substitution2: "'init' Initial Forms in Arabic lookup 13 subtable" uni06A1.init
Substitution2: "'medi' Medial Forms in Arabic lookup 11 subtable" uni06A1.medi
Substitution2: "'fina' Terminal Forms in Arabic lookup 9 subtable" uni06A1.fina
EndChar

StartChar: uni06A9
Encoding: 1705 1705 78
Width: 1773
VWidth: 2681
GlyphClass: 2
Flags: W
AnchorPoint: "Anchor-10" 521.8 1264.96 basechar 0
AnchorPoint: "Anchor-7" 417.072 -293.511 basechar 0
LayerCount: 2
Fore
SplineSet
181.3203125 469.719726562 m 4,0,1
 190 208 190 208 585.19921875 188.390625 c 4,2,3
 717 182 717 182 920.64453125 183.024414062 c 4,4,5
 1033 184 1033 184 1132.79980469 196.330078125 c 4,6,7
 1386 230 1386 230 1412.63769531 338.120117188 c 28,8,9
 1435 429 1435 429 1247.84667969 628.452148438 c 4,10,11
 1078 810 1078 810 971.844726562 853.200195312 c 5,12,13
 950.028320312 1092.68945312 950.028320312 1092.68945312 1091.4609375 1169.25488281 c 6,14,-1
 1732.61035156 1516.34277344 l 5,15,16
 1697 1350 1697 1350 1658 1273 c 5,17,-1
 1093.67871094 1013.75097656 l 5,18,19
 1535 585 1535 585 1529.16015625 367.120117188 c 4,20,21
 1526 241 1526 241 1467.59960938 167.599609375 c 4,22,23
 1330 -5 1330 -5 827.764648438 -9.36328125 c 4,24,25
 423 -13 423 -13 293.4296875 55.28515625 c 4,26,27
 88 163 88 163 91.6796875 414.639648438 c 28,28,29
 94 546 94 546 122.689453125 634.959960938 c 4,30,31
 153 731 153 731 192.120117188 714.879882812 c 4,32,33
 206 709 206 709 206.16015625 691.120117188 c 4,34,35
 206 678 206 678 191.388671875 604.719726562 c 4,36,37
 179 540 179 540 181.3203125 469.719726562 c 4,0,1
EndSplineSet
Substitution2: "'init' Initial Forms in Arabic lookup 13 subtable" uniFB90
Substitution2: "'medi' Medial Forms in Arabic lookup 11 subtable" uniFB91
Substitution2: "'fina' Terminal Forms in Arabic lookup 9 subtable" uniFB8F
EndChar

StartChar: afii57514
Encoding: 1722 1722 80
Width: 1312
VWidth: 2681
GlyphClass: 2
Flags: W
AnchorPoint: "Anchor-10" 671.818 1157.54 basechar 0
AnchorPoint: "Anchor-7" 339.094 -911.618 basechar 0
LayerCount: 2
Fore
SplineSet
683.639648438 -284.120117188 m 0,0,1
 1079 -275 1079 -275 1109.51757812 35.1083984375 c 1,2,3
 1094 159 1094 159 1070.87402344 236.084960938 c 0,4,5
 1050 303 1050 303 998 422.200195312 c 1,6,-1
 1139.83984375 583.749023438 l 1,7,8
 1203 379 1203 379 1215.08007812 264.51953125 c 0,9,10
 1236 55 1236 55 1195.63964844 -100.51953125 c 0,11,12
 1098 -473 1098 -473 650.6796875 -479.599609375 c 4,13,14
 339 -484 339 -484 204.120117188 -311.120117188 c 0,15,16
 63 -130 63 -130 116.921875 179.131835938 c 0,17,18
 130 254 130 254 167.400390625 354.16015625 c 0,19,20
 218 487 218 487 261.9765625 455.6796875 c 0,21,22
 286 439 286 439 247.344726562 317.440429688 c 0,23,24
 166 64 166 64 253.799804688 -108.080078125 c 0,25,26
 346 -291 346 -291 683.639648438 -284.120117188 c 0,0,1
EndSplineSet
Substitution2: "'init' Initial Forms in Arabic lookup 13 subtable" uni06BA.init
Substitution2: "'medi' Medial Forms in Arabic lookup 11 subtable" uni06BA.medi
Substitution2: "'fina' Terminal Forms in Arabic lookup 9 subtable" uniFB9F
EndChar

StartChar: uni06F4
Encoding: 1780 1780 87
Width: 1062
VWidth: 2225
GlyphClass: 2
Flags: W
LayerCount: 2
Fore
SplineSet
451.639648438 977.373046875 m 1,0,1
 542.450195312 892.799804688 542.450195312 892.799804688 736.302734375 893.165039062 c 0,2,3
 846.450195312 892.799804688 846.450195312 892.799804688 954.604492188 934.033203125 c 0,4,5
 968.049804688 939.349609375 968.049804688 939.349609375 973.997070312 934.106445312 c 0,6,7
 979.450195312 928.900390625 979.450195312 928.900390625 974.853515625 912.771484375 c 0,8,9
 932.900390625 732.25 932.900390625 732.25 693.095703125 725.823242188 c 0,10,11
 587.099609375 722.75 587.099609375 722.75 427.887695312 801.163085938 c 1,12,13
 499.700195312 506.150390625 499.700195312 506.150390625 499.471679688 268.102539062 c 0,14,15
 499.700195312 10.25 499.700195312 10.25 412.018554688 -13.486328125 c 5,16,17
 403.75 353.200195312 403.75 353.200195312 290.447265625 756.607421875 c 0,18,19
 253.650390625 889.950195312 253.650390625 889.950195312 87.3017578125 1268.171875 c 1,20,-1
 215.900390625 1365.54199219 l 1,21,-1
 359.935546875 1032.60253906 l 1,22,23
 443.650390625 1409.59960938 443.650390625 1409.59960938 713.161132812 1405.12988281 c 0,24,25
 848.349609375 1402.95019531 848.349609375 1402.95019531 912.118164062 1261.23925781 c 0,26,27
 923.400390625 1236.70019531 923.400390625 1236.70019531 923.209960938 1227.54199219 c 0,28,29
 923.400390625 1198.70019531 923.400390625 1198.70019531 889.865234375 1221.38574219 c 0,30,31
 828.400390625 1262.34960938 828.400390625 1262.34960938 753.919921875 1261.40039062 c 0,32,33
 527.25 1261.40039062 527.25 1261.40039062 451.639648438 977.373046875 c 1,0,1
EndSplineSet
EndChar

StartChar: uni06F5
Encoding: 1781 1781 88
Width: 1155
VWidth: 2282
GlyphClass: 2
Flags: W
LayerCount: 2
Fore
SplineSet
583.956054688 381.543945312 m 4,0,1
 665 176.799804688 665 176.799804688 818.568359375 178.149414062 c 5,2,3
 989.900390625 189.150390625 989.900390625 189.150390625 925.711914062 455.15625 c 4,4,5
 888.447265625 606.27734375 888.447265625 606.27734375 740.215820312 817.693359375 c 4,6,7
 628.900390625 976.700195312 628.900390625 976.700195312 552.172851562 1047.67382812 c 5,8,9
 225.150390625 644.200195312 225.150390625 644.200195312 196.364257812 411.373046875 c 4,10,11
 168.150390625 190.099609375 168.150390625 190.099609375 349.40625 178.475585938 c 4,12,13
 447.450195312 172.049804688 447.450195312 172.049804688 555.552734375 382.569335938 c 4,14,15
 571.900390625 414.299804688 571.900390625 414.299804688 583.956054688 381.543945312 c 4,0,1
442.28125 1157.61816406 m 5,16,-1
 545.70703125 1320.140625 l 5,17,18
 578.549804688 1287.34960938 578.549804688 1287.34960938 611.0234375 1253.20507812 c 4,19,20
 1114.34960938 744.900390625 1114.34960938 744.900390625 1068.70800781 281.3203125 c 4,21,22
 1039.29980469 -17.9501953125 1039.29980469 -17.9501953125 789.392578125 -9.68359375 c 4,23,24
 629.849609375 -4.650390625 629.849609375 -4.650390625 569.506835938 213.280273438 c 5,25,26
 507.299804688 -10.349609375 507.299804688 -10.349609375 354.153320312 -10.2333984375 c 4,27,28
 106.400390625 -10.349609375 106.400390625 -10.349609375 87.1884765625 280.805664062 c 4,29,30
 68.400390625 554.900390625 68.400390625 554.900390625 479.044921875 1124.54296875 c 5,31,-1
 442.28125 1157.61816406 l 5,16,-1
EndSplineSet
EndChar

StartChar: uni06F6
Encoding: 1782 1782 89
Width: 995
VWidth: 2435
GlyphClass: 2
Flags: W
LayerCount: 2
Fore
SplineSet
396.986328125 618.516601562 m 1,0,1
 133.950195312 647.700195312 133.950195312 647.700195312 87.1337890625 861.677734375 c 0,2,3
 56.0498046875 1002.04980469 56.0498046875 1002.04980469 175.370117188 1169.47851562 c 0,4,5
 267.900390625 1299.40039062 267.900390625 1299.40039062 390.830078125 1333.63769531 c 0,6,7
 590.900390625 1388.70019531 590.900390625 1388.70019531 680.162109375 1241.33789062 c 0,8,9
 726.75 1164.5 726.75 1164.5 671.954101562 1168.95214844 c 0,10,11
 550.049804688 1179.70019531 550.049804688 1179.70019531 488.143554688 1170.48535156 c 0,12,13
 215.650390625 1132.20019531 215.650390625 1132.20019531 205.124023438 978.641601562 c 0,14,15
 190 741.75 190 741.75 546.782226562 765.233398438 c 0,16,17
 670.700195312 773.099609375 670.700195312 773.099609375 908.87890625 883.82421875 c 1,18,-1
 847.400390625 653.400390625 l 5,19,20
 494.950195312 555.549804688 494.950195312 555.549804688 263.643554688 169.318359375 c 1,21,-1
 174.381835938 -16.3876953125 l 1,22,23
 92.150390625 35.900390625 92.150390625 35.900390625 227.733398438 342.711914062 c 0,24,25
 316.349609375 543.200195312 316.349609375 543.200195312 396.986328125 618.516601562 c 1,0,1
EndSplineSet
EndChar

StartChar: uniFB8F
Encoding: 64399 64399 104
Width: 2008
VWidth: 2681
GlyphClass: 2
Flags: W
AnchorPoint: "Anchor-10" 423.698 1307.26 basechar 0
AnchorPoint: "Anchor-7" 499.779 -306.152 basechar 0
LayerCount: 2
Fore
SplineSet
181 479.440429688 m 4,0,1
 193 207 193 207 584.87890625 188.390625 c 4,2,3
 717 182 717 182 920.32421875 183.024414062 c 4,4,5
 1033 184 1033 184 1132.48046875 196.330078125 c 4,6,7
 1385 230 1385 230 1412.31835938 338.120117188 c 28,8,9
 1435 429 1435 429 1247.52636719 628.452148438 c 4,10,11
 1077 810 1077 810 971.525390625 853.200195312 c 5,12,13
 950.008789062 1093.90332031 950.008789062 1093.90332031 1091.140625 1169.25488281 c 6,14,-1
 1735.61132812 1513.34277344 l 5,15,16
 1700 1347 1700 1347 1661 1270 c 5,17,-1
 1091.55957031 1015.55175781 l 5,18,19
 1171 954 1171 954 1290.70019531 825.040039062 c 4,20,21
 1425 680 1425 680 1522.36035156 536.6796875 c 4,22,23
 1762 182 1762 182 1991.09667969 183.51953125 c 5,24,-1
 2017.00195312 183.51953125 l 5,25,-1
 2017.00195312 -9.51953125 l 5,26,-1
 1991.40625 -9.51953125 l 5,27,28
 1747 -11 1747 -11 1524.08105469 338.388671875 c 5,29,30
 1517 227 1517 227 1426.24023438 136.280273438 c 4,31,32
 1284 -5 1284 -5 827.444335938 -9.36328125 c 4,33,34
 423 -13 423 -13 293.110351562 55.28515625 c 4,35,36
 90 161 90 161 91.3603515625 425.440429688 c 28,37,38
 92 554 92 554 122.370117188 645.759765625 c 4,39,40
 153 741 153 741 191.799804688 725.6796875 c 4,41,42
 206 720 206 720 205.83984375 701.919921875 c 4,43,44
 206 694 206 694 191.069335938 615.51953125 c 4,45,46
 178 546 178 546 181 479.440429688 c 4,0,1
EndSplineSet
EndChar

StartChar: uniFB9F
Encoding: 64415 64415 112
Width: 1408
VWidth: 2681
GlyphClass: 2
Flags: W
AnchorPoint: "Anchor-10" 210.511 870.109 basechar 0
AnchorPoint: "Anchor-7" 92.5244 -895.757 basechar 0
LayerCount: 2
Fore
SplineSet
257.657226562 377.919921875 m 0,0,1
 282 362 282 362 243.024414062 239.6796875 c 0,2,3
 162 -14 162 -14 249.48046875 -185.83984375 c 0,4,5
 340 -364 340 -364 679.3203125 -356.48046875 c 0,6,7
 1074 -347 1074 -347 1107.71777344 -18.8916015625 c 1,8,9
 1071 180 1071 180 990.799804688 343.711914062 c 1,10,-1
 1132.63964844 502.749023438 l 1,11,12
 1175 275 1175 275 1235.125 226.934570312 c 0,13,14
 1290.34823439 183.727539062 1290.34823439 183.727539062 1371.62207031 183.727539062 c 2,15,-1
 1418.93652344 183.727539062 l 1,16,-1
 1418.93652344 -9.6591796875 l 1,17,-1
 1378.60644531 -9.6591796875 l 2,18,19
 1264 -10 1264 -10 1234.87988281 35.5595703125 c 1,20,21
 1224.08007812 -57.3203125 l 0,22,23
 1141 -546 1141 -546 646.360351562 -551.959960938 c 4,24,25
 335 -556 335 -556 199.799804688 -383.48046875 c 0,26,27
 62 -206 62 -206 112.6015625 101.37109375 c 0,28,29
 125 176 125 176 163.080078125 276.400390625 c 0,30,31
 213 407 213 407 257.657226562 377.919921875 c 0,0,1
EndSplineSet
EndChar

StartChar: uniFBE8
Encoding: 64488 64488 115
Width: 581
VWidth: 2680
GlyphClass: 2
Flags: W
AnchorPoint: "Anchor-10" 304.179 971.531 basechar 0
AnchorPoint: "Anchor-7" 269.03 -273.517 basechar 0
LayerCount: 2
Fore
SplineSet
65.9228515625 -9.51953125 m 6,0,-1
 -8.685546875 -9.51953125 l 5,1,-1
 -8.685546875 183.51953125 l 1,2,-1
 88.5595703125 183.51953125 l 2,3,4
 356.17973025 184.002127393 356.17973025 184.002127393 369.360351562 316.143554688 c 0,5,6
 378 403 378 403 280.799804688 503.200195312 c 1,7,-1
 398.51953125 741.788085938 l 1,8,9
 471 635 471 635 482.759765625 488.080078125 c 0,10,11
 523 -10 523 -10 65.9228515625 -9.51953125 c 6,0,-1
EndSplineSet
EndChar

StartChar: uniFBE9
Encoding: 64489 64489 116
Width: 706
VWidth: 2680
GlyphClass: 2
Flags: W
AnchorPoint: "Anchor-10" 409.228 913.403 basechar 0
AnchorPoint: "Anchor-7" 334.883 -241.144 basechar 0
LayerCount: 2
Fore
SplineSet
365.885742188 456.390625 m 2,0,1
 370.719229678 525.004977513 370.719229678 525.004977513 417.877929688 524.168945312 c 0,2,3
 464.935799239 524.000230177 464.935799239 524.000230177 469.086914062 462.802734375 c 2,4,-1
 474.500976562 382.986328125 l 2,5,6
 488.032594495 183.51953125 488.032594495 183.51953125 702.958984375 183.51953125 c 6,7,-1
 716.024414062 183.51953125 l 5,8,-1
 716.024414062 1.2802734375 l 5,9,-1
 716.024414062 -9.51953125 l 5,10,-1
 694.2734375 -9.51953125 l 6,11,12
 502 -10 502 -10 426.962890625 157.48046875 c 1,13,14
 338.255217156 -9.51953125 338.255217156 -9.51953125 40.8544921875 -9.51953125 c 2,15,-1
 -9.0751953125 -9.51953125 l 1,16,-1
 -9.0751953125 183.51953125 l 1,17,-1
 71.404296875 183.51953125 l 2,18,19
 346.697348205 183.999472362 346.697348205 183.999472362 360.579101562 381.059570312 c 2,20,-1
 365.885742188 456.390625 l 2,0,1
EndSplineSet
EndChar

StartChar: uniFE73
Encoding: 65139 65139 124
Width: 642
VWidth: 2459
GlyphClass: 2
Flags: W
AnchorPoint: "Anchor-10" 236.76 1442.45 basechar 0
AnchorPoint: "Anchor-7" 236.76 -119.917 basechar 0
LayerCount: 2
Fore
SplineSet
334.798828125 399.271484375 m 2,0,1
 334.798828125 363.655273438 334.798828125 363.655273438 350.376953125 330.2421875 c 128,-1,2
 365.954101562 296.828125 365.954101562 296.828125 397.357421875 265.422851562 c 0,3,4
 453.90625 208.874023438 453.90625 208.874023438 578.077148438 208.874023438 c 2,5,-1
 655.686523438 208.874023438 l 1,6,-1
 655.686523438 12.7939453125 l 1,7,-1
 511.9765625 12.7939453125 l 2,8,9
 346.5078125 12.7939453125 346.5078125 12.7939453125 239.609375 119.692382812 c 0,10,11
 189.174804688 170.126953125 189.174804688 170.126953125 163.947265625 236.497070312 c 128,-1,12
 138.719726562 302.868164062 138.719726562 302.868164062 138.719726562 384.849609375 c 2,13,-1
 138.719726562 423.999023438 l 1,14,-1
 334.798828125 423.999023438 l 1,15,-1
 334.798828125 399.271484375 l 2,0,1
EndSplineSet
EndChar

StartChar: uniFE8E
Encoding: 65166 65166 150
Width: 525
VWidth: 2653
GlyphClass: 2
Flags: W
AnchorPoint: "Anchor-10" 204.57 1641.24 basechar 0
AnchorPoint: "Anchor-7" 255.979 -328.428 basechar 0
LayerCount: 2
Fore
SplineSet
307.444335938 1500.79980469 m 5,0,1
 329 1125 329 1125 308.104492188 502.640625 c 0,2,3
 301 293 301 293 358.091796875 235.655273438 c 0,4,5
 408.464218469 183.51953125 408.464218469 183.51953125 523.262695312 183.51953125 c 2,6,-1
 535.413085938 183.51953125 l 1,7,-1
 535.413085938 -9.51953125 l 1,8,-1
 511.967773438 -9.51953125 l 2,9,10
 352 -10 352 -10 278.5859375 78.3720703125 c 0,11,12
 186 189 186 189 189 407.080078125 c 0,13,14
 194 844 194 844 184.6796875 1099.43261719 c 0,15,16
 176 1324 176 1324 156.599609375 1401.44042969 c 1,17,-1
 307.444335938 1500.79980469 l 5,0,1
EndSplineSet
EndChar

StartChar: uniFEA2
Encoding: 65186 65186 170
Width: 1285
VWidth: 2677
GlyphClass: 2
Flags: W
AnchorPoint: "Anchor-7" 377.442 -813.973 basechar 0
AnchorPoint: "Anchor-10" 556.919 1187.1 basechar 0
LayerCount: 2
Fore
SplineSet
869.400390625 413.91015625 m 1,0,1
 852 410 852 410 837 407.620117188 c 0,2,3
 648 374 648 374 514.080078125 304.48046875 c 0,4,5
 323 205 323 205 257.040039062 87.400390625 c 128,-1,6
 191 -30 191 -30 191.16015625 -133.459960938 c 0,7,8
 191 -237 191 -237 245.16015625 -310.040039062 c 0,9,10
 381 -496 381 -496 799.436523438 -496.196289062 c 0,11,12
 1066 -496 1066 -496 1171.79980469 -431 c 1,13,14
 1040 -679 1040 -679 726.7578125 -678.538085938 c 4,15,16
 383 -678 383 -678 236.696289062 -538.895507812 c 0,17,18
 93 -403 93 -403 92.8798828125 -179.360351562 c 0,19,20
 93 -19 93 -19 156.059570312 120.879882812 c 0,21,22
 320 483 320 483 839.16015625 558.280273438 c 1,23,24
 719 587 719 587 631.799804688 628.48046875 c 0,25,26
 511 685 511 685 452.875 685.002929688 c 0,27,28
 337 685 337 685 266 566 c 0,29,30
 239 521 239 521 224.143554688 521.587890625 c 0,31,32
 206 523 206 523 213.400390625 570.67578125 c 0,33,34
 220 612 220 612 236.299804688 681.93359375 c 0,35,36
 280 860 280 860 464.274414062 860.48046875 c 0,37,38
 583 861 583 861 785.700195312 746.740234375 c 0,39,40
 988 633 988 633 1202.13671875 612.668945312 c 1,41,-1
 1162.08007812 449.200195312 l 1,42,43
 1053 439 1053 439 972 429.256835938 c 1,44,45
 987.029385649 183.51953125 987.029385649 183.51953125 1267.03808594 183.51953125 c 2,46,-1
 1295.85449219 183.51953125 l 1,47,-1
 1295.85449219 -9.51953125 l 1,48,-1
 1275.01757812 -9.51953125 l 2,49,50
 878 -10 878 -10 869.400390625 413.91015625 c 1,0,1
EndSplineSet
EndChar

StartChar: uniFEA3
Encoding: 65187 65187 171
Width: 1303
VWidth: 2681
GlyphClass: 2
Flags: W
AnchorPoint: "Anchor-10" 347.229 1202.39 basechar 0
AnchorPoint: "Anchor-7" 477.603 -244.701 basechar 0
LayerCount: 2
Fore
SplineSet
1190.48730469 387.553710938 m 5,0,1
 808 273 808 273 592.706054688 150.94921875 c 0,2,3
 312.837969195 -9.51953125 312.837969195 -9.51953125 48.513671875 -9.51953125 c 2,4,-1
 -9.091796875 -9.51953125 l 1,5,-1
 -9.091796875 183.51953125 l 1,6,-1
 37.4521484375 183.51953125 l 2,7,8
 318 184 318 184 480.958984375 261.911132812 c 0,9,10
 712 374 712 374 899.202148438 433.78125 c 1,11,12
 783 456 783 456 621 531.280273438 c 0,13,14
 396 637 396 637 309.779296875 618.42578125 c 0,15,16
 238 603 238 603 175 488 c 0,17,18
 152 446 152 446 135.09375 446.797851562 c 0,19,20
 94 449 94 449 133.211914062 607.166015625 c 0,21,22
 177 785 177 785 347.896484375 804.458984375 c 0,23,24
 484 820 484 820 766.729492188 656.110351562 c 0,25,26
 932 560 932 560 1218.41210938 533.291992188 c 1,27,-1
 1190.48730469 387.553710938 l 5,0,1
EndSplineSet
EndChar

StartChar: uniFEA4
Encoding: 65188 65188 172
Width: 1344
VWidth: 2681
GlyphClass: 2
Flags: W
AnchorPoint: "Anchor-10" 407.951 1192.34 basechar 0
AnchorPoint: "Anchor-7" 530.49 -276.748 basechar 0
LayerCount: 2
Fore
SplineSet
1185.75292969 -9.51953125 m 1,0,1
 920 -11 920 -11 882.360351562 280.719726562 c 1,2,3
 739.889357613 228.671664399 739.889357613 228.671664399 561.04296875 134.001953125 c 0,4,5
 290.904346598 -9.51953125 290.904346598 -9.51953125 49.59375 -9.51953125 c 2,6,-1
 -9.091796875 -9.51953125 l 1,7,-1
 -9.091796875 183.51953125 l 1,8,-1
 38.5322265625 183.51953125 l 2,9,10
 318 184 318 184 480.399414062 261.911132812 c 0,11,12
 707 371 707 371 899.202148438 433.78125 c 1,13,14
 779 459 779 459 621 532.360351562 c 0,15,16
 443 616 443 616 340.01953125 619.505859375 c 0,17,18
 244 623 244 623 173.778320312 490.635742188 c 0,19,20
 149 444 149 444 133 445 c 0,21,22
 94 447 94 447 131.118164062 605.3671875 c 0,23,24
 174 786 174 786 347.896484375 805.5390625 c 0,25,26
 490 821 490 821 766.729492188 657.190429688 c 0,27,28
 930 560 930 560 1218.41210938 533.291992188 c 1,29,-1
 1190.48730469 387.556640625 l 1,30,31
 1078 357 1078 357 988.840820312 322.896484375 c 1,32,33
 987.997091446 183.51953125 987.997091446 183.51953125 1194.14550781 183.51953125 c 2,34,-1
 1353.640625 183.51953125 l 1,35,-1
 1353.640625 -9.51953125 l 1,36,-1
 1185.75292969 -9.51953125 l 1,0,1
EndSplineSet
EndChar

StartChar: uniFEAA
Encoding: 65194 65194 178
Width: 1055
VWidth: 2675
GlyphClass: 2
Flags: W
AnchorPoint: "Anchor-10" 545.764 1272.47 basechar 0
AnchorPoint: "Anchor-7" 374.534 -344.3 basechar 0
LayerCount: 2
Fore
SplineSet
793.85546875 175.803710938 m 1,0,1
 718 -4 718 -4 430.0859375 -9.51953125 c 0,2,3
 313 -12 313 -12 226 22 c 0,4,5
 51 90 51 90 113.515625 394.63671875 c 5,6,7
 149 410 149 410 179.364257812 395.490234375 c 1,8,9
 152 227 152 227 284 192 c 0,10,11
 322 182 322 182 375.83984375 180.153320312 c 0,12,13
 588 172 588 172 665.794921875 211.635742188 c 0,14,15
 736.918740753 246.959642303 736.918740753 246.959642303 698.879882812 341.7734375 c 2,16,-1
 520.583007812 786.1875 l 1,17,-1
 622.639648438 926.559570312 l 1,18,-1
 807.3203125 421.120117188 l 2,19,20
 894.17563622 183.51953125 894.17563622 183.51953125 1052.96484375 183.51953125 c 2,21,-1
 1064.93457031 183.51953125 l 1,22,-1
 1064.93457031 -9.51953125 l 1,23,-1
 1040.82226562 -9.51953125 l 2,24,25
 877 -10 877 -10 793.85546875 175.803710938 c 1,0,1
EndSplineSet
EndChar

StartChar: uniFEAE
Encoding: 65198 65198 182
Width: 927
VWidth: 2680
GlyphClass: 2
Flags: W
AnchorPoint: "Anchor-10" 543.871 912.11 basechar 0
AnchorPoint: "Anchor-7" 401.939 -780.019 basechar 0
LayerCount: 2
Fore
SplineSet
634.745117188 77.599609375 m 0,0,1
 647 147 647 147 520.559570312 304.48046875 c 1,2,3
 626.400390625 474.415039062 l 1,4,5
 678 365 678 365 733.3203125 261.655273438 c 0,6,7
 775.257880585 183.51953125 775.257880585 183.51953125 925.024414062 183.51953125 c 2,8,-1
 937.594726562 183.51953125 l 1,9,-1
 937.594726562 -9.51953125 l 5,10,-1
 909.922851562 -9.51953125 l 2,11,12
 788 -10 788 -10 733.3203125 36.6396484375 c 1,13,14
 660 -338 660 -338 451.248046875 -532.51953125 c 0,15,16
 411 -570 411 -570 362.879882812 -570.122070312 c 0,17,18
 141 -569 141 -569 29.16015625 -513.080078125 c 0,19,20
 -1 -498 -1 -498 38.8798828125 -485 c 0,21,22
 54 -480 54 -480 68.12109375 -473.979492188 c 0,23,24
 570 -286 570 -286 634.745117188 77.599609375 c 0,0,1
EndSplineSet
PairPos2: "'kern' Horizontal Kerning lookup 15-1" uni0644 dx=-100 dy=0 dh=-100 dv=0 dx=0 dy=0 dh=0 dv=0
PairPos2: "'kern' Horizontal Kerning lookup 15-1" uni0642 dx=-100 dy=0 dh=-100 dv=0 dx=0 dy=0 dh=0 dv=0
PairPos2: "'kern' Horizontal Kerning lookup 15-1" uni0632 dx=-80 dy=0 dh=-80 dv=0 dx=0 dy=0 dh=0 dv=0
PairPos2: "'kern' Horizontal Kerning lookup 15-1" uni0631 dx=-80 dy=0 dh=-80 dv=0 dx=0 dy=0 dh=0 dv=0
PairPos2: "'kern' Horizontal Kerning lookup 15-1" uniFB8A dx=-80 dy=0 dh=-80 dv=0 dx=0 dy=0 dh=0 dv=0
PairPos2: "'kern' Horizontal Kerning lookup 15-1" afii57508 dx=-80 dy=0 dh=-80 dv=0 dx=0 dy=0 dh=0 dv=0
PairPos2: "'kern' Horizontal Kerning lookup 15-1" uniFB7C dx=-100 dy=0 dh=-100 dv=0 dx=0 dy=0 dh=0 dv=0
PairPos2: "'kern' Horizontal Kerning lookup 15-1" uni06CC dx=-100 dy=0 dh=-100 dv=0 dx=0 dy=0 dh=0 dv=0
PairPos2: "'kern' Horizontal Kerning lookup 15-1" uniFEEB dx=-170 dy=0 dh=-170 dv=0 dx=0 dy=0 dh=0 dv=0
PairPos2: "'kern' Horizontal Kerning lookup 15-1" uniFEDF dx=-170 dy=0 dh=-170 dv=0 dx=0 dy=0 dh=0 dv=0
PairPos2: "'kern' Horizontal Kerning lookup 15-1" uniFB90 dx=-170 dy=0 dh=-170 dv=0 dx=0 dy=0 dh=0 dv=0
PairPos2: "'kern' Horizontal Kerning lookup 15-1" uni06A9 dx=-170 dy=0 dh=-170 dv=0 dx=0 dy=0 dh=0 dv=0
PairPos2: "'kern' Horizontal Kerning lookup 15-1" uni0649 dx=-100 dy=0 dh=-100 dv=0 dx=0 dy=0 dh=0 dv=0
PairPos2: "'kern' Horizontal Kerning lookup 15-1" uni0647 dx=-170 dy=0 dh=-170 dv=0 dx=0 dy=0 dh=0 dv=0
PairPos2: "'kern' Horizontal Kerning lookup 15-1" uniFEE7 dx=-170 dy=0 dh=-170 dv=0 dx=0 dy=0 dh=0 dv=0
PairPos2: "'kern' Horizontal Kerning lookup 15-1" uniFEE3 dx=-170 dy=0 dh=-170 dv=0 dx=0 dy=0 dh=0 dv=0
PairPos2: "'kern' Horizontal Kerning lookup 15-1" uni0645 dx=-170 dy=0 dh=-170 dv=0 dx=0 dy=0 dh=0 dv=0
PairPos2: "'kern' Horizontal Kerning lookup 15-1" uniFEDB dx=-170 dy=0 dh=-170 dv=0 dx=0 dy=0 dh=0 dv=0
PairPos2: "'kern' Horizontal Kerning lookup 15-1" uniFED7 dx=-170 dy=0 dh=-170 dv=0 dx=0 dy=0 dh=0 dv=0
PairPos2: "'kern' Horizontal Kerning lookup 15-1" uniFED3 dx=-170 dy=0 dh=-170 dv=0 dx=0 dy=0 dh=0 dv=0
PairPos2: "'kern' Horizontal Kerning lookup 15-1" uni0641 dx=-170 dy=0 dh=-170 dv=0 dx=0 dy=0 dh=0 dv=0
PairPos2: "'kern' Horizontal Kerning lookup 15-1" uniFECF dx=-170 dy=0 dh=-170 dv=0 dx=0 dy=0 dh=0 dv=0
PairPos2: "'kern' Horizontal Kerning lookup 15-1" uniFECB dx=-170 dy=0 dh=-170 dv=0 dx=0 dy=0 dh=0 dv=0
PairPos2: "'kern' Horizontal Kerning lookup 15-1" uniFEC7 dx=-170 dy=0 dh=-170 dv=0 dx=0 dy=0 dh=0 dv=0
PairPos2: "'kern' Horizontal Kerning lookup 15-1" uni0638 dx=-170 dy=0 dh=-170 dv=0 dx=0 dy=0 dh=0 dv=0
PairPos2: "'kern' Horizontal Kerning lookup 15-1" uniFEC3 dx=-170 dy=0 dh=-170 dv=0 dx=0 dy=0 dh=0 dv=0
PairPos2: "'kern' Horizontal Kerning lookup 15-1" uni0637 dx=-170 dy=0 dh=-170 dv=0 dx=0 dy=0 dh=0 dv=0
PairPos2: "'kern' Horizontal Kerning lookup 15-1" uniFEBF dx=-170 dy=0 dh=-170 dv=0 dx=0 dy=0 dh=0 dv=0
PairPos2: "'kern' Horizontal Kerning lookup 15-1" uni0636 dx=-170 dy=0 dh=-170 dv=0 dx=0 dy=0 dh=0 dv=0
PairPos2: "'kern' Horizontal Kerning lookup 15-1" uniFEBB dx=-170 dy=0 dh=-170 dv=0 dx=0 dy=0 dh=0 dv=0
PairPos2: "'kern' Horizontal Kerning lookup 15-1" uni0635 dx=-170 dy=0 dh=-170 dv=0 dx=0 dy=0 dh=0 dv=0
PairPos2: "'kern' Horizontal Kerning lookup 15-1" uniFEB7 dx=-170 dy=0 dh=-170 dv=0 dx=0 dy=0 dh=0 dv=0
PairPos2: "'kern' Horizontal Kerning lookup 15-1" uni0634 dx=-170 dy=0 dh=-170 dv=0 dx=0 dy=0 dh=0 dv=0
PairPos2: "'kern' Horizontal Kerning lookup 15-1" uniFEB3 dx=-170 dy=0 dh=-170 dv=0 dx=0 dy=0 dh=0 dv=0
PairPos2: "'kern' Horizontal Kerning lookup 15-1" uni0633 dx=-170 dy=0 dh=-170 dv=0 dx=0 dy=0 dh=0 dv=0
PairPos2: "'kern' Horizontal Kerning lookup 15-1" uni0630 dx=-170 dy=0 dh=-170 dv=0 dx=0 dy=0 dh=0 dv=0
PairPos2: "'kern' Horizontal Kerning lookup 15-1" uni062F dx=-170 dy=0 dh=-170 dv=0 dx=0 dy=0 dh=0 dv=0
PairPos2: "'kern' Horizontal Kerning lookup 15-1" uniFEA7 dx=-170 dy=0 dh=-170 dv=0 dx=0 dy=0 dh=0 dv=0
PairPos2: "'kern' Horizontal Kerning lookup 15-1" uniFEA3 dx=-170 dy=0 dh=-170 dv=0 dx=0 dy=0 dh=0 dv=0
PairPos2: "'kern' Horizontal Kerning lookup 15-1" uniFE9F dx=-170 dy=0 dh=-170 dv=0 dx=0 dy=0 dh=0 dv=0
PairPos2: "'kern' Horizontal Kerning lookup 15-1" uniFE9B dx=-170 dy=0 dh=-170 dv=0 dx=0 dy=0 dh=0 dv=0
PairPos2: "'kern' Horizontal Kerning lookup 15-1" uni062B dx=-170 dy=0 dh=-170 dv=0 dx=0 dy=0 dh=0 dv=0
PairPos2: "'kern' Horizontal Kerning lookup 15-1" uniFE97 dx=-170 dy=0 dh=-170 dv=0 dx=0 dy=0 dh=0 dv=0
PairPos2: "'kern' Horizontal Kerning lookup 15-1" uni062A dx=-170 dy=0 dh=-170 dv=0 dx=0 dy=0 dh=0 dv=0
PairPos2: "'kern' Horizontal Kerning lookup 15-1" uni0629 dx=-170 dy=0 dh=-170 dv=0 dx=0 dy=0 dh=0 dv=0
PairPos2: "'kern' Horizontal Kerning lookup 15-1" uni0628 dx=-170 dy=0 dh=-170 dv=0 dx=0 dy=0 dh=0 dv=0
PairPos2: "'kern' Horizontal Kerning lookup 15-1" uni0627 dx=-190 dy=0 dh=-190 dv=0 dx=0 dy=0 dh=0 dv=0
PairPos2: "'kern' Horizontal Kerning lookup 15-1" uni0622 dx=-190 dy=0 dh=-190 dv=0 dx=0 dy=0 dh=0 dv=0
PairPos2: "'kern' Horizontal Kerning lookup 15-1" uniFB94 dx=-170 dy=0 dh=-170 dv=0 dx=0 dy=0 dh=0 dv=0
PairPos2: "'kern' Horizontal Kerning lookup 15-1" afii57509 dx=-170 dy=0 dh=-170 dv=0 dx=0 dy=0 dh=0 dv=0
PairPos2: "'kern' Horizontal Kerning lookup 15-1" uniFB56 dx=-170 dy=0 dh=-170 dv=0 dx=0 dy=0 dh=0 dv=0
PairPos2: "'kern' Horizontal Kerning lookup 15-1" afii57506 dx=-170 dy=0 dh=-170 dv=0 dx=0 dy=0 dh=0 dv=0
EndChar

StartChar: uniFEB2
Encoding: 65202 65202 186
Width: 2364
VWidth: 2681
GlyphClass: 2
Flags: W
AnchorPoint: "Anchor-10" 674.896 944.015 basechar 0
AnchorPoint: "Anchor-7" 390.864 -801.646 basechar 0
LayerCount: 2
Fore
SplineSet
645.280273438 -551.959960938 m 21,0,1
 334 -556 334 -556 198.719726562 -383.48046875 c 0,2,3
 60 -206 60 -206 111.521484375 101.37109375 c 0,4,5
 124 176 124 176 162 276.400390625 c 0,6,7
 212 407 212 407 256.577148438 377.919921875 c 0,8,9
 281 362 281 362 241.944335938 239.6796875 c 0,10,11
 161 -14 161 -14 248.400390625 -185.83984375 c 0,12,13
 338 -362 338 -362 678.240234375 -356.48046875 c 8,14,15
 1072 -350 1072 -350 1106.7578125 -18.8916015625 c 1,16,17
 1067 193 1067 193 992 343.711914062 c 1,18,-1
 1131.6796875 502.749023438 l 1,19,20
 1164 334 1164 334 1234.16503906 239.89453125 c 0,21,22
 1286 171 1286 171 1406.83105469 174.66796875 c 0,23,24
 1548.18054468 179.005540349 1548.18054468 179.005540349 1554.22265625 374.986328125 c 2,25,-1
 1555.08984375 403.114257812 l 1,26,27
 1561 471 1561 471 1602.51953125 470.901367188 c 0,28,29
 1653 471 1653 471 1658.26464844 409.8203125 c 1,30,-1
 1662.91601562 383.180664062 l 2,31,32
 1697 190 1697 190 1841.94042969 184.8671875 c 0,33,34
 1974.32108855 179.98816596 1974.32108855 179.98816596 1986.29785156 386.333984375 c 2,35,-1
 1990.24511719 454.340820312 l 1,36,37
 1996 522 1996 522 2037.671875 522.188476562 c 0,38,39
 2088.38238228 523.006165781 2088.38238228 523.006165781 2093.4453125 460.879882812 c 2,40,-1
 2100.31835938 376.541992188 l 2,41,42
 2116.01169185 183.856445312 2116.01169185 183.856445312 2334.77148438 183.856445312 c 2,43,-1
 2374.34960938 183.856445312 l 1,44,-1
 2374.34960938 -9.6572265625 l 1,45,-1
 2342.4453125 -9.6572265625 l 2,46,47
 2131 -10 2131 -10 2043.43945312 173.782226562 c 1,48,49
 1970 -1 1970 -1 1845.31542969 -9.93359375 c 0,50,51
 1685 -22 1685 -22 1611.99023438 176.870117188 c 1,52,53
 1543 -3 1543 -3 1402.32910156 -10.3388671875 c 0,54,55
 1295 -16 1295 -16 1235.02050781 70.8544921875 c 1,56,57
 1234 14 1234 14 1223.12011719 -57.3203125 c 0,58,59
 1142 -552 1142 -552 645.280273438 -551.959960938 c 21,0,1
EndSplineSet
EndChar

StartChar: uniFEB3
Encoding: 65203 65203 187
Width: 1382
VWidth: 2680
GlyphClass: 2
Flags: W
AnchorPoint: "Anchor-10" 709.691 1017.24 basechar 0
AnchorPoint: "Anchor-7" 637.686 -267.833 basechar 0
LayerCount: 2
Fore
SplineSet
554.481445312 -10.9677734375 m 0,0,1
 379 -11 379 -11 318.45703125 169.744140625 c 1,2,3
 238.215067312 -9.51953125 238.215067312 -9.51953125 43.587890625 -9.51953125 c 2,4,-1
 -9.0029296875 -9.51953125 l 1,5,-1
 -9.0029296875 183.51953125 l 1,6,-1
 31.33984375 183.51953125 l 2,7,8
 250.54145496 183.998997012 250.54145496 183.998997012 260.41796875 337.91015625 c 2,9,-1
 263.778320312 390.276367188 l 2,10,11
 268 458 268 458 313.176757812 458.076171875 c 128,-1,12
 358.512588975 458.000810222 358.512588975 458.000810222 366.986328125 396.693359375 c 2,13,-1
 371.76953125 362.086914062 l 2,14,15
 398 174 398 174 554.526367188 174.377929688 c 0,16,17
 691.117945262 175.000537615 691.117945262 175.000537615 716.149414062 414.61328125 c 2,18,-1
 720.340820312 454.735351562 l 2,19,20
 727 522 727 522 768.270507812 522.340820312 c 0,21,22
 820.495283848 523.006311314 820.495283848 523.006311314 823.530273438 460.97265625 c 2,23,-1
 824.845703125 434.0859375 l 2,24,25
 831 299 831 299 876.609375 241.657226562 c 0,26,27
 930 174 930 174 1015.20605469 184.233398438 c 0,28,29
 1151 201 1151 201 1167.48046875 303.400390625 c 24,30,31
 1183 401 1183 401 1078.91992188 494.559570312 c 1,32,-1
 1198.79980469 731.080078125 l 1,33,34
 1268 635 1268 635 1283.04003906 482.6796875 c 0,35,36
 1307 239 1307 239 1208 105 c 4,37,38
 1166 49 1166 49 1109.16015625 15.3203125 c 0,39,40
 1064 -11 1064 -11 981.1796875 -10.599609375 c 0,41,42
 833 -11 833 -11 765.900390625 176.647460938 c 1,43,44
 690 -11 690 -11 554.481445312 -10.9677734375 c 0,0,1
EndSplineSet
EndChar

StartChar: uniFEB4
Encoding: 65204 65204 188
Width: 1481
VWidth: 2680
GlyphClass: 2
Flags: W
AnchorPoint: "Anchor-7" 637.686 -267.833 basechar 0
AnchorPoint: "Anchor-10" 736.168 920.218 basechar 0
LayerCount: 2
Fore
SplineSet
1232.55273438 462.845703125 m 1,0,-1
 1239.36523438 397.42578125 l 2,1,2
 1255 245 1255 245 1347.99316406 203.82421875 c 0,3,4
 1395.11504253 183.51953125 1395.11504253 183.51953125 1462.87597656 183.51953125 c 2,5,-1
 1491.09667969 183.51953125 l 1,6,-1
 1491.09667969 -9.51953125 l 5,7,-1
 1470.56835938 -9.51953125 l 2,8,9
 1240 -10 1240 -10 1177.90527344 170.331054688 c 1,10,11
 1120 -7 1120 -7 966.569335938 -11.2412109375 c 0,12,13
 821 -15 821 -15 757.19140625 157.2109375 c 1,14,15
 704 -5 704 -5 540.530273438 -9.48828125 c 0,16,17
 386 -13 386 -13 312.887695312 137.084960938 c 1,18,19
 232.264228305 -9.51953125 232.264228305 -9.51953125 69.533203125 -9.51953125 c 2,20,-1
 -8.9599609375 -9.51953125 l 1,21,-1
 -8.9599609375 183.51953125 l 1,22,-1
 57.2861328125 184.017578125 l 2,23,24
 238.633976807 184.998021124 238.633976807 184.998021124 258.118164062 325.870117188 c 2,25,-1
 261.462890625 350.052734375 l 2,26,27
 271 418 271 418 308.880859375 417.62890625 c 0,28,29
 343 418 343 418 356.336914062 390.138671875 c 0,30,31
 357 388 357 388 369.370117188 335.497070312 c 0,32,33
 405 176 405 176 546.919921875 174.340820312 c 0,34,35
 688.852404565 173.001392869 688.852404565 173.001392869 700.06640625 375.092773438 c 2,36,-1
 701.301757812 397.35546875 l 2,37,38
 705 464 705 464 748.735351562 465.056640625 c 0,39,40
 799.103459211 464.999883417 799.103459211 464.999883417 804.495117188 403.76953125 c 2,41,-1
 806.982421875 375.522460938 l 2,42,43
 825 175 825 175 980.848632812 184.63671875 c 0,44,45
 1098.35025766 192.022014644 1098.35025766 192.022014644 1122.88378906 401.189453125 c 2,46,-1
 1129.38085938 456.58203125 l 2,47,48
 1137 525 1137 525 1176.85742188 524.096679688 c 0,49,50
 1228 524 1228 524 1232.55273438 462.845703125 c 1,0,-1
EndSplineSet
EndChar

StartChar: uniFEBA
Encoding: 65210 65210 194
Width: 2553
VWidth: 2681
GlyphClass: 2
Flags: W
AnchorPoint: "Anchor-7" 310.034 -732.334 basechar 0
AnchorPoint: "Anchor-10" 653.429 862.547 basechar 0
LayerCount: 2
Fore
SplineSet
1470.45703125 184.931640625 m 1,0,-1
 1689.85839844 184.931640625 l 2,1,2
 2052.29394531 184.604492188 2052.29394531 184.604492188 2148.94042969 211.599609375 c 128,-1,3
 2245.59960938 238.599609375 2245.59960938 238.599609375 2197 382.780273438 c 128,-1,4
 2148.40039062 526.959960938 2148.40039062 526.959960938 1992.08300781 544.311523438 c 0,5,6
 1861.12011719 559.360351562 1861.12011719 559.360351562 1668.22460938 398.15625 c 0,7,8
 1561.95996094 309.879882812 1561.95996094 309.879882812 1470.45703125 184.931640625 c 1,0,-1
646.360351562 -550.879882812 m 4,9,10
 334 -555 334 -555 199.799804688 -383.48046875 c 0,11,12
 62 -206 62 -206 112.6015625 101.37109375 c 0,13,14
 125 176 125 176 163.080078125 276.400390625 c 0,15,16
 213 407 213 407 257.657226562 377.919921875 c 0,17,18
 282 362 282 362 243.024414062 239.6796875 c 0,19,20
 162 -14 162 -14 249.48046875 -185.83984375 c 0,21,22
 338 -362 338 -362 679.3203125 -355.400390625 c 0,23,24
 1075 -347 1075 -347 1108.63769531 -18.8916015625 c 1,25,26
 1072 186 1072 186 992.799804688 343.711914062 c 1,27,-1
 1133.55957031 502.749023438 l 1,28,29
 1176 288 1176 288 1236.04492188 239.89453125 c 24,30,31
 1298 189 1298 189 1376.20019531 195.400390625 c 1,32,33
 1745 733 1745 733 1998.28027344 728.379882812 c 0,34,35
 2191 725 2191 725 2273.34960938 560.614257812 c 0,36,37
 2324 459 2324 459 2318.82226562 296.321289062 c 24,38,39
 2314.98364977 183.51953125 2314.98364977 183.51953125 2547.32714844 183.51953125 c 2,40,-1
 2563.51953125 183.51953125 l 1,41,-1
 2563.51953125 -9.51953125 l 1,42,-1
 2545.1015625 -9.51953125 l 2,43,44
 2323 -10 2323 -10 2248.83984375 132.759765625 c 1,45,46
 2181 51 2181 51 2119.77832031 36.2275390625 c 0,47,48
 1912.91628391 -10.4703870341 1912.91628391 -10.4703870341 1762.09765625 -10.4755859375 c 2,49,-1
 1478.79980469 -10.4853515625 l 2,50,51
 1306 -10 1306 -10 1234.77148438 72.5869140625 c 1,52,53
 1234 -2 1234 -2 1225 -57.3203125 c 8,54,55
 1142 -544 1142 -544 646.360351562 -550.879882812 c 4,9,10
EndSplineSet
EndChar

StartChar: uniFEBB
Encoding: 65211 65211 195
Width: 1694
VWidth: 2681
GlyphClass: 2
Flags: W
AnchorPoint: "Anchor-10" 674.683 1240.3 basechar 0
AnchorPoint: "Anchor-7" 774.846 -280.511 basechar 0
LayerCount: 2
Fore
SplineSet
760.6171875 184.931640625 m 1,0,-1
 980.018554688 184.931640625 l 2,1,2
 1339.22070312 184.603515625 1339.22070312 184.603515625 1440.05175781 212.305664062 c 0,3,4
 1539 239.6796875 1539 239.6796875 1486.90234375 389.33203125 c 0,5,6
 1438.55957031 526.959960938 1438.55957031 526.959960938 1282.2421875 544.311523438 c 0,7,8
 1151.28027344 559.360351562 1151.28027344 559.360351562 958.384765625 398.15625 c 0,9,10
 852.120117188 309.879882812 852.120117188 309.879882812 760.6171875 184.931640625 c 1,0,-1
1288.44042969 728.379882812 m 0,11,12
 1480 725 1480 725 1563.50976562 560.614257812 c 0,13,14
 1619 451 1619 451 1602.50292969 296.321289062 c 24,15,16
 1582 109 1582 109 1409.9375 36.2275390625 c 0,17,18
 1297.87900106 -10.4671190734 1297.87900106 -10.4671190734 1052.2578125 -10.4755859375 c 2,19,-1
 768.959960938 -10.4853515625 l 2,20,21
 491 -10 491 -10 376.270507812 173.1640625 c 1,22,23
 240.357459425 -9.51953125 240.357459425 -9.51953125 20.1259765625 -9.51953125 c 2,24,-1
 -10.4736328125 -9.51953125 l 5,25,-1
 -10.4736328125 183.51953125 l 1,26,-1
 6.69921875 183.51953125 l 2,27,28
 130 184 130 184 192.286132812 217.358398438 c 0,29,30
 282 266 282 266 302.715820312 451.922851562 c 0,31,32
 312 535 312 535 359.557617188 535.603515625 c 0,33,34
 410 537 410 537 415.3359375 474.377929688 c 1,35,-1
 424.573242188 413.68359375 l 2,36,37
 455 211 455 211 666.360351562 195.400390625 c 1,38,39
 1035 733 1035 733 1288.44042969 728.379882812 c 0,11,12
EndSplineSet
EndChar

StartChar: uniFEBC
Encoding: 65212 65212 196
Width: 1843
VWidth: 2681
GlyphClass: 2
Flags: W
AnchorPoint: "Anchor-10" 750.546 1253.43 basechar 0
AnchorPoint: "Anchor-7" 770.577 -279.247 basechar 0
LayerCount: 2
Fore
SplineSet
760.6171875 184.931640625 m 1,0,-1
 980.018554688 184.931640625 l 2,1,2
 1339.22070312 184.603515625 1339.22070312 184.603515625 1440.05175781 212.305664062 c 0,3,4
 1539 239.6796875 1539 239.6796875 1486.90234375 389.33203125 c 0,5,6
 1438.55957031 526.959960938 1438.55957031 526.959960938 1282.2421875 544.311523438 c 0,7,8
 1151.28027344 559.360351562 1151.28027344 559.360351562 958.384765625 398.15625 c 0,9,10
 852.120117188 309.879882812 852.120117188 309.879882812 760.6171875 184.931640625 c 1,0,-1
1611.14257812 296.321289062 m 24,11,12
 1606.98227959 183.51953125 1606.98227959 183.51953125 1837.875 183.51953125 c 2,13,-1
 1852.98828125 183.51953125 l 1,14,-1
 1852.98828125 -9.51953125 l 1,15,-1
 1839.97070312 -9.51953125 l 2,16,17
 1616 -10 1616 -10 1540.08007812 132.759765625 c 1,18,19
 1489 70 1489 70 1409.9375 36.2275390625 c 0,20,21
 1297.87900106 -10.4671190734 1297.87900106 -10.4671190734 1052.2578125 -10.4755859375 c 2,22,-1
 768.959960938 -10.4853515625 l 2,23,24
 491 -10 491 -10 376.270507812 173.1640625 c 1,25,26
 245 -4 245 -4 20.1259765625 -9.51953125 c 2,27,-1
 -10.4736328125 -9.51953125 l 1,28,-1
 -10.4736328125 183.51953125 l 1,29,-1
 6.69921875 183.51953125 l 2,30,31
 121.248798917 184.014024577 121.248798917 184.014024577 192.286132812 217.358398438 c 0,32,33
 281 259 281 259 302.715820312 451.922851562 c 0,34,35
 312 535 312 535 359.557617188 535.603515625 c 0,36,37
 410 537 410 537 415.3359375 474.377929688 c 1,38,-1
 424.573242188 413.68359375 l 2,39,40
 455 211 455 211 666.360351562 195.400390625 c 1,41,42
 1035 733 1035 733 1288.44042969 728.379882812 c 0,43,44
 1479 725 1479 725 1563.50976562 560.614257812 c 0,45,46
 1617 457 1617 457 1611.14257812 296.321289062 c 24,11,12
EndSplineSet
EndChar

StartChar: uniFEC2
Encoding: 65218 65218 202
Width: 1568
VWidth: 2681
GlyphClass: 2
Flags: W
AnchorPoint: "Anchor-7" 732.541 -279.228 basechar 0
AnchorPoint: "Anchor-10" 463.845 1592.72 basechar 0
LayerCount: 2
Fore
SplineSet
491.177734375 184.931640625 m 1,0,-1
 710.579101562 184.931640625 l 2,1,2
 1069.78027344 184.604492188 1069.78027344 184.604492188 1170.61132812 212.305664062 c 0,3,4
 1269.55957031 239.6796875 1269.55957031 239.6796875 1217.46289062 389.33203125 c 0,5,6
 1169.12011719 526.959960938 1169.12011719 526.959960938 1012.80273438 544.311523438 c 0,7,8
 881.83984375 559.360351562 881.83984375 559.360351562 688.9453125 398.15625 c 0,9,10
 582.6796875 309.879882812 582.6796875 309.879882812 491.177734375 184.931640625 c 1,0,-1
1266.7890625 129.51953125 m 1,11,12
 1221 73 1221 73 1140.49804688 37.3076171875 c 0,13,14
 1033.1009209 -9.390938727 1033.1009209 -9.390938727 782.817382812 -9.3955078125 c 2,15,-1
 247.879882812 -9.4052734375 l 17,16,17
 126 71 126 71 91.64453125 184.1015625 c 1,18,-1
 343.719726562 184.102539062 l 1,19,20
 394 247 394 247 443.360351562 310.959960938 c 1,21,22
 435 1267 435 1267 399.080078125 1403.59960938 c 1,23,-1
 546.349609375 1500.88085938 l 5,24,-1
 545.590820312 415.028320312 l 1,25,26
 828 732 828 732 1019 728.379882812 c 0,27,28
 1210 725 1210 725 1294.0703125 560.614257812 c 0,29,30
 1352 447 1352 447 1337.3828125 296.321289062 c 16,31,32
 1326.95558619 183.51953125 1326.95558619 183.51953125 1562.97070312 183.51953125 c 2,33,-1
 1578.13085938 183.51953125 l 1,34,-1
 1578.13085938 -9.51953125 l 1,35,-1
 1561.03125 -9.51953125 l 2,36,37
 1332 -10 1332 -10 1266.7890625 129.51953125 c 1,11,12
EndSplineSet
EndChar

StartChar: uniFEC3
Encoding: 65219 65219 203
Width: 1192
VWidth: 2681
GlyphClass: 2
Flags: W
AnchorPoint: "Anchor-7" 457.776 -278.057 basechar 0
AnchorPoint: "Anchor-10" 224.434 1599.06 basechar 0
LayerCount: 2
Fore
SplineSet
258.416992188 184.931640625 m 1,0,-1
 477.818359375 184.931640625 l 2,1,2
 837.020507812 184.603515625 837.020507812 184.603515625 937.8515625 212.305664062 c 0,3,4
 1036.79980469 239.6796875 1036.79980469 239.6796875 984.703125 389.33203125 c 0,5,6
 936.360351562 526.959960938 936.360351562 526.959960938 780.04296875 544.311523438 c 0,7,8
 649.080078125 559.360351562 649.080078125 559.360351562 456.184570312 398.15625 c 0,9,10
 349.919921875 309.879882812 349.919921875 309.879882812 258.416992188 184.931640625 c 1,0,-1
907.73828125 36.2275390625 m 0,11,12
 800.931952217 -10.466937991 800.931952217 -10.466937991 550.057617188 -10.4755859375 c 6,13,-1
 266.759765625 -10.4853515625 l 6,14,15
 266 -10 266 -10 -10.7998046875 -9.51953125 c 5,16,17
 -11 80 -11 80 -10.435546875 184.1015625 c 1,18,-1
 110.958984375 184.102539062 l 1,19,20
 160 249 160 249 208.440429688 315.280273438 c 1,21,22
 198 1262 198 1262 159.83984375 1405.75976562 c 1,23,-1
 313.588867188 1500.88085938 l 1,24,-1
 312.831054688 415.028320312 l 1,25,26
 595 732 595 732 786.240234375 728.379882812 c 0,27,28
 977 725 977 725 1061.30957031 560.614257812 c 0,29,30
 1117 451 1117 451 1100.30273438 296.321289062 c 24,31,32
 1080 113 1080 113 907.73828125 36.2275390625 c 0,11,12
EndSplineSet
EndChar

StartChar: uniFEC4
Encoding: 65220 65220 204
Width: 1348
VWidth: 2681
GlyphClass: 2
Flags: W
AnchorPoint: "Anchor-10" 217.617 1595.85 basechar 0
AnchorPoint: "Anchor-7" 553.854 -274.514 basechar 0
LayerCount: 2
Fore
SplineSet
255.177734375 184.931640625 m 1,0,-1
 474.579101562 184.931640625 l 2,1,2
 807.830078125 184.595703125 807.830078125 184.595703125 908.69140625 212.305664062 c 0,3,4
 1004.40039062 238.599609375 1004.40039062 238.599609375 955.54296875 383.931640625 c 0,5,6
 907.200195312 529.120117188 907.200195312 529.120117188 776.262695312 544.311523438 c 0,7,8
 645.83984375 559.360351562 645.83984375 559.360351562 452.9453125 398.15625 c 0,9,10
 346.6796875 309.879882812 346.6796875 309.879882812 255.177734375 184.931640625 c 1,0,-1
1339.15820312 -9.51953125 m 2,11,12
 1109.77388558 -9.51953125 1109.77388558 -9.51953125 1044.34960938 129.5 c 1,13,14
 1003 82 1003 82 926 48 c 0,15,16
 792.203115454 -9.34152194812 792.203115454 -9.34152194812 546.817382812 -9.3955078125 c 2,17,-1
 -16.9150390625 -9.51953125 l 1,18,-1
 -16.9150390625 183.51953125 l 1,19,-1
 107.719726562 184.102539062 l 1,20,21
 158 258 158 258 207.360351562 332.559570312 c 1,22,23
 203 1138 203 1138 162.567382812 1405.90039062 c 1,24,-1
 310.349609375 1500.88085938 l 5,25,-1
 309.590820312 447.427734375 l 1,26,27
 565 738 565 738 783 731.080078125 c 0,28,29
 975 725 975 725 1058.0703125 560.614257812 c 0,30,31
 1102 474 1102 474 1105.703125 296.321289062 c 0,32,33
 1108.00982518 183.51953125 1108.00982518 183.51953125 1346.49707031 183.51953125 c 2,34,-1
 1358.41601562 183.51953125 l 1,35,-1
 1358.41601562 -9.51953125 l 1,36,-1
 1339.15820312 -9.51953125 l 2,11,12
EndSplineSet
EndChar

StartChar: uniFECA
Encoding: 65226 65226 210
Width: 1289
VWidth: 2679
GlyphClass: 2
Flags: W
AnchorPoint: "Anchor-10" 579.367 1297.43 basechar 0
AnchorPoint: "Anchor-7" 381.403 -872.637 basechar 0
LayerCount: 2
Fore
SplineSet
849.556640625 462.235351562 m 1,0,1
 886.062931958 183.51953125 886.062931958 183.51953125 1255.60839844 183.51953125 c 2,2,-1
 1302.39746094 183.51953125 l 1,3,-1
 1302.39746094 -9.51953125 l 1,4,-1
 1263.58398438 -9.51953125 l 2,5,6
 801 -10 801 -10 760.639648438 395.200195312 c 1,7,8
 629 368 629 368 507.919921875 306.639648438 c 0,9,10
 332 217 332 217 245.48046875 64.7197265625 c 0,11,12
 192.03943016 -28.1928470375 192.03943016 -28.1928470375 191.48046875 -140.48046875 c 0,13,14
 191 -237 191 -237 245.48046875 -310.040039062 c 0,15,16
 367.279080605 -476.286146041 367.279080605 -476.286146041 726.080078125 -494.719726562 c 0,17,18
 751 -496 751 -496 776.173828125 -496.072265625 c 0,19,20
 1061 -499 1061 -499 1172.12011719 -431 c 1,21,22
 1042 -678 1042 -678 723.005859375 -678.375 c 4,23,24
 387 -678 387 -678 237.126953125 -540.788085938 c 0,25,26
 91 -406 91 -406 91.0400390625 -180.440429688 c 0,27,28
 91 2 91 2 170.959960938 155.440429688 c 0,29,30
 325 455 325 455 695.469726562 527.602539062 c 1,31,32
 646 604 646 604 403.87109375 625.705078125 c 1,33,34
 400 722 400 722 403.87109375 760.65625 c 1,35,36
 512 835 512 835 789.077148438 834.342773438 c 0,37,38
 1058 834 1058 834 1057.40234375 703.6796875 c 0,39,40
 1057 584 1057 584 849.556640625 462.235351562 c 1,0,1
EndSplineSet
EndChar

StartChar: uniFECB
Encoding: 65227 65227 211
Width: 975
VWidth: 2677
GlyphClass: 2
Flags: W
AnchorPoint: "Anchor-10" 429.435 1177.89 basechar 0
AnchorPoint: "Anchor-7" 437.684 -309.477 basechar 0
LayerCount: 2
Fore
SplineSet
788.400390625 530.200195312 m 1,0,1
 672 609 672 609 572.400390625 629.984375 c 128,-1,2
 473 651 473 651 374.759765625 619.19921875 c 0,3,4
 235 573 235 573 207.360351562 450.280273438 c 0,5,6
 189.718106203 373.139905144 189.718106203 373.139905144 372.478515625 248.005859375 c 0,7,8
 409 223 409 223 460.03125 225.060546875 c 0,9,10
 575.187306253 229.006418128 575.187306253 229.006418128 640 242.604492188 c 2,11,-1
 883.440429688 293.6796875 l 1,12,-1
 792.719726562 101.440429688 l 1,13,14
 309.094151562 -9.51953125 309.094151562 -9.51953125 74.3203125 -9.51953125 c 2,15,-1
 -9.48828125 -9.51953125 l 1,16,-1
 -9.48828125 183.51953125 l 1,17,-1
 219.23828125 183.51953125 l 1,18,19
 113 288 113 288 114.48046875 417.780273438 c 0,20,21
 116 564 116 564 219.240234375 684.639648438 c 0,22,23
 294 772 294 772 387.719726562 803.51953125 c 4,24,25
 460 828 460 828 524.879882812 816.48046875 c 4,26,27
 750 775 750 775 788.400390625 530.200195312 c 1,0,1
EndSplineSet
EndChar

StartChar: uniFECC
Encoding: 65228 65228 212
Width: 942
VWidth: 2679
GlyphClass: 2
Flags: W
AnchorPoint: "Anchor-10" 484.84 1062.06 basechar 0
AnchorPoint: "Anchor-7" 435.884 -245.713 basechar 0
LayerCount: 2
Fore
SplineSet
514.946289062 183.0859375 m 1,0,1
 343.427865538 -9.51953125 343.427865538 -9.51953125 74.349609375 -9.51953125 c 2,2,-1
 -9.6494140625 -9.51953125 l 1,3,-1
 -9.6494140625 183.51953125 l 1,4,-1
 44.9091796875 183.51953125 l 2,5,6
 251 184 251 184 436.76953125 290.51953125 c 1,7,8
 354 418 354 418 152.49609375 437.212890625 c 1,9,10
 150 529 150 529 152.49609375 565.651367188 c 1,11,12
 254 636 254 636 519.114257812 635.780273438 c 0,13,14
 774 636 774 636 774.491210938 511.421875 c 0,15,16
 774 390 774 390 598.71484375 287.443359375 c 1,17,18
 750.702682032 183.51953125 750.702682032 183.51953125 929.043945312 183.51953125 c 2,19,-1
 951.434570312 183.51953125 l 1,20,-1
 951.434570312 -9.51953125 l 5,21,-1
 914.729492188 -9.51953125 l 6,22,23
 687 -10 687 -10 514.946289062 183.0859375 c 1,0,1
EndSplineSet
EndChar

StartChar: uniFEDA
Encoding: 65242 65242 226
Width: 2059
VWidth: 2653
GlyphClass: 2
Flags: W
AnchorPoint: "Anchor-10" 532.776 1559.44 basechar 0
AnchorPoint: "Anchor-7" 681.284 -354.53 basechar 0
LayerCount: 2
Fore
SplineSet
181.3203125 471.15234375 m 0,0,1
 190 209 190 209 585.19921875 189.823242188 c 0,2,3
 717 183 717 183 945.959960938 186.032226562 c 24,4,5
 1175 188 1175 188 1251.45507812 201.080078125 c 0,6,7
 1630 266 1630 266 1649.81445312 465.541015625 c 24,8,9
 1668 648 1668 648 1656.05957031 947.732421875 c 0,10,11
 1643 1286 1643 1286 1624.92480469 1402.78613281 c 1,12,-1
 1780.72949219 1501.44628906 l 1,13,-1
 1780.72949219 511.899414062 l 24,14,15
 1781.0001196 184.85546875 1781.0001196 184.85546875 2023.71972656 184.85546875 c 2,16,-1
 2071.56445312 184.85546875 l 1,17,-1
 2071.56445312 -9.6123046875 l 5,18,-1
 2038.31640625 -9.6123046875 l 6,19,20
 1834 -10 1834 -10 1713.83984375 246.512695312 c 1,21,22
 1656 175 1656 175 1612.3203125 143.913085938 c 0,23,24
 1472 42 1472 42 1261.99121094 17.26953125 c 0,25,26
 1068 -6 1068 -6 827.764648438 -7.9306640625 c 24,27,28
 423 -12 423 -12 293.4296875 56.7177734375 c 0,29,30
 87 164 87 164 91.6796875 416.072265625 c 8,31,32
 94 547 94 547 122.689453125 636.392578125 c 0,33,34
 153 733 153 733 192.120117188 716.3125 c 0,35,36
 206 710 206 710 206.16015625 692.552734375 c 0,37,38
 206 679 206 679 191.388671875 606.15234375 c 0,39,40
 179 541 179 541 181.3203125 471.15234375 c 0,0,1
655.100585938 722.004882812 m 1,41,42
 734 711.432617188 734 711.432617188 765.853515625 711.708007812 c 0,43,44
 879 711.432617188 879 711.432617188 938.87890625 735.301757812 c 0,45,46
 1043 775.432617188 1043 775.432617188 1043.01953125 841.822265625 c 0,47,48
 1043 917.432617188 1043 917.432617188 922.331054688 935.403320312 c 0,49,50
 771 958.432617188 771 958.432617188 774.143554688 1098.15625 c 0,51,52
 776 1194.43261719 776 1194.43261719 871.15625 1242.20703125 c 0,53,54
 965 1290.43261719 965 1290.43261719 1103.82128906 1299.29394531 c 1,55,-1
 1103.82128906 1230.22460938 l 1,56,57
 947 1218.43261719 947 1218.43261719 876.7890625 1157.28515625 c 0,58,59
 847 1130.43261719 847 1130.43261719 846.9921875 1094.73144531 c 0,60,61
 847 1007.43261719 847 1007.43261719 949.7734375 992.08203125 c 0,62,63
 1053 977.432617188 1053 977.432617188 1083.98339844 948.262695312 c 0,64,65
 1116 919.432617188 1116 919.432617188 1115.41210938 868.57421875 c 0,66,67
 1116 747.432617188 1116 747.432617188 993.48046875 678.272460938 c 0,68,69
 871 609.432617188 871 609.432617188 655.100585938 644.810546875 c 1,70,-1
 655.100585938 722.004882812 l 1,41,42
EndSplineSet
EndChar

StartChar: uniFEDB
Encoding: 65243 65243 227
Width: 882
VWidth: 2654
GlyphClass: 2
Flags: W
AnchorPoint: "Anchor-10" 276.102 1434.83 basechar 0
AnchorPoint: "Anchor-7" 348.298 -273.362 basechar 0
LayerCount: 2
Fore
SplineSet
-16.67578125 -9.51953125 m 5,0,-1
 -16.67578125 183.51953125 l 5,1,-1
 144.354492188 183.51953125 l 6,2,3
 501 184 501 184 529.318359375 327.3203125 c 28,4,5
 548 422 548 422 364.5390625 617.638671875 c 4,6,7
 194 799 194 799 88.5439453125 842.392578125 c 5,8,9
 65.9620350201 1082.40350927 65.9620350201 1082.40350927 208.099609375 1158.42675781 c 6,10,-1
 847.616210938 1500.4765625 l 5,11,12
 813 1335 813 1335 773 1257 c 5,13,-1
 208.514648438 1004.81347656 l 5,14,15
 416 842 416 842 531.900390625 653.3203125 c 4,16,17
 732 326 732 326 576 135 c 4,18,19
 458.391002155 -9.51953125 458.391002155 -9.51953125 127.98046875 -9.51953125 c 6,20,-1
 -16.67578125 -9.51953125 l 5,0,-1
EndSplineSet
EndChar

StartChar: uniFEDC
Encoding: 65244 65244 228
Width: 1125
VWidth: 2654
GlyphClass: 2
Flags: W
AnchorPoint: "Anchor-10" 273.718 1469.05 basechar 0
AnchorPoint: "Anchor-7" 362.177 -269.714 basechar 0
LayerCount: 2
Fore
SplineSet
1115.96582031 -9.51953125 m 5,0,1
 884 -10 884 -10 636.76171875 338.388671875 c 1,2,3
 634 219 634 219 561.494140625 127.583007812 c 0,4,5
 453.378884318 -9.51953125 453.378884318 -9.51953125 116.099609375 -9.51953125 c 6,6,-1
 -10.67578125 -9.51953125 l 5,7,-1
 -10.67578125 183.51953125 l 1,8,-1
 144.354492188 183.51953125 l 2,9,10
 305.824836202 184.011657257 305.824836202 184.011657257 397.440429688 211.599609375 c 0,11,12
 515 247 515 247 529.318359375 338.120117188 c 24,13,14
 544 437 544 437 364.526367188 628.452148438 c 0,15,16
 194 810 194 810 88.525390625 853.200195312 c 1,17,18
 67.0299806638 1093.66461292 67.0299806638 1093.66461292 208.140625 1169.25488281 c 2,19,-1
 848.611328125 1512.34277344 l 1,20,21
 813 1346 813 1346 774 1269 c 1,22,-1
 208.559570312 1015.55175781 l 1,23,24
 288 954 288 954 407.700195312 825.040039062 c 0,25,26
 530 693 530 693 639.360351562 536.6796875 c 0,27,28
 887 182 887 182 1115.65722656 183.51953125 c 1,29,-1
 1136.16210938 183.51953125 l 1,30,-1
 1136.16210938 -9.51953125 l 5,31,-1
 1115.96582031 -9.51953125 l 5,0,1
EndSplineSet
EndChar

StartChar: uniFEDE
Encoding: 65246 65246 230
Width: 1411
VWidth: 2681
GlyphClass: 2
Flags: W
AnchorPoint: "Anchor-10" 516.221 1116.6 basechar 0
AnchorPoint: "Anchor-7" 344.431 -791.167 basechar 0
LayerCount: 2
Fore
SplineSet
234.116210938 383.239257812 m 4,0,1
 260 383 260 383 259.958984375 349.047851562 c 132,-1,2
 260 315 260 315 228.635742188 216.63671875 c 4,3,4
 197 119 197 119 197.3125 10.482421875 c 4,5,6
 197 -97 197 -97 243.559570312 -188.540039062 c 4,7,8
 330 -357 330 -357 633.270507812 -356.711914062 c 4,9,10
 1022 -356 1022 -356 1037.39746094 -18.8916015625 c 0,11,12
 1046 174 1046 174 1046.01464844 386.618164062 c 0,13,14
 1046 559 1046 559 1036.16699219 875.158203125 c 0,15,16
 1026 1175 1026 1175 1007.95996094 1404.75976562 c 1,17,-1
 1160.78515625 1500.35839844 l 1,18,-1
 1160.78515625 477.280273438 l 2,19,20
 1160.99990628 184.127929688 1160.99990628 184.127929688 1389.24804688 184.127929688 c 2,21,-1
 1421.81640625 184.127929688 l 1,22,-1
 1421.81640625 -10.3408203125 l 1,23,-1
 1398.37890625 -10.3408203125 l 2,24,25
 1249 -10 1249 -10 1157.99609375 77.6796875 c 1,26,27
 1156 31 1156 31 1150.51953125 -14.1201171875 c 0,28,29
 1081 -552 1081 -552 624.588867188 -552.063476562 c 4,30,31
 325 -552 325 -552 190.639648438 -380.240234375 c 4,32,33
 91 -253 91 -253 91.2490234375 -57.0947265625 c 4,34,35
 91 108 91 108 156.080078125 276.400390625 c 4,36,37
 197 383 197 383 234.116210938 383.239257812 c 4,0,1
EndSplineSet
EndChar

StartChar: uniFEDF
Encoding: 65247 65247 231
Width: 486
VWidth: 2653
GlyphClass: 2
Flags: W
AnchorPoint: "Anchor-10" 233.903 1628.31 basechar 0
AnchorPoint: "Anchor-7" 173.905 -313.463 basechar 0
LayerCount: 2
Fore
SplineSet
201.959960938 1400.44042969 m 1,0,-1
 355.287109375 1500.1171875 l 1,1,-1
 355.287109375 527.497070312 l 2,2,3
 355 196 355 196 273 87 c 0,4,5
 198.622281733 -10.4951171875 198.622281733 -10.4951171875 7.783203125 -10.4951171875 c 2,6,-1
 -17.0654296875 -10.4951171875 l 1,7,-1
 -17.0654296875 184.09765625 l 1,8,-1
 11.859375 184.098632812 l 2,9,10
 128 184 128 184 183.163085938 243.327148438 c 0,11,12
 238 304 238 304 237.525390625 523.354492188 c 4,13,14
 237 906 237 906 228.879882812 1119.12890625 c 0,15,16
 223 1279 223 1279 201.959960938 1400.44042969 c 1,0,-1
EndSplineSet
EndChar

StartChar: uniFEE0
Encoding: 65248 65248 232
Width: 631
VWidth: 2653
GlyphClass: 2
Flags: W
AnchorPoint: "Anchor-10" 319.892 1614.62 basechar 0
AnchorPoint: "Anchor-7" 263.349 -262.532 basechar 0
LayerCount: 2
Fore
SplineSet
245.83984375 1399.24316406 m 1,0,-1
 398.875 1500.953125 l 1,1,-1
 398.875 482.05078125 l 2,2,3
 399 286 399 286 433.080078125 239.6796875 c 0,4,5
 474.353104419 183.51953125 474.353104419 183.51953125 610.62109375 183.51953125 c 2,6,-1
 641.111328125 183.51953125 l 5,7,-1
 641.111328125 -9.51953125 l 1,8,-1
 603.153320312 -9.51953125 l 2,9,10
 406 -10 406 -10 323.2109375 116.58984375 c 1,11,12
 210.429689429 -9.51953125 210.429689429 -9.51953125 40.4033203125 -9.51953125 c 2,13,-1
 -10.3408203125 -9.51953125 l 1,14,-1
 -10.3408203125 183.51953125 l 1,15,-1
 1.658203125 183.51953125 l 1,16,17
 173 184 173 184 227.879882812 247.240234375 c 0,18,19
 285 313 285 313 284.219726562 543.262695312 c 0,20,21
 284 635 284 635 275.31640625 932.573242188 c 0,22,23
 267 1208 267 1208 245.83984375 1399.24316406 c 1,0,-1
EndSplineSet
EndChar

StartChar: uniFEE2
Encoding: 65250 65250 234
Width: 1073
VWidth: 2707
GlyphClass: 2
Flags: W
AnchorPoint: "Anchor-10" 393.922 984.912 basechar 0
AnchorPoint: "Anchor-7" 145.296 -897.691 basechar 0
LayerCount: 2
Fore
SplineSet
676.639648438 -111.16015625 m 0,0,1
 780 -119 780 -119 807.3203125 -39.8798828125 c 0,2,3
 848 77 848 77 692.080078125 149.51953125 c 0,4,5
 589 197 589 197 501.6796875 207.440429688 c 1,6,7
 498.359972374 185.13695964 498.359972374 185.13695964 501.977539062 142.98046875 c 0,8,9
 523 -102 523 -102 676.639648438 -111.16015625 c 0,0,1
415.280273438 206.360351562 m 1,10,11
 144.24462884 202.003931977 144.24462884 202.003931977 233.794921875 -253.461914062 c 2,12,-1
 282.291015625 -500.120117188 l 0,13,-1
 301.879882812 -588.6796875 l 1,14,-1
 190.517578125 -733.400390625 l 1,15,16
 151.401836622 -779.526149362 151.401836622 -779.526149362 145.24609375 -709.639648438 c 2,17,-1
 98.2099609375 -175.635742188 l 2,18,19
 91 -94 91 -94 91.3046875 -52.27734375 c 0,20,21
 91 245 91 245 298 299 c 4,22,23
 356 314 356 314 425 310.879882812 c 1,24,25
 425 319 425 319 437.959960938 416.959960938 c 1,26,27
 969.84741129 184.503727677 969.84741129 184.503727677 1066.41210938 183.655273438 c 2,28,-1
 1082.41699219 183.514648438 l 1,29,-1
 1082.41699219 -9.51953125 l 1,30,-1
 1066.39550781 -9.51953125 l 2,31,32
 969 -10 969 -10 898.040039062 58.400390625 c 1,33,34
 906 -154 906 -154 805.16015625 -246.16015625 c 0,35,36
 760 -287 760 -287 697.16015625 -289.360351562 c 0,37,38
 635 -292 635 -292 583.759765625 -271 c 0,39,40
 392 -194 392 -194 415.280273438 206.360351562 c 1,10,11
EndSplineSet
EndChar

StartChar: uniFEE3
Encoding: 65251 65251 235
Width: 891
VWidth: 2684
GlyphClass: 2
Flags: W
AnchorPoint: "Anchor-10" 437.214 989.33 basechar 0
AnchorPoint: "Anchor-7" 422.452 -300.058 basechar 0
LayerCount: 2
Fore
SplineSet
565.166992188 -45.8486328125 m 0,0,1
 436 -45 436 -45 220.3203125 111.16015625 c 1,2,3
 122.664272062 -10.41796875 122.664272062 -10.41796875 32.82421875 -10.41796875 c 6,4,-1
 -8.7919921875 -10.41796875 l 5,5,-1
 -8.7919921875 184.131835938 l 1,6,-1
 55.2529296875 184.131835938 l 2,7,8
 122 184 122 184 192.240234375 286.120117188 c 0,9,10
 391 578 391 578 498.959960938 602.559570312 c 0,11,12
 517 607 517 607 536.442382812 606.625976562 c 0,13,14
 555 607 555 607 575.639648438 601.48046875 c 0,15,16
 743 552 743 552 787.3203125 301.240234375 c 0,17,18
 792 276 792 276 791.915039062 241.138671875 c 0,19,20
 792 81 792 81 701.459960938 8.01953125 c 0,21,22
 635 -45 635 -45 565.166992188 -45.8486328125 c 0,0,1
327.240234375 260.200195312 m 1,23,24
 482.759765625 121.959960938 482.759765625 121.959960938 601.559570312 121.959960938 c 0,25,26
 631.799804688 121.959960938 631.799804688 121.959960938 656.65234375 146.8125 c 128,-1,27
 681.48046875 171.639648438 681.48046875 171.639648438 681.504882812 210.431640625 c 0,28,29
 681.48046875 252.639648438 681.48046875 252.639648438 663.120117188 294.759765625 c 0,30,31
 601.559570312 434.080078125 601.559570312 434.080078125 504.360351562 434.080078125 c 0,32,33
 436.3203125 434.080078125 436.3203125 434.080078125 327.240234375 260.200195312 c 1,23,24
EndSplineSet
EndChar

StartChar: uniFEE4
Encoding: 65252 65252 236
Width: 976
VWidth: 2684
GlyphClass: 2
Flags: W
AnchorPoint: "Anchor-10" 468.224 1046.18 basechar 0
AnchorPoint: "Anchor-7" 479.38 -294.028 basechar 0
LayerCount: 2
Fore
SplineSet
327.240234375 223.48046875 m 1,0,1
 496.799804688 71.2001953125 496.799804688 71.2001953125 605.879882812 71.2001953125 c 0,2,3
 636.120117188 71.2001953125 636.120117188 71.2001953125 660.97265625 96.052734375 c 128,-1,4
 685.799804688 120.879882812 685.799804688 120.879882812 685.825195312 159.671875 c 0,5,6
 685.799804688 209.440429688 685.799804688 209.440429688 667.440429688 244 c 0,7,8
 591.83984375 391.959960938 591.83984375 391.959960938 504.360351562 391.959960938 c 0,9,10
 430.919921875 391.959960938 430.919921875 391.959960938 327.240234375 223.48046875 c 1,0,1
753.83984375 46.3603515625 m 1,11,12
 708 -24 708 -24 690.120117188 -42.2001953125 c 0,13,14
 635 -97 635 -97 569.487304688 -96.6083984375 c 0,15,16
 450 -96 450 -96 220.3203125 74.4404296875 c 1,17,18
 158.696472715 -10.41796875 158.696472715 -10.41796875 34.984375 -10.41796875 c 6,19,-1
 -8.7919921875 -10.41796875 l 5,20,-1
 -8.7919921875 184.131835938 l 1,21,-1
 49.8525390625 184.131835938 l 2,22,23
 148 184 148 184 192.240234375 249.400390625 c 0,24,25
 374.798074397 520.216995713 374.798074397 520.216995713 496.799804688 550.719726562 c 0,26,27
 523 557 523 557 567 552.879882812 c 0,28,29
 688 540 688 540 791.639648438 260.200195312 c 0,30,31
 819.833172265 184.448242188 819.833172265 184.448242188 945.594726562 184.448242188 c 2,32,-1
 985.678710938 184.448242188 l 1,33,-1
 985.678710938 -10.0185546875 l 5,34,-1
 953.516601562 -10.0185546875 l 6,35,36
 807 -10 807 -10 753.83984375 46.3603515625 c 1,11,12
EndSplineSet
EndChar

StartChar: uniFEEA
Encoding: 65258 65258 242
Width: 944
VWidth: 2673
GlyphClass: 2
Flags: W
AnchorPoint: "Anchor-10" 567.466 1276.62 basechar 0
AnchorPoint: "Anchor-7" 403.333 -243.398 basechar 0
LayerCount: 2
Fore
SplineSet
174.225585938 432.560546875 m 0,0,1
 174.443359375 370.397460938 174.443359375 370.397460938 295.307617188 365.1875 c 0,2,3
 450.919921875 358.48046875 450.919921875 358.48046875 607.51953125 388.719726562 c 1,4,-1
 566.26953125 652.297851562 l 1,5,6
 189.559570312 526.959960938 189.559570312 526.959960938 176.33984375 453.625 c 0,7,8
 174.440429688 442.719726562 174.440429688 442.719726562 174.225585938 432.560546875 c 0,0,1
136.639648438 559.360351562 m 0,9,10
 221 690 221 690 544.879882812 778.599609375 c 1,11,-1
 530.83984375 877.959960938 l 1,12,-1
 643.918945312 977.545898438 l 1,13,-1
 709.875976562 443.159179688 l 2,14,15
 742.059570312 183.51953125 742.059570312 183.51953125 939.17578125 183.51953125 c 2,16,-1
 953.811523438 183.51953125 l 1,17,-1
 953.811523438 -9.51953125 l 1,18,-1
 939.297851562 -9.51953125 l 2,19,20
 739 -10 739 -10 666.919921875 205.120117188 c 1,21,22
 542 179 542 179 404.48046875 179.200195312 c 0,23,24
 186 181 186 181 137.719726562 235.360351562 c 0,25,26
 91 287 91 287 91.2802734375 401.6796875 c 0,27,28
 91 490 91 490 136.639648438 559.360351562 c 0,9,10
EndSplineSet
EndChar

StartChar: uniFEEB
Encoding: 65259 65259 243
Width: 1078
VWidth: 2677
GlyphClass: 2
Flags: W
AnchorPoint: "Anchor-10" 417.955 1280.02 basechar 0
AnchorPoint: "Anchor-7" 417.253 -236.716 basechar 0
LayerCount: 2
Fore
SplineSet
643 529 m 1,0,1
 662 356 662 356 512.819335938 241.979492188 c 1,2,3
 750 131 750 131 815.779296875 189.725585938 c 0,4,5
 878 246 878 246 877 285 c 4,6,7
 876 377 876 377 643 529 c 1,0,1
381.654296875 717.286132812 m 1,8,-1
 274.668945312 776.83203125 l 1,9,-1
 359.930664062 935.255859375 l 1,10,-1
 654.498046875 749.680664062 l 2,11,12
 990 538 990 538 986.092773438 287.798828125 c 0,13,14
 985 229 985 229 968.696289062 192.180664062 c 0,15,16
 891 27 891 27 788.3359375 19.828125 c 0,17,18
 590 5 590 5 379.84375 114.520507812 c 1,19,20
 136.897155789 -10.052734375 136.897155789 -10.052734375 17.4111328125 -10.052734375 c 2,21,-1
 -10.203125 -10.052734375 l 1,22,-1
 -10.203125 184.5390625 l 1,23,-1
 23.3369140625 184.5390625 l 2,24,25
 178 185 178 185 251.295898438 206.243164062 c 1,26,27
 189 232 189 232 153.6796875 316.989257812 c 0,28,29
 123 391 123 391 155.333984375 488.08984375 c 0,30,31
 204 635 204 635 342.442382812 697.26953125 c 0,32,33
 362 706 362 706 381.654296875 717.286132812 c 1,8,-1
417.338867188 280.67578125 m 1,34,35
 511.284179688 342.235351562 511.284179688 342.235351562 556.703125 469.139648438 c 0,36,37
 594 573.400390625 594 573.400390625 514.682617188 603.959960938 c 0,38,39
 412.559570312 643.599609375 412.559570312 643.599609375 321.922851562 536.619140625 c 0,40,41
 253.799804688 457.83984375 253.799804688 457.83984375 282.018554688 380.368164062 c 0,42,43
 309.959960938 303.400390625 309.959960938 303.400390625 417.338867188 280.67578125 c 1,34,35
EndSplineSet
EndChar

StartChar: uniFEEC
Encoding: 65260 65260 244
Width: 901
VWidth: 2697
GlyphClass: 2
Flags: W
AnchorPoint: "Anchor-7" 349.43 -744.175 basechar 0
AnchorPoint: "Anchor-10" 314.612 1274.68 basechar 0
LayerCount: 2
Fore
SplineSet
275.139648438 183.951171875 m 1,0,1
 491.134765625 187.81640625 491.134765625 187.81640625 494.639648438 327.16015625 c 0,2,3
 498.959960938 498.879882812 498.959960938 498.879882812 390.959960938 611.200195312 c 0,4,5
 340.200195312 664.120117188 340.200195312 664.120117188 327.181640625 637.120117188 c 0,6,7
 266.759765625 514 266.759765625 514 267.83984375 340.120117188 c 0,8,9
 268.919921875 232.120117188 268.919921875 232.120117188 275.139648438 183.951171875 c 1,0,1
398.217773438 843.993164062 m 0,10,11
 606 686 606 686 587.51953125 308.799804688 c 0,12,13
 579 134 579 134 498 57 c 0,14,15
 430 -8 430 -8 298.080078125 -10.599609375 c 1,16,17
 314 -197 314 -197 502.159179688 -391.4375 c 1,18,19
 527 18 527 18 776.51953125 148.959960938 c 0,20,21
 840.332798685 182.173213616 840.332798685 182.173213616 892.51953125 183.172851562 c 2,22,-1
 910.618164062 183.51953125 l 1,23,-1
 910.618164062 -9.51953125 l 1,24,-1
 888.465820312 -10.5908203125 l 2,25,26
 817 -14 817 -14 748.431640625 -44.01953125 c 0,27,28
 526 -142 526 -142 658.799804688 -519.559570312 c 1,29,-1
 538.456054688 -624.219726562 l 1,30,31
 251 -417 251 -417 206.443359375 -10.4921875 c 1,32,-1
 -17.0966796875 -9.51953125 l 1,33,-1
 -17.0966796875 183.51953125 l 1,34,-1
 190.080078125 180.280273438 l 1,35,36
 177 274 177 274 177.120117188 340.120117188 c 0,37,38
 177 681 177 681 299.793945312 836.474609375 c 0,39,40
 340 888 340 888 398.217773438 843.993164062 c 0,10,11
EndSplineSet
EndChar

StartChar: uniFEEE
Encoding: 65262 65262 246
Width: 841
VWidth: 2701
GlyphClass: 2
Flags: W
AnchorPoint: "Anchor-10" 238.638 1300.8 basechar 0
AnchorPoint: "Anchor-7" 460.553 -790.945 basechar 0
LayerCount: 2
Fore
SplineSet
715.3671875 -9.51953125 m 1,0,1
 649 -382 649 -382 451.805664062 -532.51953125 c 0,2,3
 405 -568 405 -568 348.83984375 -567.782226562 c 0,4,5
 186 -567 186 -567 31.3203125 -516.3203125 c 0,6,7
 4 -507 4 -507 37.7998046875 -487.702148438 c 0,8,9
 53 -479 53 -479 67.7744140625 -473.979492188 c 0,10,11
 504 -326 504 -326 610.10546875 -10.7509765625 c 1,12,13
 548 -17 548 -17 488.16015625 -17.6201171875 c 0,14,15
 429 -18 429 -18 376.243164062 -15.4501953125 c 0,16,17
 249 -7 249 -7 198.833984375 73.8447265625 c 0,18,19
 147 157 147 157 161.529296875 289.241210938 c 0,20,21
 187 514 187 514 300.116210938 618.970703125 c 0,22,23
 356 671 356 671 435.780273438 670.599609375 c 0,24,25
 517 671 517 671 580.810546875 604.80859375 c 0,26,27
 697.752234021 484.255417691 697.752234021 484.255417691 713.099609375 282.654296875 c 2,28,-1
 720.646484375 183.51953125 l 1,29,-1
 851.0390625 183.51953125 l 1,30,-1
 851.0390625 -9.51953125 l 1,31,-1
 715.3671875 -9.51953125 l 1,0,1
578.079101562 340.18359375 m 0,32,33
 528 468 528 468 413.099609375 467.559570312 c 0,34,35
 299.317379742 467.994959035 299.317379742 467.994959035 266.05859375 294.715820312 c 0,36,37
 245.085151401 186.439597466 245.085151401 186.439597466 341.909179688 177.298828125 c 4,38,39
 451 167 451 167 611.446289062 181.474609375 c 5,40,41
 612 254 612 254 578.079101562 340.18359375 c 0,32,33
EndSplineSet
EndChar

StartChar: uniFEF0
Encoding: 65264 65264 248
Width: 1370
VWidth: 2717
GlyphClass: 2
Flags: W
AnchorPoint: "Anchor-10" 666.872 572.396 basechar 0
AnchorPoint: "Anchor-7" 242.613 -755.212 basechar 0
LayerCount: 2
Fore
SplineSet
314.73828125 367.05078125 m 0,0,1
 339 367 339 367 339.450195312 338.823242188 c 0,2,3
 339 311 339 311 318.624023438 264.51953125 c 0,4,5
 227 58 227 58 227.366210938 -80.0556640625 c 0,6,7
 227 -218 227 -218 298.139648438 -300.860351562 c 0,8,9
 410 -432 410 -432 702.717773438 -431.989257812 c 0,10,11
 892 -432 892 -432 1015.66699219 -390.995117188 c 0,12,13
 1139 -350 1139 -350 1176 -292 c 0,14,15
 1200 -253 1200 -253 1169.3203125 -247.61328125 c 0,16,17
 974 -219 974 -219 915 -179.5 c 128,-1,18
 856 -140 856 -140 856.052734375 -88.4609375 c 0,19,20
 856 -33 856 -33 886 25 c 0,21,22
 928.998813166 108.06588907 928.998813166 108.06588907 1004.49609375 147.759765625 c 0,23,24
 1072.0917833 183.51953125 1072.0917833 183.51953125 1278.66601562 183.51953125 c 2,25,-1
 1380.328125 183.51953125 l 1,26,-1
 1380.328125 -9.51953125 l 1,27,-1
 1296.51660156 -9.51953125 l 2,28,29
 1223.10895434 -10.1222675601 1223.10895434 -10.1222675601 1041.82226562 16.1962890625 c 0,30,31
 975 26 975 26 958.400390625 -46.69921875 c 0,32,33
 955 -62 955 -62 973.51953125 -64.001953125 c 0,34,35
 1078 -73 1078 -73 1183.109375 -100.001953125 c 0,36,37
 1284 -125 1284 -125 1285.56640625 -212.1015625 c 0,38,39
 1286 -233 1286 -233 1280.55957031 -260.360351562 c 0,40,41
 1244 -472 1244 -472 1019 -572 c 4,42,43
 903 -624 903 -624 647.31640625 -623.920898438 c 0,44,45
 183 -624 183 -624 104.254882812 -294.100585938 c 0,46,47
 92 -243 92 -243 91.546875 -184.747070312 c 0,48,49
 92 0 92 0 220.919921875 253.719726562 c 0,50,51
 279 367 279 367 314.73828125 367.05078125 c 0,0,1
EndSplineSet
EndChar

StartChar: uniFEFB
Encoding: 65275 65275 259
Width: 1214
VWidth: 2653
GlyphClass: 3
Flags: W
AnchorPoint: "Anchor-9" 973.701 1570.79 baselig 0
AnchorPoint: "Anchor-6" 976.025 -271.026 baselig 0
AnchorPoint: "Anchor-6" 390.414 -275.326 baselig 1
AnchorPoint: "Anchor-9" 134.363 1469.38 baselig 1
LayerCount: 2
Fore
SplineSet
644 293 m 1,0,1
 556 666 556 666 97 1122 c 1,2,-1
 158.67578125 1316.16015625 l 1,3,4
 523.750823782 845.711932051 523.750823782 845.711932051 608 605 c 0,5,6
 692 365 692 365 644 293 c 1,0,1
672.3203125 182.440429688 m 28,7,8
 468 125 468 125 184.870117188 168.665039062 c 1,9,10
 284 39 284 39 427.16015625 -11.6796875 c 1,11,-1
 541.831054688 -10.4951171875 l 2,12,13
 826 -8 826 -8 968.419921875 188.009765625 c 4,14,15
 1083.73144531 346.630580171 1083.73144531 346.630580171 1083.73144531 571.139648438 c 2,16,-1
 1083.73144531 1500.65429688 l 1,17,-1
 934.400390625 1404.75976562 l 1,18,19
 948 1303 948 1303 960.3203125 1077.51953125 c 0,20,21
 980 724 980 724 968.912109375 572.313476562 c 0,22,23
 958 410 958 410 872.83984375 309.879882812 c 4,24,25
 794 217 794 217 672.3203125 182.440429688 c 28,7,8
EndSplineSet
LCarets2: 1 0
Ligature2: "'rlig' Required Ligatures in Arabic lookup 16 subtable" uniFEDF uniFE8E
EndChar

StartChar: uniFEFC
Encoding: 65276 65276 260
Width: 1426
VWidth: 2653
GlyphClass: 3
Flags: W
AnchorPoint: "Anchor-9" 1031.86 1570.1 baselig 0
AnchorPoint: "Anchor-6" 989.034 -277.292 baselig 0
AnchorPoint: "Anchor-6" 475.823 -286.113 baselig 1
AnchorPoint: "Anchor-9" 113.225 1444.72 baselig 1
LayerCount: 2
Fore
SplineSet
652 177 m 28,0,1
 497 128 497 128 176.872070312 173.303710938 c 5,2,3
 283 40 283 40 428.482421875 -10.3388671875 c 5,4,-1
 452.384765625 -11.0341796875 l 6,5,6
 698 -18 698 -18 870.317382812 174.264648438 c 4,7,8
 963 278 963 278 1002.90820312 407.25 c 5,9,10
 1091.10488566 -7.49322281427 1091.10488566 -7.49322281427 1367.53320312 -10.3408203125 c 2,11,-1
 1437.77929688 -11.064453125 l 1,12,-1
 1437.77929688 183.434570312 l 1,13,-1
 1400.31445312 183.434570312 l 2,14,15
 1215 183 1215 183 1153.66796875 359.489257812 c 0,16,17
 1103.03222656 504.907450187 1103.03222656 504.907450187 1103.03222656 694.114257812 c 6,18,-1
 1103.03222656 1500.61621094 l 5,19,-1
 949.200195312 1408 l 5,20,21
 973 1301 973 1301 979.337890625 931.2734375 c 4,22,23
 982 787 982 787 956.797851562 596.31640625 c 4,24,25
 943 491 943 491 872.555664062 368.55859375 c 4,26,27
 788 221 788 221 652 177 c 28,0,1
644 293 m 5,28,29
 556 666 556 666 97 1122 c 5,30,-1
 158.67578125 1316.16015625 l 5,31,32
 523.750823782 845.711932051 523.750823782 845.711932051 608 605 c 4,33,34
 692 365 692 365 644 293 c 5,28,29
EndSplineSet
LCarets2: 1 0
Ligature2: "'rlig' Required Ligatures in Arabic lookup 16 subtable" uniFEE0 uniFE8E
EndChar

StartChar: arabic_dot
Encoding: 65536 -1 261
Width: 169
VWidth: 2322
GlyphClass: 2
Flags: W
LayerCount: 2
Fore
SplineSet
101.24609375 195.454101562 m 2,0,-1
 190.465820312 106.235351562 l 2,1,2
 202.19921875 94.5009765625 202.19921875 94.5009765625 191.033203125 83.4423828125 c 2,3,-1
 97.5546875 -10.0361328125 l 2,4,5
 84.1689453125 -22.904296875 84.1689453125 -22.904296875 71.48828125 -10.11328125 c 2,6,-1
 -21.5849609375 82.9599609375 l 2,7,8
 -33.5146484375 94.22265625 -33.5146484375 94.22265625 -18.0986328125 109.63671875 c 2,9,-1
 68.6796875 196.4140625 l 2,10,11
 84.412109375 212.290039062 84.412109375 212.290039062 101.24609375 195.454101562 c 2,0,-1
EndSplineSet
EndChar

StartChar: arabic_2dots
Encoding: 65537 -1 262
Width: 511
VWidth: 2322
GlyphClass: 2
Flags: W
LayerCount: 2
Fore
SplineSet
137.734375 195.252929688 m 2,0,-1
 226.754882812 106.234375 l 2,1,2
 238.43359375 94.5556640625 238.43359375 94.5556640625 227.321289062 83.4423828125 c 2,3,-1
 134.333984375 -9.5458984375 l 2,4,5
 120.771484375 -23.107421875 120.771484375 -23.107421875 107.775390625 -10.11328125 c 2,6,-1
 14.353515625 83.3095703125 l 2,7,8
 3.6083984375 94.59765625 3.6083984375 94.59765625 17.693359375 109.140625 c 2,9,-1
 104.940429688 196.388671875 l 2,10,11
 120.770507812 212.217773438 120.770507812 212.217773438 137.734375 195.252929688 c 2,0,-1
406.493164062 195.254882812 m 2,12,-1
 495.512695312 106.234375 l 2,13,14
 507.24609375 94.5009765625 507.24609375 94.5009765625 496.080078125 83.4423828125 c 2,15,-1
 403.090820312 -9.5458984375 l 2,16,17
 389.471679688 -23.166015625 389.471679688 -23.166015625 376.534179688 -10.11328125 c 2,18,-1
 283.461914062 82.9599609375 l 2,19,20
 271.533203125 94.22265625 271.533203125 94.22265625 286.948242188 109.63671875 c 2,21,-1
 373.7265625 196.415039062 l 2,22,23
 389.458007812 212.290039062 389.458007812 212.290039062 406.493164062 195.254882812 c 2,12,-1
EndSplineSet
EndChar

StartChar: arabic_3dots
Encoding: 65538 -1 263
Width: 515
VWidth: 2322
GlyphClass: 2
Flags: W
LayerCount: 2
Fore
SplineSet
272.962890625 400.595703125 m 2,0,-1
 362.739257812 310.8203125 l 2,1,2
 374.47265625 299.0859375 374.47265625 299.0859375 363.305664062 288.02734375 c 2,3,-1
 270.317382812 195.0390625 l 2,4,5
 256.69921875 181.419921875 256.69921875 181.419921875 243.760742188 194.471679688 c 2,6,-1
 150.6875 287.543945312 l 2,7,8
 138.760742188 298.80859375 138.760742188 298.80859375 154.173828125 314.221679688 c 2,9,-1
 240.926757812 400.971679688 l 2,10,11
 256.537109375 416.5859375 256.537109375 416.5859375 272.962890625 400.595703125 c 2,0,-1
411.030273438 181.645507812 m 2,12,-1
 500.047851562 92.626953125 l 2,13,14
 511.727539062 80.9482421875 511.727539062 80.9482421875 500.615234375 69.833984375 c 2,15,-1
 407.626953125 -23.1533203125 l 2,16,17
 394.065429688 -36.71484375 394.065429688 -36.71484375 381.0703125 -23.720703125 c 2,18,-1
 288.08203125 69.2666015625 l 2,19,20
 276.40234375 80.947265625 276.40234375 80.947265625 291.484375 96.0283203125 c 2,21,-1
 378.234375 182.779296875 l 2,22,23
 393.651367188 198.1953125 393.651367188 198.1953125 411.030273438 181.645507812 c 2,12,-1
137.734375 181.645507812 m 2,24,-1
 226.754882812 92.626953125 l 2,25,26
 238.432617188 80.947265625 238.432617188 80.947265625 227.321289062 69.833984375 c 2,27,-1
 134.333984375 -23.1533203125 l 2,28,29
 120.771484375 -36.71484375 120.771484375 -36.71484375 107.775390625 -23.720703125 c 2,30,-1
 14.353515625 69.701171875 l 2,31,32
 3.3857421875 81.224609375 3.3857421875 81.224609375 18.189453125 96.0283203125 c 2,33,-1
 104.940429688 182.779296875 l 2,34,35
 120.771484375 198.610351562 120.771484375 198.610351562 137.734375 181.645507812 c 2,24,-1
EndSplineSet
EndChar

StartChar: arabic_3dots_a
Encoding: 65539 -1 264
Width: 514
VWidth: 2322
GlyphClass: 2
Flags: W
LayerCount: 2
Fore
SplineSet
272.3671875 -14.201171875 m 6,0,-1
 361.713867188 -103.548828125 l 6,1,2
 373.447265625 -115.282226562 373.447265625 -115.282226562 362.282226562 -126.341796875 c 6,3,-1
 269.291992188 -219.330078125 l 6,4,5
 255.673828125 -232.951171875 255.673828125 -232.951171875 242.734375 -219.896484375 c 6,6,-1
 149.662109375 -126.82421875 l 6,7,8
 137.736328125 -115.561523438 137.736328125 -115.561523438 153.1484375 -100.146484375 c 6,9,-1
 240.174804688 -13.1220703125 l 6,10,11
 255.909179688 1.8232421875 255.909179688 1.8232421875 272.3671875 -14.201171875 c 6,0,-1
409.737304688 204.484375 m 2,12,-1
 498.916015625 115.306640625 l 2,13,14
 510.59375 103.62890625 510.59375 103.62890625 499.481445312 92.5146484375 c 2,15,-1
 406.494140625 -0.474609375 l 2,16,17
 392.930664062 -14.037109375 392.930664062 -14.037109375 379.93359375 -1.041015625 c 2,18,-1
 286.889648438 92.005859375 l 2,19,20
 275.268554688 103.627929688 275.268554688 103.627929688 290.348632812 118.708007812 c 2,21,-1
 377.118164062 205.477539062 l 2,22,23
 392.9296875 221.291015625 392.9296875 221.291015625 409.737304688 204.484375 c 2,12,-1
137.736328125 204.325195312 m 2,24,-1
 226.755859375 115.306640625 l 2,25,26
 238.01171875 104.05078125 238.01171875 104.05078125 227.322265625 92.5146484375 c 2,27,-1
 134.333984375 -0.474609375 l 2,28,29
 120.770507812 -14.037109375 120.770507812 -14.037109375 107.775390625 -1.041015625 c 2,30,-1
 14.318359375 92.4169921875 l 2,31,32
 3.5439453125 103.682617188 3.5439453125 103.682617188 17.74609375 118.265625 c 2,33,-1
 104.958007812 205.477539062 l 2,34,35
 120.771484375 221.290039062 120.771484375 221.290039062 137.736328125 204.325195312 c 2,24,-1
EndSplineSet
EndChar

StartChar: uni066E.fina
Encoding: 65540 -1 265
Width: 1916
VWidth: 2681
GlyphClass: 2
Flags: W
AnchorPoint: "Anchor-10" 786.6 1283.13 basechar 0
AnchorPoint: "Anchor-7" 737.18 -266.391 basechar 0
LayerCount: 2
Fore
SplineSet
1926.91503906 183.51953125 m 1,0,-1
 1926.91503906 -9.51953125 l 1,1,-1
 1895.52441406 -9.7041015625 l 2,2,3
 1598 -11 1598 -11 1583.62011719 258.46484375 c 1,4,5
 1555 208 1555 208 1446.62109375 134.602539062 c 0,6,7
 1244 -4 1244 -4 827.16015625 -8.98046875 c 0,8,9
 425 -14 425 -14 293.4296875 55.28515625 c 0,10,11
 94 160 94 160 91.6796875 415.719726562 c 0,12,13
 91 536 91 536 122.689453125 636.040039062 c 0,14,15
 153 731 153 731 192.120117188 715.959960938 c 0,16,17
 206 711 206 711 206.16015625 692.200195312 c 0,18,19
 206 679 206 679 191.388671875 605.799804688 c 0,20,21
 179 541 179 541 181.3203125 470.799804688 c 0,22,23
 190 208 190 208 585.19921875 188.390625 c 0,24,25
 717 182 717 182 913.140625 184.16796875 c 0,26,27
 1214 187 1214 187 1397.29394531 288.107421875 c 0,28,29
 1485 337 1485 337 1549.29394531 407.248046875 c 0,30,31
 1585 446 1585 446 1611.40039062 482.080078125 c 0,32,33
 1661 551 1661 551 1687 535 c 0,34,35
 1699 528 1699 528 1698.87988281 513.399414062 c 0,36,37
 1699 489 1699 489 1684.00390625 444.879882812 c 0,38,39
 1594 184 1594 184 1889.9296875 183.51953125 c 2,40,-1
 1926.91503906 183.51953125 l 1,0,-1
EndSplineSet
EndChar

StartChar: uni06A1.fina
Encoding: 65543 -1 268
Width: 1896
VWidth: 2678
GlyphClass: 2
Flags: W
AnchorPoint: "Anchor-10" 562.375 1411.8 basechar 0
AnchorPoint: "Anchor-7" 696.139 -327.123 basechar 0
LayerCount: 2
Fore
SplineSet
181.3203125 476.200195312 m 0,0,1
 192.953125 206.098632812 192.953125 206.098632812 585.19921875 188.390625 c 0,2,3
 717 182 717 182 889.862304688 183.349609375 c 1,4,-1
 953.279296875 183.350585938 l 2,5,6
 1246 183 1246 183 1313.87109375 204.59765625 c 1,7,8
 1177 266 1177 266 1143.18164062 397.705078125 c 0,9,10
 1105 552 1105 552 1185.72753906 680.662109375 c 0,11,12
 1266 809 1266 809 1426.81347656 810.860351562 c 0,13,14
 1505 812 1505 812 1565.22070312 776.721679688 c 0,15,16
 1665 718 1665 718 1695.17578125 608.200195312 c 0,17,18
 1726 496 1726 496 1695.57324219 397.25 c 0,19,20
 1661 285 1661 285 1526.83984375 203.850585938 c 1,21,22
 1601.39746094 182.6015625 1601.39746094 182.6015625 1850.04785156 183.350585938 c 2,23,-1
 1906.13867188 183.51953125 l 1,24,-1
 1906.13867188 -9.515625 l 1,25,-1
 1842.28417969 -9.51953125 l 1,26,27
 1615 -12 1615 -12 1422.24023438 121.959960938 c 1,28,29
 1270.90332031 -9.083984375 1270.90332031 -9.083984375 942.37890625 -9.083984375 c 2,30,-1
 827.22265625 -9.083984375 l 9,31,32
 423 -13 423 -13 293.4296875 55.28515625 c 0,33,34
 95 159 95 159 91.6796875 421.120117188 c 0,35,36
 91 541 91 541 122.689453125 641.440429688 c 0,37,38
 153 736 153 736 192.120117188 721.360351562 c 0,39,40
 206 716 206 716 206.16015625 697.599609375 c 0,41,42
 206 685 206 685 191.388671875 611.200195312 c 0,43,44
 179 546 179 546 181.3203125 476.200195312 c 0,0,1
1542.33203125 343.247070312 m 0,45,46
 1655.51953125 454.599609375 1655.51953125 454.599609375 1542.45117188 580.060546875 c 0,47,48
 1487.04003906 641.440429688 1487.04003906 641.440429688 1422.93261719 641.01953125 c 0,49,50
 1358.51953125 641.440429688 1358.51953125 641.440429688 1291.83300781 566.272460938 c 0,51,52
 1192.20019531 454.599609375 1192.20019531 454.599609375 1303.95214844 343.227539062 c 0,53,54
 1353.12011719 293.6796875 1353.12011719 293.6796875 1421.16015625 293.6796875 c 0,55,56
 1492.44042969 293.6796875 1492.44042969 293.6796875 1542.33203125 343.247070312 c 0,45,46
EndSplineSet
EndChar

StartChar: uni06A1.init
Encoding: 65544 -1 269
Width: 760
VWidth: 2701
GlyphClass: 2
Flags: W
AnchorPoint: "Anchor-10" 348.045 1455.76 basechar 0
AnchorPoint: "Anchor-7" 358.653 -263.777 basechar 0
LayerCount: 2
Fore
SplineSet
350.74609375 863.559570312 m 4,0,1
 228.959960938 860.6796875 228.959960938 860.6796875 198.259765625 701.362304688 c 0,2,3
 181.440429688 615.51953125 181.440429688 615.51953125 262.94140625 582.469726562 c 0,4,5
 375.83984375 536.6796875 375.83984375 536.6796875 553.375976562 590.877929688 c 1,6,7
 556.200195312 671.6796875 556.200195312 671.6796875 517.3203125 757.352539062 c 0,8,9
 468.719726562 866.080078125 468.719726562 866.080078125 350.74609375 863.559570312 c 4,0,1
656.639648438 377.919921875 m 8,10,11
 585.088731231 -9.51953125 585.088731231 -9.51953125 184.421875 -9.51953125 c 2,12,-1
 -10.3623046875 -9.51953125 l 1,13,-1
 -10.3623046875 183.51953125 l 1,14,-1
 166.939453125 183.51953125 l 2,15,16
 537.969970703 183.51953125 537.969970703 183.51953125 552 408 c 1,17,18
 438 371 438 371 324.120117188 385.11328125 c 0,19,20
 198 401 198 401 145.259765625 474.040039062 c 0,21,22
 83 562 83 562 96.982421875 695.950195312 c 0,23,24
 119 903 119 903 236.62890625 1018.08984375 c 0,25,26
 300 1080 300 1080 393.3515625 1069.8359375 c 0,27,28
 431 1066 431 1066 474.475585938 1041.6171875 c 0,29,30
 583 981 583 981 635.040039062 818.559570312 c 0,31,32
 653 762 653 762 666.360351562 654.940429688 c 0,33,34
 683 517 683 517 656.639648438 377.919921875 c 8,10,11
EndSplineSet
EndChar

StartChar: uni06A1.medi
Encoding: 65545 -1 270
Width: 980
VWidth: 2678
GlyphClass: 2
Flags: W
AnchorPoint: "Anchor-10" 551.033 1212.57 basechar 0
AnchorPoint: "Anchor-7" 551.033 -258.815 basechar 0
LayerCount: 2
Fore
SplineSet
617.971679688 343.247070312 m 0,0,1
 731.16015625 454.599609375 731.16015625 454.599609375 618.090820312 580.059570312 c 0,2,3
 562.6796875 641.440429688 562.6796875 641.440429688 498.573242188 641.01953125 c 0,4,5
 434.16015625 641.440429688 434.16015625 641.440429688 367.473632812 566.272460938 c 0,6,7
 267.83984375 454.599609375 267.83984375 454.599609375 379.592773438 343.227539062 c 0,8,9
 428.759765625 293.6796875 428.759765625 293.6796875 496.799804688 293.6796875 c 0,10,11
 568.080078125 293.6796875 568.080078125 293.6796875 617.971679688 343.247070312 c 0,0,1
498.538085938 105.794921875 m 1,12,13
 353.697866842 -11.244140625 353.697866842 -11.244140625 97.939453125 -11.244140625 c 6,14,-1
 -10.7373046875 -11.244140625 l 5,15,-1
 -10.7373046875 183.349609375 l 1,16,-1
 46.19921875 183.350585938 l 2,17,18
 321 183 321 183 389.510742188 204.59765625 c 1,19,20
 251.528760082 266.661761688 251.528760082 266.661761688 218.821289062 397.705078125 c 0,21,22
 180 552 180 552 261.3671875 680.662109375 c 0,23,24
 341 809 341 809 502.453125 810.860351562 c 0,25,26
 581 812 581 812 640.860351562 776.721679688 c 0,27,28
 740 720 740 720 770.81640625 608.200195312 c 0,29,30
 801 496 801 496 771.212890625 391.850585938 c 0,31,32
 741 287 741 287 602.479492188 203.850585938 c 1,33,34
 728.382368246 181.11154909 728.382368246 181.11154909 942.967773438 183.350585938 c 2,35,-1
 990.418945312 183.845703125 l 1,36,-1
 990.418945312 -10.595703125 l 5,37,-1
 935.204101562 -11.244140625 l 6,38,39
 676 -14 676 -14 498.538085938 105.794921875 c 1,12,13
EndSplineSet
EndChar

StartChar: uni066F.fina
Encoding: 65546 -1 271
Width: 1367
VWidth: 2701
GlyphClass: 2
Flags: W
AnchorPoint: "Anchor-10" 356.867 1102.02 basechar 0
AnchorPoint: "Anchor-7" 461.433 -921.7 basechar 0
LayerCount: 2
Fore
SplineSet
645.631835938 -552.23828125 m 4,0,1
 334 -555 334 -555 199.799804688 -383.48046875 c 0,2,3
 62 -206 62 -206 112.6015625 101.37109375 c 0,4,5
 125 176 125 176 163.080078125 276.400390625 c 0,6,7
 213 407 213 407 257.657226562 377.919921875 c 0,8,9
 282 362 282 362 243.024414062 239.6796875 c 0,10,11
 162 -14 162 -14 249.48046875 -185.83984375 c 0,12,13
 338 -362 338 -362 680.400390625 -356.48046875 c 24,14,15
 1076 -349 1076 -349 1116.51953125 -9.51953125 c 1,16,17
 1054 -16 1054 -16 994.575195312 -16.3896484375 c 0,18,19
 935 -17 935 -17 882.658203125 -14.2197265625 c 0,20,21
 757 -8 757 -8 705.249023438 75.076171875 c 0,22,23
 653 158 653 158 667.944335938 290.471679688 c 0,24,25
 693 515 693 515 806.53125 620.202148438 c 0,26,27
 863 672 863 672 942.1953125 671.831054688 c 0,28,29
 1024 672 1024 672 1087.22460938 606.0390625 c 0,30,31
 1204.56016276 482.463229196 1204.56016276 482.463229196 1219.51464844 283.884765625 c 2,32,-1
 1227.06152344 183.670898438 l 1,33,-1
 1378.49707031 183.999023438 l 1,34,-1
 1378.49707031 -10.4423828125 l 1,35,-1
 1225.52636719 -10.4423828125 l 1,36,37
 1223 -27 1223 -27 1220.55273438 -46.5185546875 c 24,38,39
 1142 -548 1142 -548 645.631835938 -552.23828125 c 4,0,1
1084.49414062 341.4140625 m 0,40,41
 1034 469 1034 469 919.514648438 468.791015625 c 0,42,43
 805 469 805 469 772.473632812 295.946289062 c 0,44,45
 751 185 751 185 848.32421875 178.530273438 c 0,46,47
 959 171 959 171 1117.86132812 182.705078125 c 1,48,49
 1119 255 1119 255 1084.49414062 341.4140625 c 0,40,41
EndSplineSet
EndChar

StartChar: arabic_ring
Encoding: 65549 -1 274
Width: 515
VWidth: 2419
GlyphClass: 2
Flags: W
LayerCount: 2
Fore
SplineSet
370.604492188 264.779296875 m 0,0,1
 370.604492188 288.048828125 370.604492188 288.048828125 362.5390625 307.637695312 c 128,-1,2
 354.47265625 327.2265625 354.47265625 327.2265625 338.176757812 343.522460938 c 0,3,4
 327.30859375 354.779296875 327.30859375 354.779296875 314.868164062 362.232421875 c 128,-1,5
 302.4296875 369.684570312 302.4296875 369.684570312 288.311523438 373.39453125 c 128,-1,6
 274.194335938 377.103515625 274.194335938 377.103515625 258.280273438 377.103515625 c 0,7,8
 210.78515625 377.103515625 210.78515625 377.103515625 178.370117188 344.688476562 c 128,-1,9
 145.955078125 312.274414062 145.955078125 312.274414062 145.955078125 264.779296875 c 0,10,11
 145.955078125 256.622070312 145.955078125 256.622070312 146.854492188 248.944335938 c 128,-1,12
 147.75390625 241.265625 147.75390625 241.265625 149.555664062 234.056640625 c 128,-1,13
 151.357421875 226.84765625 151.357421875 226.84765625 154.0546875 220.10546875 c 128,-1,14
 156.752929688 213.36328125 156.752929688 213.36328125 160.356445312 207.071289062 c 128,-1,15
 163.959960938 200.780273438 163.959960938 200.780273438 168.456054688 194.944335938 c 128,-1,16
 172.952148438 189.108398438 172.952148438 189.108398438 178.356445312 183.704101562 c 0,17,18
 210.763671875 152.455078125 210.763671875 152.455078125 258.280273438 152.455078125 c 128,-1,19
 305.775390625 152.455078125 305.775390625 152.455078125 338.189453125 184.870117188 c 128,-1,20
 370.604492188 217.28515625 370.604492188 217.28515625 370.604492188 264.779296875 c 0,0,1
518.6328125 264.779296875 m 128,-1,22
 518.6328125 155.4296875 518.6328125 155.4296875 443.725585938 79.333984375 c 0,23,24
 367.641601562 3.24609375 367.641601562 3.24609375 258.280273438 3.24609375 c 128,-1,25
 148.911132812 3.24609375 148.911132812 3.24609375 74.013671875 79.333984375 c 0,26,27
 -2.0732421875 155.418945312 -2.0732421875 155.418945312 -2.0732421875 264.779296875 c 128,-1,28
 -2.0732421875 374.140625 -2.0732421875 374.140625 74.013671875 450.225585938 c 0,29,30
 148.91796875 525.131835938 148.91796875 525.131835938 258.280273438 525.131835938 c 128,-1,31
 367.62890625 525.131835938 367.62890625 525.131835938 443.725585938 450.225585938 c 0,32,21
 518.6328125 374.129882812 518.6328125 374.129882812 518.6328125 264.779296875 c 128,-1,22
EndSplineSet
EndChar

StartChar: arabic_gaf_bar
Encoding: 65550 -1 275
Width: 671
VWidth: 2419
GlyphClass: 2
Flags: W
LayerCount: 2
Fore
SplineSet
602.291992188 1871.53515625 m 5,0,-1
 16 1559 l 1,1,-1
 53.7109375 1684.93457031 l 1,2,-1
 658.063476562 2013.40039062 l 1,3,4
 638 1931 638 1931 602.291992188 1871.53515625 c 5,0,-1
EndSplineSet
EndChar

StartChar: uni066E.init.math
Encoding: 65560 -1 285
Width: 1071
VWidth: 2683
GlyphClass: 2
Flags: W
LayerCount: 2
Fore
SplineSet
695.125976562 75.892578125 m 0,0,1
 604.259765625 -31.7578125 604.259765625 -31.7578125 404.53125 -31.7578125 c 2,2,-1
 -29.8330078125 -31.7578125 l 1,3,-1
 -29.8330078125 173.509765625 l 1,4,-1
 330.961914062 173.509765625 l 2,5,6
 401.622070312 173.509765625 401.622070312 173.509765625 453.006835938 189.780273438 c 128,-1,7
 504.392578125 206.051757812 504.392578125 206.051757812 536.689453125 238.34765625 c 0,8,9
 608.216796875 309.87890625 608.216796875 309.87890625 608.216796875 460.127929688 c 2,10,-1
 608.216796875 729.963867188 l 1,11,-1
 813.482421875 729.963867188 l 1,12,-1
 813.482421875 460.127929688 l 2,13,14
 813.482421875 218.122070312 813.482421875 218.122070312 695.125976562 75.892578125 c 0,0,1
EndSplineSet
EndChar

StartChar: guillemotleft
Encoding: 171 171 286
Width: 1171
VWidth: 2419
Flags: W
LayerCount: 2
Fore
SplineSet
562.416015625 1105.49316406 m 1,0,-1
 530.584960938 1049.5234375 l 2,1,2
 460.731445312 926.69921875 460.731445312 926.69921875 425.959960938 807.243164062 c 0,3,4
 390.147460938 684.241210938 390.147460938 684.241210938 390.147460938 557.98828125 c 128,-1,5
 390.147460938 431.708984375 390.147460938 431.708984375 425.975585938 307.833007812 c 0,6,7
 460.756835938 187.571289062 460.756835938 187.571289062 530.533203125 65.37890625 c 2,8,-1
 562.525390625 9.353515625 l 1,9,-1
 399.747070312 9.353515625 l 1,10,-1
 388.7109375 26.734375 l 2,11,12
 302.862304688 161.958984375 302.862304688 161.958984375 259.9296875 292.765625 c 0,13,14
 238.056640625 359.426757812 238.056640625 359.426757812 227.115234375 425.739257812 c 128,-1,15
 216.172851562 492.051757812 216.172851562 492.051757812 216.172851562 557.98828125 c 0,16,17
 216.172851562 590.833007812 216.172851562 590.833007812 218.91015625 623.76953125 c 128,-1,18
 221.647460938 656.70703125 221.647460938 656.70703125 227.119140625 689.723632812 c 128,-1,19
 232.592773438 722.740234375 232.592773438 722.740234375 240.797851562 755.838867188 c 128,-1,20
 249.00390625 788.936523438 249.00390625 788.936523438 259.942382812 822.1171875 c 0,21,22
 270.682617188 854.690429688 270.682617188 854.690429688 284.1015625 887.6015625 c 128,-1,23
 297.521484375 920.513671875 297.521484375 920.513671875 313.615234375 953.754882812 c 128,-1,24
 329.708984375 986.997070312 329.708984375 986.997070312 348.473632812 1020.56835938 c 128,-1,25
 367.239257812 1054.13964844 367.239257812 1054.13964844 388.680664062 1088.05273438 c 2,26,-1
 399.7109375 1105.49316406 l 1,27,-1
 562.416015625 1105.49316406 l 1,0,-1
1005.85546875 1105.49316406 m 1,28,-1
 974.024414062 1049.5234375 l 2,29,30
 904.170898438 926.69921875 904.170898438 926.69921875 869.400390625 807.243164062 c 0,31,32
 851.491210938 745.735351562 851.491210938 745.735351562 842.5390625 683.42578125 c 128,-1,33
 833.586914062 621.118164062 833.586914062 621.118164062 833.586914062 557.98828125 c 0,34,35
 833.586914062 431.706054688 833.586914062 431.706054688 869.4140625 307.833007812 c 0,36,37
 886.799804688 247.715820312 886.799804688 247.715820312 912.938476562 187.102539062 c 128,-1,38
 939.076171875 126.489257812 939.076171875 126.489257812 973.973632812 65.37890625 c 2,39,-1
 1005.96191406 9.353515625 l 1,40,-1
 843.185546875 9.353515625 l 1,41,-1
 832.150390625 26.734375 l 2,42,43
 746.325195312 161.909179688 746.325195312 161.909179688 703.370117188 292.765625 c 0,44,45
 659.611328125 426.127929688 659.611328125 426.127929688 659.611328125 557.98828125 c 0,46,47
 659.611328125 689.353515625 659.611328125 689.353515625 703.381835938 822.1171875 c 0,48,49
 746.30078125 952.295898438 746.30078125 952.295898438 832.122070312 1088.05273438 c 2,50,-1
 843.149414062 1105.49316406 l 1,51,-1
 1005.85546875 1105.49316406 l 1,28,-1
EndSplineSet
EndChar

StartChar: guillemotright
Encoding: 187 187 287
Width: 1171
VWidth: 2419
Flags: W
LayerCount: 2
Fore
SplineSet
611.046875 1105.49316406 m 1,0,-1
 773.752929688 1105.49316406 l 1,1,-1
 784.78125 1088.05273438 l 2,2,3
 827.684570312 1020.19238281 827.684570312 1020.19238281 859.872070312 953.709960938 c 128,-1,4
 892.05859375 887.227539062 892.05859375 887.227539062 913.520507812 822.1171875 c 0,5,6
 957.290039062 689.357421875 957.290039062 689.357421875 957.290039062 557.98828125 c 0,7,8
 957.290039062 514.028320312 957.290039062 514.028320312 952.42578125 469.896484375 c 128,-1,9
 947.560546875 425.763671875 947.560546875 425.763671875 937.837890625 381.483398438 c 128,-1,10
 928.114257812 337.204101562 928.114257812 337.204101562 913.533203125 292.764648438 c 0,11,12
 870.692382812 162.260742188 870.692382812 162.260742188 784.974609375 27.0859375 c 2,13,-1
 773.716796875 9.353515625 l 1,14,-1
 610.938476562 9.353515625 l 1,15,-1
 642.9296875 65.37890625 l 2,16,17
 712.732421875 187.626953125 712.732421875 187.626953125 747.487304688 307.833007812 c 0,18,19
 783.315429688 431.708984375 783.315429688 431.708984375 783.315429688 557.98828125 c 128,-1,20
 783.315429688 684.241210938 783.315429688 684.241210938 747.50390625 807.243164062 c 0,21,22
 712.725585938 926.69921875 712.725585938 926.69921875 642.87890625 1049.5234375 c 2,23,-1
 611.046875 1105.49316406 l 1,0,-1
167.607421875 1105.49316406 m 1,24,-1
 330.313476562 1105.49316406 l 1,25,-1
 341.340820312 1088.05273438 l 2,26,27
 427.1484375 952.336914062 427.1484375 952.336914062 470.08203125 822.116210938 c 0,28,29
 513.852539062 689.353515625 513.852539062 689.353515625 513.852539062 557.98828125 c 0,30,31
 513.852539062 514.029296875 513.852539062 514.029296875 508.987304688 469.8984375 c 128,-1,32
 504.123046875 425.765625 504.123046875 425.765625 494.3984375 381.486328125 c 128,-1,33
 484.673828125 337.206054688 484.673828125 337.206054688 470.092773438 292.764648438 c 0,34,35
 427.153320312 161.959960938 427.153320312 161.959960938 341.3125 26.734375 c 2,36,-1
 330.27734375 9.353515625 l 1,37,-1
 167.500976562 9.353515625 l 1,38,-1
 199.490234375 65.37890625 l 2,39,40
 269.291992188 187.625976562 269.291992188 187.625976562 304.049804688 307.833007812 c 0,41,42
 339.875 431.706054688 339.875 431.706054688 339.875 557.98828125 c 128,-1,43
 339.875 684.241210938 339.875 684.241210938 304.063476562 807.243164062 c 0,44,45
 269.286132812 926.69921875 269.286132812 926.69921875 199.439453125 1049.5234375 c 2,46,-1
 167.607421875 1105.49316406 l 1,24,-1
EndSplineSet
EndChar

StartChar: NameMe.337
Encoding: 65562 -1 294
Width: 723
VWidth: 2575
Flags: W
LayerCount: 2
Fore
SplineSet
323.836914062 115.362304688 m 2,0,1
 223.443359375 3.24609375 223.443359375 3.24609375 95.1748046875 3.24609375 c 2,2,-1
 -26.1328125 3.24609375 l 1,3,-1
 -26.1328125 206.681640625 l 1,4,-1
 25.76953125 206.681640625 l 2,5,6
 56.9140625 206.681640625 56.9140625 206.681640625 84.5458984375 210.551757812 c 128,-1,7
 112.178710938 214.419921875 112.178710938 214.419921875 136.25 222.142578125 c 128,-1,8
 160.321289062 229.865234375 160.321289062 229.865234375 180.877929688 241.387695312 c 128,-1,9
 201.435546875 252.91015625 201.435546875 252.91015625 218.55859375 268.258789062 c 0,10,11
 296.3125 338.051757812 296.3125 338.051757812 289.573242188 477.329101562 c 2,12,-1
 243.508789062 1428.8984375 l 1,13,-1
 432.741210938 1513.33789062 l 1,14,-1
 432.741210938 477.428710938 l 2,15,16
 432.741210938 337.290039062 432.741210938 337.290039062 468.409179688 286.016601562 c 0,17,18
 523.600585938 206.681640625 523.600585938 206.681640625 701.259765625 206.681640625 c 2,19,-1
 751.981445312 206.681640625 l 1,20,-1
 751.981445312 3.24609375 l 1,21,-1
 631.853515625 3.24609375 l 2,22,23
 455.48828125 3.24609375 455.48828125 3.24609375 352.265625 115.600585938 c 2,24,-1
 337.9765625 131.151367188 l 1,25,-1
 323.836914062 115.362304688 l 2,0,1
EndSplineSet
EndChar

StartChar: NameMe.338
Encoding: 65563 -1 295
Width: 626
VWidth: 2575
Flags: W
LayerCount: 2
Fore
SplineSet
465.76171875 520.333984375 m 2,0,1
 465.76171875 232.315429688 465.76171875 232.315429688 342.732421875 110.088867188 c 0,2,3
 231.140625 3.24609375 231.140625 3.24609375 64.51171875 3.24609375 c 2,4,-1
 -26.1328125 3.24609375 l 1,5,-1
 -26.1328125 206.681640625 l 1,6,-1
 15.1552734375 206.681640625 l 2,7,8
 178.265625 206.681640625 178.265625 206.681640625 253.072265625 300.150390625 c 0,9,10
 326.506835938 391.921875 326.506835938 391.921875 320.234375 535.38671875 c 2,11,-1
 275.358398438 1562.24609375 l 1,12,-1
 465.76171875 1646.67773438 l 1,13,-1
 465.76171875 520.333984375 l 2,0,1
EndSplineSet
EndChar

StartChar: exclam
Encoding: 33 33 298
Width: 648
VWidth: 4
Flags: W
LayerCount: 2
Fore
SplineSet
193.395507812 132.622070312 m 128,-1,1
 193.395507812 186.665039062 193.395507812 186.665039062 230.55078125 224.946289062 c 0,2,3
 269.95703125 263.2265625 269.95703125 263.2265625 324 263.2265625 c 128,-1,4
 378.041992188 263.2265625 378.041992188 263.2265625 416.323242188 224.946289062 c 128,-1,5
 454.604492188 186.665039062 454.604492188 186.665039062 454.604492188 132.622070312 c 128,-1,6
 454.604492188 78.578125 454.604492188 78.578125 416.323242188 39.171875 c 0,7,8
 378.041992188 2.017578125 378.041992188 2.017578125 324 2.017578125 c 128,-1,9
 269.95703125 2.017578125 269.95703125 2.017578125 230.55078125 39.171875 c 0,10,0
 193.395507812 78.578125 193.395507812 78.578125 193.395507812 132.622070312 c 128,-1,1
308.213867188 1536.6953125 m 6,11,-1
 331.973632812 1536.6953125 l 6,12,13
 408.935515558 1536.99974492 408.935515558 1536.99974492 406.493164062 1424.28027344 c 6,14,-1
 385.436523438 452.473632812 l 5,15,-1
 254.745117188 452.473632812 l 5,16,-1
 233.693359375 1423.20019531 l 6,17,18
 231 1537 231 1537 308.213867188 1536.6953125 c 6,11,-1
EndSplineSet
EndChar

StartChar: period
Encoding: 46 46 299
Width: 741
VWidth: 2425
Flags: W
LayerCount: 2
Fore
SplineSet
252.3828125 132.622070312 m 132,-1,1
 252.3828125 186.665039062 252.3828125 186.665039062 289.537109375 224.946289062 c 4,2,3
 328.943359375 263.2265625 328.943359375 263.2265625 382.986328125 263.2265625 c 132,-1,4
 437.030273438 263.2265625 437.030273438 263.2265625 475.310546875 224.946289062 c 132,-1,5
 513.591796875 186.665039062 513.591796875 186.665039062 513.591796875 132.622070312 c 132,-1,6
 513.591796875 78.578125 513.591796875 78.578125 475.310546875 39.171875 c 4,7,8
 437.030273438 2.017578125 437.030273438 2.017578125 382.986328125 2.017578125 c 132,-1,9
 328.943359375 2.017578125 328.943359375 2.017578125 289.537109375 39.171875 c 4,10,0
 252.3828125 78.578125 252.3828125 78.578125 252.3828125 132.622070312 c 132,-1,1
EndSplineSet
EndChar

StartChar: colon
Encoding: 58 58 300
Width: 741
VWidth: 2425
Flags: W
LayerCount: 2
Fore
SplineSet
252.3828125 755.782226562 m 128,-1,1
 252.3828125 809.825195312 252.3828125 809.825195312 289.537109375 848.106445312 c 0,2,3
 328.943359375 886.38671875 328.943359375 886.38671875 382.986328125 886.38671875 c 128,-1,4
 437.030273438 886.38671875 437.030273438 886.38671875 475.310546875 848.106445312 c 128,-1,5
 513.591796875 809.825195312 513.591796875 809.825195312 513.591796875 755.782226562 c 128,-1,6
 513.591796875 701.73828125 513.591796875 701.73828125 475.310546875 662.33203125 c 0,7,8
 437.030273438 625.177734375 437.030273438 625.177734375 382.986328125 625.177734375 c 128,-1,9
 328.943359375 625.177734375 328.943359375 625.177734375 289.537109375 662.33203125 c 0,10,0
 252.3828125 701.73828125 252.3828125 701.73828125 252.3828125 755.782226562 c 128,-1,1
252.3828125 132.622070312 m 128,-1,12
 252.3828125 186.665039062 252.3828125 186.665039062 289.537109375 224.946289062 c 0,13,14
 328.943359375 263.2265625 328.943359375 263.2265625 382.986328125 263.2265625 c 128,-1,15
 437.030273438 263.2265625 437.030273438 263.2265625 475.310546875 224.946289062 c 128,-1,16
 513.591796875 186.665039062 513.591796875 186.665039062 513.591796875 132.622070312 c 128,-1,17
 513.591796875 78.578125 513.591796875 78.578125 475.310546875 39.171875 c 0,18,19
 437.030273438 2.017578125 437.030273438 2.017578125 382.986328125 2.017578125 c 128,-1,20
 328.943359375 2.017578125 328.943359375 2.017578125 289.537109375 39.171875 c 0,21,11
 252.3828125 78.578125 252.3828125 78.578125 252.3828125 132.622070312 c 128,-1,12
EndSplineSet
EndChar
